%TF.GenerationSoftware,KiCad,Pcbnew,10.0.5*%
%TF.CreationDate,2026-08-22T19:25:51-07:00*%
%TF.ProjectId,driver-v5,64726976-6572-42d7-9635-2e6b69636164,rev?*%
%TF.SameCoordinates,Original*%
%TF.FileFunction,Soldermask,Bot*%
%TF.FilePolarity,Negative*%
%FSLAX46Y46*%
G04 Gerber Fmt 4.6, Leading zero omitted, Abs format (unit mm)*
G04 Created by KiCad (PCBNEW 10.0.5) date 2026-08-22 19:25:51*
%MOMM*%
%LPD*%
G01*
G04 APERTURE LIST*
G04 APERTURE END LIST*
G36*
X120704850Y-119600964D02*
G01*
X120755040Y-119606787D01*
X120772189Y-119614359D01*
X120795671Y-119619030D01*
X120820810Y-119635827D01*
X120840696Y-119644608D01*
X120854277Y-119658189D01*
X120876777Y-119673223D01*
X120891810Y-119695722D01*
X120905391Y-119709303D01*
X120914170Y-119729186D01*
X120930970Y-119754329D01*
X120935641Y-119777812D01*
X120943212Y-119794959D01*
X120949033Y-119845139D01*
X120950000Y-119850000D01*
X120950000Y-121300000D01*
X120949032Y-121304863D01*
X120943212Y-121355040D01*
X120935641Y-121372185D01*
X120930970Y-121395671D01*
X120914169Y-121420815D01*
X120905391Y-121440696D01*
X120891812Y-121454274D01*
X120876777Y-121476777D01*
X120854274Y-121491812D01*
X120840696Y-121505391D01*
X120820815Y-121514169D01*
X120795671Y-121530970D01*
X120772185Y-121535641D01*
X120755040Y-121543212D01*
X120704861Y-121549032D01*
X120700000Y-121550000D01*
X119500000Y-121550000D01*
X119495138Y-121549032D01*
X119444959Y-121543212D01*
X119427812Y-121535641D01*
X119404329Y-121530970D01*
X119379186Y-121514170D01*
X119359303Y-121505391D01*
X119345722Y-121491810D01*
X119323223Y-121476777D01*
X119308189Y-121454277D01*
X119294608Y-121440696D01*
X119285827Y-121420810D01*
X119269030Y-121395671D01*
X119264359Y-121372189D01*
X119256787Y-121355040D01*
X119250964Y-121304849D01*
X119250000Y-121300000D01*
X119250000Y-119850000D01*
X119250964Y-119845150D01*
X119256787Y-119794959D01*
X119264359Y-119777808D01*
X119269030Y-119754329D01*
X119285826Y-119729191D01*
X119294608Y-119709303D01*
X119308191Y-119695719D01*
X119323223Y-119673223D01*
X119345719Y-119658191D01*
X119359303Y-119644608D01*
X119379191Y-119635826D01*
X119404329Y-119619030D01*
X119427808Y-119614359D01*
X119444959Y-119606787D01*
X119495151Y-119600964D01*
X119500000Y-119600000D01*
X120700000Y-119600000D01*
X120704850Y-119600964D01*
G37*
G36*
X122846742Y-119636601D02*
G01*
X123000687Y-119700367D01*
X123139234Y-119792941D01*
X123257059Y-119910766D01*
X123349633Y-120049313D01*
X123413399Y-120203258D01*
X123445907Y-120366685D01*
X123450000Y-120450000D01*
X123450000Y-120700000D01*
X123445907Y-120783315D01*
X123413399Y-120946742D01*
X123349633Y-121100687D01*
X123257059Y-121239234D01*
X123139234Y-121357059D01*
X123000687Y-121449633D01*
X122846742Y-121513399D01*
X122683315Y-121545907D01*
X122516685Y-121545907D01*
X122353258Y-121513399D01*
X122199313Y-121449633D01*
X122060766Y-121357059D01*
X121942941Y-121239234D01*
X121850367Y-121100687D01*
X121786601Y-120946742D01*
X121754093Y-120783315D01*
X121750000Y-120700000D01*
X121750000Y-120450000D01*
X121754093Y-120366685D01*
X121786601Y-120203258D01*
X121850367Y-120049313D01*
X121942941Y-119910766D01*
X122060766Y-119792941D01*
X122199313Y-119700367D01*
X122353258Y-119636601D01*
X122516685Y-119604093D01*
X122683315Y-119604093D01*
X122846742Y-119636601D01*
G37*
G36*
X125346742Y-119636601D02*
G01*
X125500687Y-119700367D01*
X125639234Y-119792941D01*
X125757059Y-119910766D01*
X125849633Y-120049313D01*
X125913399Y-120203258D01*
X125945907Y-120366685D01*
X125950000Y-120450000D01*
X125950000Y-120700000D01*
X125945907Y-120783315D01*
X125913399Y-120946742D01*
X125849633Y-121100687D01*
X125757059Y-121239234D01*
X125639234Y-121357059D01*
X125500687Y-121449633D01*
X125346742Y-121513399D01*
X125183315Y-121545907D01*
X125016685Y-121545907D01*
X124853258Y-121513399D01*
X124699313Y-121449633D01*
X124560766Y-121357059D01*
X124442941Y-121239234D01*
X124350367Y-121100687D01*
X124286601Y-120946742D01*
X124254093Y-120783315D01*
X124250000Y-120700000D01*
X124250000Y-120450000D01*
X124254093Y-120366685D01*
X124286601Y-120203258D01*
X124350367Y-120049313D01*
X124442941Y-119910766D01*
X124560766Y-119792941D01*
X124699313Y-119700367D01*
X124853258Y-119636601D01*
X125016685Y-119604093D01*
X125183315Y-119604093D01*
X125346742Y-119636601D01*
G37*
G36*
X127846742Y-119636601D02*
G01*
X128000687Y-119700367D01*
X128139234Y-119792941D01*
X128257059Y-119910766D01*
X128349633Y-120049313D01*
X128413399Y-120203258D01*
X128445907Y-120366685D01*
X128450000Y-120450000D01*
X128450000Y-120700000D01*
X128445907Y-120783315D01*
X128413399Y-120946742D01*
X128349633Y-121100687D01*
X128257059Y-121239234D01*
X128139234Y-121357059D01*
X128000687Y-121449633D01*
X127846742Y-121513399D01*
X127683315Y-121545907D01*
X127516685Y-121545907D01*
X127353258Y-121513399D01*
X127199313Y-121449633D01*
X127060766Y-121357059D01*
X126942941Y-121239234D01*
X126850367Y-121100687D01*
X126786601Y-120946742D01*
X126754093Y-120783315D01*
X126750000Y-120700000D01*
X126750000Y-120450000D01*
X126754093Y-120366685D01*
X126786601Y-120203258D01*
X126850367Y-120049313D01*
X126942941Y-119910766D01*
X127060766Y-119792941D01*
X127199313Y-119700367D01*
X127353258Y-119636601D01*
X127516685Y-119604093D01*
X127683315Y-119604093D01*
X127846742Y-119636601D01*
G37*
G36*
X130346742Y-119636601D02*
G01*
X130500687Y-119700367D01*
X130639234Y-119792941D01*
X130757059Y-119910766D01*
X130849633Y-120049313D01*
X130913399Y-120203258D01*
X130945907Y-120366685D01*
X130950000Y-120450000D01*
X130950000Y-120700000D01*
X130945907Y-120783315D01*
X130913399Y-120946742D01*
X130849633Y-121100687D01*
X130757059Y-121239234D01*
X130639234Y-121357059D01*
X130500687Y-121449633D01*
X130346742Y-121513399D01*
X130183315Y-121545907D01*
X130016685Y-121545907D01*
X129853258Y-121513399D01*
X129699313Y-121449633D01*
X129560766Y-121357059D01*
X129442941Y-121239234D01*
X129350367Y-121100687D01*
X129286601Y-120946742D01*
X129254093Y-120783315D01*
X129250000Y-120700000D01*
X129250000Y-120450000D01*
X129254093Y-120366685D01*
X129286601Y-120203258D01*
X129350367Y-120049313D01*
X129442941Y-119910766D01*
X129560766Y-119792941D01*
X129699313Y-119700367D01*
X129853258Y-119636601D01*
X130016685Y-119604093D01*
X130183315Y-119604093D01*
X130346742Y-119636601D01*
G37*
G36*
X125850000Y-106150000D02*
G01*
X124150000Y-106150000D01*
X124150000Y-104450000D01*
X125850000Y-104450000D01*
X125850000Y-106150000D01*
G37*
G36*
X125850000Y-100400000D02*
G01*
X124150000Y-100400000D01*
X124150000Y-98700000D01*
X125850000Y-98700000D01*
X125850000Y-100400000D01*
G37*
G36*
X125850000Y-96600000D02*
G01*
X124150000Y-96600000D01*
X124150000Y-94900000D01*
X125850000Y-94900000D01*
X125850000Y-96600000D01*
G37*
G36*
X119246742Y-94806601D02*
G01*
X119400687Y-94870367D01*
X119539234Y-94962941D01*
X119657059Y-95080766D01*
X119749633Y-95219313D01*
X119813399Y-95373258D01*
X119845907Y-95536685D01*
X119845907Y-95703315D01*
X119813399Y-95866742D01*
X119749633Y-96020687D01*
X119657059Y-96159234D01*
X119539234Y-96277059D01*
X119400687Y-96369633D01*
X119246742Y-96433399D01*
X119083315Y-96465907D01*
X118916685Y-96465907D01*
X118753258Y-96433399D01*
X118599313Y-96369633D01*
X118460766Y-96277059D01*
X118342941Y-96159234D01*
X118250367Y-96020687D01*
X118186601Y-95866742D01*
X118154093Y-95703315D01*
X118154093Y-95536685D01*
X118186601Y-95373258D01*
X118250367Y-95219313D01*
X118342941Y-95080766D01*
X118460766Y-94962941D01*
X118599313Y-94870367D01*
X118753258Y-94806601D01*
X118916685Y-94774093D01*
X119083315Y-94774093D01*
X119246742Y-94806601D01*
G37*
G36*
X119246742Y-92266601D02*
G01*
X119400687Y-92330367D01*
X119539234Y-92422941D01*
X119657059Y-92540766D01*
X119749633Y-92679313D01*
X119813399Y-92833258D01*
X119845907Y-92996685D01*
X119845907Y-93163315D01*
X119813399Y-93326742D01*
X119749633Y-93480687D01*
X119657059Y-93619234D01*
X119539234Y-93737059D01*
X119400687Y-93829633D01*
X119246742Y-93893399D01*
X119083315Y-93925907D01*
X118916685Y-93925907D01*
X118753258Y-93893399D01*
X118599313Y-93829633D01*
X118460766Y-93737059D01*
X118342941Y-93619234D01*
X118250367Y-93480687D01*
X118186601Y-93326742D01*
X118154093Y-93163315D01*
X118154093Y-92996685D01*
X118186601Y-92833258D01*
X118250367Y-92679313D01*
X118342941Y-92540766D01*
X118460766Y-92422941D01*
X118599313Y-92330367D01*
X118753258Y-92266601D01*
X118916685Y-92234093D01*
X119083315Y-92234093D01*
X119246742Y-92266601D01*
G37*
G36*
X119246742Y-89726601D02*
G01*
X119400687Y-89790367D01*
X119539234Y-89882941D01*
X119657059Y-90000766D01*
X119749633Y-90139313D01*
X119813399Y-90293258D01*
X119845907Y-90456685D01*
X119845907Y-90623315D01*
X119813399Y-90786742D01*
X119749633Y-90940687D01*
X119657059Y-91079234D01*
X119539234Y-91197059D01*
X119400687Y-91289633D01*
X119246742Y-91353399D01*
X119083315Y-91385907D01*
X118916685Y-91385907D01*
X118753258Y-91353399D01*
X118599313Y-91289633D01*
X118460766Y-91197059D01*
X118342941Y-91079234D01*
X118250367Y-90940687D01*
X118186601Y-90786742D01*
X118154093Y-90623315D01*
X118154093Y-90456685D01*
X118186601Y-90293258D01*
X118250367Y-90139313D01*
X118342941Y-90000766D01*
X118460766Y-89882941D01*
X118599313Y-89790367D01*
X118753258Y-89726601D01*
X118916685Y-89694093D01*
X119083315Y-89694093D01*
X119246742Y-89726601D01*
G37*
G36*
X125850000Y-90850000D02*
G01*
X124150000Y-90850000D01*
X124150000Y-89150000D01*
X125850000Y-89150000D01*
X125850000Y-90850000D01*
G37*
G36*
X119850000Y-88850000D02*
G01*
X118150000Y-88850000D01*
X118150000Y-87150000D01*
X119850000Y-87150000D01*
X119850000Y-88850000D01*
G37*
G36*
X119810000Y-82800000D02*
G01*
X118110000Y-82800000D01*
X118110000Y-81100000D01*
X119810000Y-81100000D01*
X119810000Y-82800000D01*
G37*
G36*
X121746742Y-81136601D02*
G01*
X121900687Y-81200367D01*
X122039234Y-81292941D01*
X122157059Y-81410766D01*
X122249633Y-81549313D01*
X122313399Y-81703258D01*
X122345907Y-81866685D01*
X122345907Y-82033315D01*
X122313399Y-82196742D01*
X122249633Y-82350687D01*
X122157059Y-82489234D01*
X122039234Y-82607059D01*
X121900687Y-82699633D01*
X121746742Y-82763399D01*
X121583315Y-82795907D01*
X121416685Y-82795907D01*
X121253258Y-82763399D01*
X121099313Y-82699633D01*
X120960766Y-82607059D01*
X120842941Y-82489234D01*
X120750367Y-82350687D01*
X120686601Y-82196742D01*
X120654093Y-82033315D01*
X120654093Y-81866685D01*
X120686601Y-81703258D01*
X120750367Y-81549313D01*
X120842941Y-81410766D01*
X120960766Y-81292941D01*
X121099313Y-81200367D01*
X121253258Y-81136601D01*
X121416685Y-81104093D01*
X121583315Y-81104093D01*
X121746742Y-81136601D01*
G37*
M02*
