%TF.GenerationSoftware,KiCad,Pcbnew,10.0.5*%
%TF.CreationDate,2026-08-22T19:25:51-07:00*%
%TF.ProjectId,driver-v5,64726976-6572-42d7-9635-2e6b69636164,rev?*%
%TF.SameCoordinates,Original*%
%TF.FileFunction,Copper,L1,Top*%
%TF.FilePolarity,Positive*%
%FSLAX46Y46*%
G04 Gerber Fmt 4.6, Leading zero omitted, Abs format (unit mm)*
G04 Created by KiCad (PCBNEW 10.0.5) date 2026-08-22 19:25:51*
%MOMM*%
%LPD*%
G01*
G04 APERTURE LIST*
G04 Aperture macros list*
%AMRoundRect*
0 Rectangle with rounded corners*
0 $1 Rounding radius*
0 $2 $3 $4 $5 $6 $7 $8 $9 X,Y pos of 4 corners*
0 Add a 4 corners polygon primitive as box body*
4,1,4,$2,$3,$4,$5,$6,$7,$8,$9,$2,$3,0*
0 Add four circle primitives for the rounded corners*
1,1,$1+$1,$2,$3*
1,1,$1+$1,$4,$5*
1,1,$1+$1,$6,$7*
1,1,$1+$1,$8,$9*
0 Add four rect primitives between the rounded corners*
20,1,$1+$1,$2,$3,$4,$5,0*
20,1,$1+$1,$4,$5,$6,$7,0*
20,1,$1+$1,$6,$7,$8,$9,0*
20,1,$1+$1,$8,$9,$2,$3,0*%
%AMFreePoly0*
4,1,14,0.334644,0.085355,0.385355,0.034644,0.400000,-0.000711,0.400000,-0.050000,0.385355,-0.085355,0.350000,-0.100000,-0.350000,-0.100000,-0.385355,-0.085355,-0.400000,-0.050000,-0.400000,0.050000,-0.385355,0.085355,-0.350000,0.100000,0.299289,0.100000,0.334644,0.085355,0.334644,0.085355,$1*%
%AMFreePoly1*
4,1,14,0.385355,0.085355,0.400000,0.050000,0.400000,0.000711,0.385355,-0.034644,0.334644,-0.085355,0.299289,-0.100000,-0.350000,-0.100000,-0.385355,-0.085355,-0.400000,-0.050000,-0.400000,0.050000,-0.385355,0.085355,-0.350000,0.100000,0.350000,0.100000,0.385355,0.085355,0.385355,0.085355,$1*%
%AMFreePoly2*
4,1,14,0.085355,0.385355,0.100000,0.350000,0.100000,-0.350000,0.085355,-0.385355,0.050000,-0.400000,-0.050000,-0.400000,-0.085355,-0.385355,-0.100000,-0.350000,-0.100000,0.299289,-0.085355,0.334644,-0.034644,0.385355,0.000711,0.400000,0.050000,0.400000,0.085355,0.385355,0.085355,0.385355,$1*%
%AMFreePoly3*
4,1,14,0.034644,0.385355,0.085355,0.334644,0.100000,0.299289,0.100000,-0.350000,0.085355,-0.385355,0.050000,-0.400000,-0.050000,-0.400000,-0.085355,-0.385355,-0.100000,-0.350000,-0.100000,0.350000,-0.085355,0.385355,-0.050000,0.400000,-0.000711,0.400000,0.034644,0.385355,0.034644,0.385355,$1*%
%AMFreePoly4*
4,1,14,0.385355,0.085355,0.400000,0.050000,0.400000,-0.050000,0.385355,-0.085355,0.350000,-0.100000,-0.299289,-0.100000,-0.334644,-0.085355,-0.385355,-0.034644,-0.400000,0.000711,-0.400000,0.050000,-0.385355,0.085355,-0.350000,0.100000,0.350000,0.100000,0.385355,0.085355,0.385355,0.085355,$1*%
%AMFreePoly5*
4,1,14,0.385355,0.085355,0.400000,0.050000,0.400000,-0.050000,0.385355,-0.085355,0.350000,-0.100000,-0.350000,-0.100000,-0.385355,-0.085355,-0.400000,-0.050000,-0.400000,-0.000711,-0.385355,0.034644,-0.334644,0.085355,-0.299289,0.100000,0.350000,0.100000,0.385355,0.085355,0.385355,0.085355,$1*%
%AMFreePoly6*
4,1,14,0.085355,0.385355,0.100000,0.350000,0.100000,-0.299289,0.085355,-0.334644,0.034644,-0.385355,-0.000711,-0.400000,-0.050000,-0.400000,-0.085355,-0.385355,-0.100000,-0.350000,-0.100000,0.350000,-0.085355,0.385355,-0.050000,0.400000,0.050000,0.400000,0.085355,0.385355,0.085355,0.385355,$1*%
%AMFreePoly7*
4,1,14,0.085355,0.385355,0.100000,0.350000,0.100000,-0.350000,0.085355,-0.385355,0.050000,-0.400000,0.000711,-0.400000,-0.034644,-0.385355,-0.085355,-0.334644,-0.100000,-0.299289,-0.100000,0.350000,-0.085355,0.385355,-0.050000,0.400000,0.050000,0.400000,0.085355,0.385355,0.085355,0.385355,$1*%
G04 Aperture macros list end*
%TA.AperFunction,SMDPad,CuDef*%
%ADD10RoundRect,0.225000X-0.225000X-0.250000X0.225000X-0.250000X0.225000X0.250000X-0.225000X0.250000X0*%
%TD*%
%TA.AperFunction,ComponentPad*%
%ADD11R,1.700000X1.700000*%
%TD*%
%TA.AperFunction,SMDPad,CuDef*%
%ADD12RoundRect,0.200000X0.275000X-0.200000X0.275000X0.200000X-0.275000X0.200000X-0.275000X-0.200000X0*%
%TD*%
%TA.AperFunction,SMDPad,CuDef*%
%ADD13RoundRect,0.150000X-0.150000X0.825000X-0.150000X-0.825000X0.150000X-0.825000X0.150000X0.825000X0*%
%TD*%
%TA.AperFunction,SMDPad,CuDef*%
%ADD14FreePoly0,0.000000*%
%TD*%
%TA.AperFunction,SMDPad,CuDef*%
%ADD15RoundRect,0.050000X-0.350000X-0.050000X0.350000X-0.050000X0.350000X0.050000X-0.350000X0.050000X0*%
%TD*%
%TA.AperFunction,SMDPad,CuDef*%
%ADD16FreePoly1,0.000000*%
%TD*%
%TA.AperFunction,SMDPad,CuDef*%
%ADD17FreePoly2,0.000000*%
%TD*%
%TA.AperFunction,SMDPad,CuDef*%
%ADD18RoundRect,0.050000X-0.050000X-0.350000X0.050000X-0.350000X0.050000X0.350000X-0.050000X0.350000X0*%
%TD*%
%TA.AperFunction,SMDPad,CuDef*%
%ADD19FreePoly3,0.000000*%
%TD*%
%TA.AperFunction,SMDPad,CuDef*%
%ADD20FreePoly4,0.000000*%
%TD*%
%TA.AperFunction,SMDPad,CuDef*%
%ADD21FreePoly5,0.000000*%
%TD*%
%TA.AperFunction,SMDPad,CuDef*%
%ADD22FreePoly6,0.000000*%
%TD*%
%TA.AperFunction,SMDPad,CuDef*%
%ADD23FreePoly7,0.000000*%
%TD*%
%TA.AperFunction,HeatsinkPad*%
%ADD24R,1.700000X1.700000*%
%TD*%
%TA.AperFunction,SMDPad,CuDef*%
%ADD25RoundRect,0.218750X0.218750X0.256250X-0.218750X0.256250X-0.218750X-0.256250X0.218750X-0.256250X0*%
%TD*%
%TA.AperFunction,SMDPad,CuDef*%
%ADD26RoundRect,0.225000X-0.250000X0.225000X-0.250000X-0.225000X0.250000X-0.225000X0.250000X0.225000X0*%
%TD*%
%TA.AperFunction,SMDPad,CuDef*%
%ADD27RoundRect,0.200000X-0.200000X-0.275000X0.200000X-0.275000X0.200000X0.275000X-0.200000X0.275000X0*%
%TD*%
%TA.AperFunction,SMDPad,CuDef*%
%ADD28RoundRect,0.250000X1.137500X0.550000X-1.137500X0.550000X-1.137500X-0.550000X1.137500X-0.550000X0*%
%TD*%
%TA.AperFunction,ComponentPad*%
%ADD29C,1.700000*%
%TD*%
%TA.AperFunction,SMDPad,CuDef*%
%ADD30RoundRect,0.150000X0.512500X0.150000X-0.512500X0.150000X-0.512500X-0.150000X0.512500X-0.150000X0*%
%TD*%
%TA.AperFunction,ComponentPad*%
%ADD31RoundRect,0.250000X-0.600000X-0.725000X0.600000X-0.725000X0.600000X0.725000X-0.600000X0.725000X0*%
%TD*%
%TA.AperFunction,ComponentPad*%
%ADD32O,1.700000X1.950000*%
%TD*%
%TA.AperFunction,SMDPad,CuDef*%
%ADD33RoundRect,0.150000X0.150000X-0.825000X0.150000X0.825000X-0.150000X0.825000X-0.150000X-0.825000X0*%
%TD*%
%TA.AperFunction,ViaPad*%
%ADD34C,0.600000*%
%TD*%
%TA.AperFunction,Conductor*%
%ADD35C,0.160000*%
%TD*%
%TA.AperFunction,Conductor*%
%ADD36C,0.400000*%
%TD*%
%TA.AperFunction,Conductor*%
%ADD37C,0.200000*%
%TD*%
G04 APERTURE END LIST*
D10*
%TO.P,C6,1*%
%TO.N,Net-(U5-BP)*%
X117812500Y-100050000D03*
%TO.P,C6,2*%
%TO.N,GND*%
X119362500Y-100050000D03*
%TD*%
D11*
%TO.P,J7,1,Pin_1_1*%
%TO.N,RS485_B*%
X125000000Y-95750000D03*
%TD*%
D12*
%TO.P,R3,1*%
%TO.N,+3V3*%
X128500000Y-82825000D03*
%TO.P,R3,2*%
%TO.N,HOME_IN*%
X128500000Y-81175000D03*
%TD*%
D13*
%TO.P,U1,1,I1_1*%
%TO.N,ULN_IN1*%
X133445000Y-110050000D03*
%TO.P,U1,2,I2_2*%
%TO.N,ULN_IN2*%
X132175000Y-110050000D03*
%TO.P,U1,3,I3_3*%
%TO.N,ULN_IN3*%
X130905000Y-110050000D03*
%TO.P,U1,4,I4_4*%
%TO.N,ULN_IN4*%
X129635000Y-110050000D03*
%TO.P,U1,5,I5_5*%
%TO.N,unconnected-(U1-I5-Pad5)*%
X128365000Y-110050000D03*
%TO.P,U1,6,I6_6*%
%TO.N,unconnected-(U1-I6-Pad6)*%
X127095000Y-110050000D03*
%TO.P,U1,7,I7_7*%
%TO.N,unconnected-(U1-I7-Pad7)*%
X125825000Y-110050000D03*
%TO.P,U1,8,GND_8*%
%TO.N,GND*%
X124555000Y-110050000D03*
%TO.P,U1,9,COM_9*%
%TO.N,+5V*%
X124555000Y-115000000D03*
%TO.P,U1,10,O7_10*%
%TO.N,unconnected-(U1-O7-Pad10)*%
X125825000Y-115000000D03*
%TO.P,U1,11,O6_11*%
%TO.N,unconnected-(U1-O6-Pad11)*%
X127095000Y-115000000D03*
%TO.P,U1,12,O5_12*%
%TO.N,unconnected-(U1-O5-Pad12)*%
X128365000Y-115000000D03*
%TO.P,U1,13,O4_13*%
%TO.N,M4*%
X129635000Y-115000000D03*
%TO.P,U1,14,O3_14*%
%TO.N,M3*%
X130905000Y-115000000D03*
%TO.P,U1,15,O2_15*%
%TO.N,M2*%
X132175000Y-115000000D03*
%TO.P,U1,16,O1_16*%
%TO.N,M1*%
X133445000Y-115000000D03*
%TD*%
D14*
%TO.P,U4,1,PA2_1*%
%TO.N,RXD*%
X130100000Y-103875000D03*
D15*
%TO.P,U4,2,PA3_2*%
%TO.N,unconnected-(U4-PA3-Pad2)*%
X130100000Y-104275000D03*
%TO.P,U4,3,GND_3*%
%TO.N,GND*%
X130100000Y-104675000D03*
%TO.P,U4,4,VCC_4*%
%TO.N,+3V3*%
X130100000Y-105075000D03*
D16*
%TO.P,U4,5,PA4_5*%
%TO.N,DE{slash}RE*%
X130100000Y-105475000D03*
D17*
%TO.P,U4,6,PA5_6*%
%TO.N,unconnected-(U4-PA5-Pad6)*%
X130750000Y-106125000D03*
D18*
%TO.P,U4,7,PA6_7*%
%TO.N,unconnected-(U4-PA6-Pad7)*%
X131150000Y-106125000D03*
%TO.P,U4,8,PA7_8*%
%TO.N,unconnected-(U4-PA7-Pad8)*%
X131550000Y-106125000D03*
%TO.P,U4,9,PB5_9*%
%TO.N,ULN_IN4*%
X131950000Y-106125000D03*
D19*
%TO.P,U4,10,PB4_10*%
%TO.N,ULN_IN3*%
X132350000Y-106125000D03*
D20*
%TO.P,U4,11,PB3_11*%
%TO.N,ULN_IN2*%
X133000000Y-105475000D03*
D15*
%TO.P,U4,12,PB2_12*%
%TO.N,ULN_IN1*%
X133000000Y-105075000D03*
%TO.P,U4,13,PB1_13*%
%TO.N,unconnected-(U4-PB1-Pad13)*%
X133000000Y-104675000D03*
%TO.P,U4,14,PB0_14*%
%TO.N,unconnected-(U4-PB0-Pad14)*%
X133000000Y-104275000D03*
D21*
%TO.P,U4,15,PC0_15*%
%TO.N,HOME_IN*%
X133000000Y-103875000D03*
D22*
%TO.P,U4,16,PC1_16*%
%TO.N,DEBUG*%
X132350000Y-103225000D03*
D18*
%TO.P,U4,17,PC2_17*%
%TO.N,STATUS_LED*%
X131950000Y-103225000D03*
%TO.P,U4,18,PC3_18*%
%TO.N,unconnected-(U4-PC3-Pad18)*%
X131550000Y-103225000D03*
%TO.P,U4,19,~{RESET}/PA0_19*%
%TO.N,UPDI*%
X131150000Y-103225000D03*
D23*
%TO.P,U4,20,PA1_20*%
%TO.N,TXD*%
X130750000Y-103225000D03*
D24*
%TO.P,U4,21,GND_21*%
%TO.N,GND*%
X131550000Y-104675000D03*
%TD*%
D25*
%TO.P,D1,1,K_1*%
%TO.N,GND*%
X131287500Y-89000000D03*
%TO.P,D1,2,A_2*%
%TO.N,Net-(D1-A)*%
X129712500Y-89000000D03*
%TD*%
D11*
%TO.P,J2,1,Pin_1_1*%
%TO.N,+5V*%
X125000000Y-105300000D03*
%TD*%
%TO.P,J8,1,Pin_1_1*%
%TO.N,RS485_A*%
X125000000Y-99550000D03*
%TD*%
D26*
%TO.P,C10,1*%
%TO.N,HOME_IN*%
X125500000Y-81175000D03*
%TO.P,C10,2*%
%TO.N,GND*%
X125500000Y-82725000D03*
%TD*%
D10*
%TO.P,C5,1*%
%TO.N,+3V3*%
X117812500Y-106050000D03*
%TO.P,C5,2*%
%TO.N,GND*%
X119362500Y-106050000D03*
%TD*%
D11*
%TO.P,J6,1,Pin_1_1*%
%TO.N,GND*%
X125000000Y-90000000D03*
%TD*%
D27*
%TO.P,R2,1*%
%TO.N,Net-(D1-A)*%
X129675000Y-91000000D03*
%TO.P,R2,2*%
%TO.N,STATUS_LED*%
X131325000Y-91000000D03*
%TD*%
D28*
%TO.P,C1,1*%
%TO.N,+5V*%
X121000000Y-113000000D03*
%TO.P,C1,2*%
%TO.N,GND*%
X116875000Y-113000000D03*
%TD*%
D11*
%TO.P,J1,1,Pin_1_1*%
%TO.N,GND*%
X118960000Y-81950000D03*
D29*
%TO.P,J1,2,Pin_2_2*%
%TO.N,HOME_IN*%
X121500000Y-81950000D03*
%TD*%
D30*
%TO.P,U5,1,IN_1*%
%TO.N,+5V*%
X120137500Y-103950000D03*
%TO.P,U5,2,GND_2*%
%TO.N,GND*%
X120137500Y-103000000D03*
%TO.P,U5,3,EN_3*%
%TO.N,+5V*%
X120137500Y-102050000D03*
%TO.P,U5,4,BP_4*%
%TO.N,Net-(U5-BP)*%
X117862500Y-102050000D03*
%TO.P,U5,5,OUT_5*%
%TO.N,+3V3*%
X117862500Y-103950000D03*
%TD*%
D11*
%TO.P,J5,1,Pin_1_1*%
%TO.N,GND*%
X119000000Y-88000000D03*
D29*
%TO.P,J5,2,Pin_2_2*%
%TO.N,+3V3*%
X119000000Y-90540000D03*
%TO.P,J5,3,Pin_3_3*%
%TO.N,UPDI*%
X119000000Y-93080000D03*
%TO.P,J5,4,Pin_4_4*%
%TO.N,DEBUG*%
X119000000Y-95620000D03*
%TD*%
D31*
%TO.P,J3,1,Pin_1_1*%
%TO.N,M4*%
X120100000Y-120575000D03*
D32*
%TO.P,J3,2,Pin_2_2*%
%TO.N,M3*%
X122600000Y-120575000D03*
%TO.P,J3,3,Pin_3_3*%
%TO.N,M2*%
X125100000Y-120575000D03*
%TO.P,J3,4,Pin_4_4*%
%TO.N,M1*%
X127600000Y-120575000D03*
%TO.P,J3,5,Pin_5_5*%
%TO.N,+5V*%
X130100000Y-120575000D03*
%TD*%
D33*
%TO.P,U2,1,RO_1*%
%TO.N,RXD*%
X129095000Y-99450000D03*
%TO.P,U2,2,~{RE}_2*%
%TO.N,DE{slash}RE*%
X130365000Y-99450000D03*
%TO.P,U2,3,DE_3*%
X131635000Y-99450000D03*
%TO.P,U2,4,DI_4*%
%TO.N,TXD*%
X132905000Y-99450000D03*
%TO.P,U2,5,GND_5*%
%TO.N,GND*%
X132905000Y-94500000D03*
%TO.P,U2,6,A_6*%
%TO.N,RS485_A*%
X131635000Y-94500000D03*
%TO.P,U2,7,B_7*%
%TO.N,RS485_B*%
X130365000Y-94500000D03*
%TO.P,U2,8,VCC_8*%
%TO.N,+3V3*%
X129095000Y-94500000D03*
%TD*%
D34*
%TO.N,DE{slash}RE*%
X130000000Y-101500000D03*
X129100000Y-106000000D03*
%TO.N,STATUS_LED*%
X132000000Y-102000000D03*
X132500000Y-91000000D03*
%TD*%
%TO.N,GND*%
D35*
X129075000Y-104675000D02*
X128500000Y-104100000D01*
X130100000Y-104675000D02*
X129075000Y-104675000D01*
%TO.N,UPDI*%
X119000000Y-93080000D02*
X119680000Y-92400000D01*
X119680000Y-92400000D02*
X133490884Y-92400000D01*
X135100000Y-94009116D02*
X135100000Y-99100000D01*
X133490884Y-92400000D02*
X135100000Y-94009116D01*
X135100000Y-99100000D02*
X132900000Y-101300000D01*
X132900000Y-101300000D02*
X131300000Y-101300000D01*
X131300000Y-101300000D02*
X131150000Y-101450000D01*
X131150000Y-101450000D02*
X131150000Y-103225000D01*
%TO.N,DEBUG*%
X119000000Y-95620000D02*
X117850000Y-94470000D01*
X117850000Y-94470000D02*
X117850000Y-92603654D01*
X117850000Y-92603654D02*
X118523654Y-91930000D01*
X118523654Y-91930000D02*
X133530000Y-91930000D01*
X133530000Y-91930000D02*
X135500000Y-93900000D01*
X135500000Y-93900000D02*
X135500000Y-100129266D01*
X135500000Y-100129266D02*
X132404266Y-103225000D01*
X132404266Y-103225000D02*
X132350000Y-103225000D01*
%TO.N,HOME_IN*%
X133000000Y-103875000D02*
X136000000Y-100875000D01*
X136000000Y-100875000D02*
X136000000Y-88675000D01*
X136000000Y-88675000D02*
X128500000Y-81175000D01*
%TO.N,+5V*%
D36*
X121000000Y-113000000D02*
X118400000Y-115600000D01*
X128375000Y-122300000D02*
X130100000Y-120575000D01*
X118400000Y-115600000D02*
X118400000Y-121700000D01*
X118400000Y-121700000D02*
X119000000Y-122300000D01*
X119000000Y-122300000D02*
X128375000Y-122300000D01*
%TO.N,RS485_A*%
D37*
X125000000Y-99550000D02*
X127950000Y-96600000D01*
X127950000Y-96600000D02*
X131434999Y-96600000D01*
X131434999Y-96600000D02*
X131635000Y-96399999D01*
X131635000Y-96399999D02*
X131635000Y-94500000D01*
%TO.N,RS485_B*%
X130365000Y-94500000D02*
X130365000Y-95770552D01*
X130365000Y-95770552D02*
X130035552Y-96100000D01*
X125350000Y-96100000D02*
X125000000Y-95750000D01*
X130035552Y-96100000D02*
X125350000Y-96100000D01*
%TO.N,GND*%
X120137500Y-103000000D02*
X121900000Y-103000000D01*
%TO.N,DE{slash}RE*%
X130365000Y-99450000D02*
X131635000Y-99450000D01*
%TO.N,+3V3*%
X120850000Y-97600000D02*
X122000000Y-98750000D01*
X122000000Y-98750000D02*
X122000000Y-100800000D01*
X122000000Y-100800000D02*
X123900000Y-102700000D01*
X123900000Y-102700000D02*
X126900000Y-102700000D01*
X126900000Y-102700000D02*
X127600000Y-103400000D01*
X127600000Y-103400000D02*
X127600000Y-105000000D01*
X127600000Y-105000000D02*
X127700000Y-105100000D01*
%TO.N,DE{slash}RE*%
X130100000Y-105475000D02*
X129625000Y-105475000D01*
X129625000Y-105475000D02*
X129100000Y-106000000D01*
X130365000Y-101135000D02*
X130365000Y-99450000D01*
X130000000Y-101500000D02*
X130365000Y-101135000D01*
%TO.N,+3V3*%
D35*
X127700000Y-105100000D02*
X129200000Y-105100000D01*
X129200000Y-105100000D02*
X129225000Y-105075000D01*
X129225000Y-105075000D02*
X130100000Y-105075000D01*
%TO.N,STATUS_LED*%
X132000000Y-102000000D02*
X131950000Y-102050000D01*
X131950000Y-102050000D02*
X131950000Y-103225000D01*
X131325000Y-91000000D02*
X132700000Y-91000000D01*
%TO.N,+3V3*%
D37*
X116300000Y-93240000D02*
X116300000Y-97600000D01*
X129095000Y-94500000D02*
X123950000Y-94500000D01*
X123950000Y-94500000D02*
X120850000Y-97600000D01*
X120850000Y-97600000D02*
X116300000Y-97600000D01*
%TO.N,TXD*%
D35*
X130750000Y-103225000D02*
X130750000Y-101250000D01*
X132905000Y-100595000D02*
X132905000Y-99450000D01*
X130750000Y-101250000D02*
X131100000Y-100900000D01*
X131100000Y-100900000D02*
X132600000Y-100900000D01*
X132600000Y-100900000D02*
X132905000Y-100595000D01*
%TO.N,RXD*%
X129095000Y-101200000D02*
X129095000Y-103645000D01*
X129095000Y-101200000D02*
X129095000Y-99450000D01*
%TO.N,Net-(D1-A)*%
D37*
X129675000Y-91000000D02*
X129675000Y-89037500D01*
X129675000Y-89037500D02*
X129712500Y-89000000D01*
%TO.N,+3V3*%
X119000000Y-90540000D02*
X116300000Y-93240000D01*
X116300000Y-97600000D02*
X116300000Y-103500000D01*
X116300000Y-103500000D02*
X116750000Y-103950000D01*
X116750000Y-103950000D02*
X117862500Y-103950000D01*
%TO.N,+5V*%
D36*
X120137500Y-103950000D02*
X119475001Y-103950000D01*
X119475001Y-103950000D02*
X119075000Y-103549999D01*
X119643026Y-102050000D02*
X120137500Y-102050000D01*
X119075000Y-103549999D02*
X119075000Y-102618026D01*
X119075000Y-102618026D02*
X119643026Y-102050000D01*
%TO.N,+3V3*%
D37*
X128500000Y-82825000D02*
X127875000Y-82825000D01*
X127875000Y-82825000D02*
X126400000Y-84300000D01*
X126400000Y-84300000D02*
X125240000Y-84300000D01*
X125240000Y-84300000D02*
X119000000Y-90540000D01*
%TO.N,GND*%
D35*
X131550000Y-104675000D02*
X130100000Y-104675000D01*
%TO.N,RXD*%
X129095000Y-100375000D02*
X129095000Y-101200000D01*
X129095000Y-103645000D02*
X129325000Y-103875000D01*
X129325000Y-103875000D02*
X130100000Y-103875000D01*
X129095000Y-100375000D02*
X129095000Y-100057732D01*
%TO.N,HOME_IN*%
D37*
X125500000Y-81175000D02*
X125225000Y-81175000D01*
X125225000Y-81175000D02*
X124450000Y-81950000D01*
X124450000Y-81950000D02*
X121500000Y-81950000D01*
X128500000Y-81175000D02*
X125500000Y-81175000D01*
%TO.N,+5V*%
D36*
X122350000Y-114350000D02*
X123905000Y-114350000D01*
X123905000Y-114350000D02*
X124555000Y-115000000D01*
X121000000Y-113000000D02*
X122350000Y-114350000D01*
%TO.N,ULN_IN3*%
D35*
X130905000Y-109295000D02*
X130905000Y-108895000D01*
X130905000Y-108895000D02*
X132350000Y-107450000D01*
X132350000Y-107450000D02*
X132350000Y-106125000D01*
%TO.N,ULN_IN2*%
X132175000Y-110050000D02*
X132175000Y-108825000D01*
X132175000Y-108825000D02*
X133000000Y-108000000D01*
X133000000Y-108000000D02*
X133000000Y-105475000D01*
%TO.N,ULN_IN1*%
X133445000Y-110050000D02*
X133445000Y-108855000D01*
X133445000Y-108855000D02*
X133800000Y-108500000D01*
X133800000Y-108500000D02*
X133800000Y-105394706D01*
X133800000Y-105394706D02*
X133480294Y-105075000D01*
X133480294Y-105075000D02*
X133000000Y-105075000D01*
%TO.N,ULN_IN4*%
X129635000Y-110050000D02*
X129635000Y-108965000D01*
X129635000Y-108965000D02*
X131950000Y-106650000D01*
X131950000Y-106650000D02*
X131950000Y-106125000D01*
%TO.N,ULN_IN3*%
D37*
X130905000Y-110050000D02*
X130905000Y-109295000D01*
%TO.N,+5V*%
D36*
X125000000Y-105300000D02*
X121487500Y-105300000D01*
X120669585Y-110330415D02*
X120669585Y-112669585D01*
X125000000Y-106000000D02*
X120669585Y-110330415D01*
X125000000Y-105300000D02*
X125000000Y-106000000D01*
X121487500Y-105300000D02*
X120137500Y-103950000D01*
D37*
X120000000Y-113500000D02*
X120250000Y-113500000D01*
%TO.N,M4*%
X129635000Y-115000000D02*
X129635000Y-115965000D01*
X129635000Y-115965000D02*
X129100000Y-116500000D01*
X129100000Y-116500000D02*
X124175000Y-116500000D01*
X124175000Y-116500000D02*
X120100000Y-120575000D01*
%TO.N,M3*%
X130905000Y-115000000D02*
X130905000Y-116195000D01*
X130905000Y-116195000D02*
X130100000Y-117000000D01*
X130100000Y-117000000D02*
X126175000Y-117000000D01*
X126175000Y-117000000D02*
X122600000Y-120575000D01*
%TO.N,M2*%
X132175000Y-115000000D02*
X132175000Y-116425000D01*
X132175000Y-116425000D02*
X131100000Y-117500000D01*
X131100000Y-117500000D02*
X128175000Y-117500000D01*
X128175000Y-117500000D02*
X125100000Y-120575000D01*
%TO.N,M1*%
X133445000Y-115000000D02*
X133445000Y-116455000D01*
X133445000Y-116455000D02*
X131900000Y-118000000D01*
X131900000Y-118000000D02*
X130175000Y-118000000D01*
X130175000Y-118000000D02*
X127600000Y-120575000D01*
%TO.N,+3V3*%
X117862500Y-103950000D02*
X117862500Y-106000000D01*
X117862500Y-106000000D02*
X117812500Y-106050000D01*
%TO.N,Net-(U5-BP)*%
X117812500Y-100050000D02*
X117812500Y-102000000D01*
X117812500Y-102000000D02*
X117862500Y-102050000D01*
%TD*%
%TA.AperFunction,Conductor*%
%TO.N,GND*%
G36*
X136442539Y-79020185D02*
G01*
X136488294Y-79072989D01*
X136499500Y-79124500D01*
X136499500Y-88054187D01*
X136479815Y-88121226D01*
X136427011Y-88166981D01*
X136357853Y-88176925D01*
X136294297Y-88147900D01*
X136287819Y-88141868D01*
X129511819Y-81365868D01*
X129478334Y-81304545D01*
X129475500Y-81278187D01*
X129475500Y-80918386D01*
X129473979Y-80901647D01*
X129469086Y-80847804D01*
X129418478Y-80685394D01*
X129330472Y-80539815D01*
X129330470Y-80539813D01*
X129330469Y-80539811D01*
X129210188Y-80419530D01*
X129064606Y-80331522D01*
X128924939Y-80288001D01*
X128902196Y-80280914D01*
X128902194Y-80280913D01*
X128902192Y-80280913D01*
X128852778Y-80276423D01*
X128831616Y-80274500D01*
X128168384Y-80274500D01*
X128149145Y-80276248D01*
X128097807Y-80280913D01*
X127935393Y-80331522D01*
X127789811Y-80419530D01*
X127789810Y-80419531D01*
X127671161Y-80538181D01*
X127609838Y-80571666D01*
X127583480Y-80574500D01*
X126440004Y-80574500D01*
X126372965Y-80554815D01*
X126334465Y-80515596D01*
X126322968Y-80496956D01*
X126203044Y-80377032D01*
X126203040Y-80377029D01*
X126058705Y-80288001D01*
X126058699Y-80287998D01*
X126058697Y-80287997D01*
X126037319Y-80280913D01*
X125897709Y-80234651D01*
X125798346Y-80224500D01*
X125201662Y-80224500D01*
X125201644Y-80224501D01*
X125102292Y-80234650D01*
X125102289Y-80234651D01*
X124941305Y-80287996D01*
X124941294Y-80288001D01*
X124796959Y-80377029D01*
X124796955Y-80377032D01*
X124677032Y-80496955D01*
X124677029Y-80496959D01*
X124588001Y-80641294D01*
X124587996Y-80641305D01*
X124534651Y-80802290D01*
X124524500Y-80901647D01*
X124524500Y-80974902D01*
X124504815Y-81041941D01*
X124488181Y-81062583D01*
X124237584Y-81313181D01*
X124176261Y-81346666D01*
X124149903Y-81349500D01*
X122785719Y-81349500D01*
X122718680Y-81329815D01*
X122675235Y-81281795D01*
X122655052Y-81242185D01*
X122655051Y-81242184D01*
X122530109Y-81070213D01*
X122379786Y-80919890D01*
X122207820Y-80794951D01*
X122018414Y-80698444D01*
X122018413Y-80698443D01*
X122018412Y-80698443D01*
X121816243Y-80632754D01*
X121816241Y-80632753D01*
X121816240Y-80632753D01*
X121654957Y-80607208D01*
X121606287Y-80599500D01*
X121393713Y-80599500D01*
X121345042Y-80607208D01*
X121183760Y-80632753D01*
X120981585Y-80698444D01*
X120792179Y-80794951D01*
X120620215Y-80919889D01*
X120506285Y-81033819D01*
X120444962Y-81067303D01*
X120375270Y-81062319D01*
X120319337Y-81020447D01*
X120302422Y-80989470D01*
X120253354Y-80857913D01*
X120253350Y-80857906D01*
X120167190Y-80742812D01*
X120167187Y-80742809D01*
X120052093Y-80656649D01*
X120052086Y-80656645D01*
X119917379Y-80606403D01*
X119917372Y-80606401D01*
X119857844Y-80600000D01*
X119210000Y-80600000D01*
X119210000Y-81516988D01*
X119152993Y-81484075D01*
X119025826Y-81450000D01*
X118894174Y-81450000D01*
X118767007Y-81484075D01*
X118710000Y-81516988D01*
X118710000Y-80600000D01*
X118062155Y-80600000D01*
X118002627Y-80606401D01*
X118002620Y-80606403D01*
X117867913Y-80656645D01*
X117867906Y-80656649D01*
X117752812Y-80742809D01*
X117752809Y-80742812D01*
X117666649Y-80857906D01*
X117666645Y-80857913D01*
X117616403Y-80992620D01*
X117616401Y-80992627D01*
X117610000Y-81052155D01*
X117610000Y-81700000D01*
X118526988Y-81700000D01*
X118494075Y-81757007D01*
X118460000Y-81884174D01*
X118460000Y-82015826D01*
X118494075Y-82142993D01*
X118526988Y-82200000D01*
X117610000Y-82200000D01*
X117610000Y-82847844D01*
X117616401Y-82907372D01*
X117616403Y-82907379D01*
X117666645Y-83042086D01*
X117666649Y-83042093D01*
X117752809Y-83157187D01*
X117752812Y-83157190D01*
X117867906Y-83243350D01*
X117867913Y-83243354D01*
X118002620Y-83293596D01*
X118002627Y-83293598D01*
X118062155Y-83299999D01*
X118062172Y-83300000D01*
X118710000Y-83300000D01*
X118710000Y-82383012D01*
X118767007Y-82415925D01*
X118894174Y-82450000D01*
X119025826Y-82450000D01*
X119152993Y-82415925D01*
X119210000Y-82383012D01*
X119210000Y-83300000D01*
X119857828Y-83300000D01*
X119857844Y-83299999D01*
X119917372Y-83293598D01*
X119917379Y-83293596D01*
X120052086Y-83243354D01*
X120052093Y-83243350D01*
X120167187Y-83157190D01*
X120167190Y-83157187D01*
X120253350Y-83042093D01*
X120253354Y-83042086D01*
X120302422Y-82910529D01*
X120344293Y-82854595D01*
X120409757Y-82830178D01*
X120478030Y-82845030D01*
X120506285Y-82866181D01*
X120620213Y-82980109D01*
X120792179Y-83105048D01*
X120792181Y-83105049D01*
X120792184Y-83105051D01*
X120981588Y-83201557D01*
X121183757Y-83267246D01*
X121393713Y-83300500D01*
X121393714Y-83300500D01*
X121606286Y-83300500D01*
X121606287Y-83300500D01*
X121816243Y-83267246D01*
X122018412Y-83201557D01*
X122207816Y-83105051D01*
X122294471Y-83042093D01*
X122379786Y-82980109D01*
X122379788Y-82980106D01*
X122379792Y-82980104D01*
X122530104Y-82829792D01*
X122530106Y-82829788D01*
X122530109Y-82829786D01*
X122588661Y-82749193D01*
X122655051Y-82657816D01*
X122655349Y-82657230D01*
X122675235Y-82618205D01*
X122723209Y-82567409D01*
X122785719Y-82550500D01*
X124363331Y-82550500D01*
X124363347Y-82550501D01*
X124370943Y-82550501D01*
X124529054Y-82550501D01*
X124529057Y-82550501D01*
X124681785Y-82509577D01*
X124712894Y-82491614D01*
X124774898Y-82475000D01*
X126474999Y-82475000D01*
X126474999Y-82451692D01*
X126474998Y-82451677D01*
X126464855Y-82352392D01*
X126411547Y-82191518D01*
X126411542Y-82191507D01*
X126322575Y-82047271D01*
X126322572Y-82047267D01*
X126313339Y-82038034D01*
X126279854Y-81976711D01*
X126284838Y-81907019D01*
X126313343Y-81862668D01*
X126322968Y-81853044D01*
X126334465Y-81834403D01*
X126386412Y-81787679D01*
X126440004Y-81775500D01*
X127583480Y-81775500D01*
X127650519Y-81795185D01*
X127671161Y-81811819D01*
X127771661Y-81912319D01*
X127773343Y-81915400D01*
X127776331Y-81917251D01*
X127789971Y-81945851D01*
X127805146Y-81973642D01*
X127804895Y-81977144D01*
X127806408Y-81980316D01*
X127802421Y-82011743D01*
X127800162Y-82043334D01*
X127797926Y-82047173D01*
X127797615Y-82049630D01*
X127789981Y-82060821D01*
X127779029Y-82079635D01*
X127775521Y-82083821D01*
X127669528Y-82189815D01*
X127624983Y-82263499D01*
X127618852Y-82270817D01*
X127604067Y-82280669D01*
X127585803Y-82298569D01*
X127506287Y-82344477D01*
X127506282Y-82344481D01*
X127394478Y-82456286D01*
X126678514Y-83172249D01*
X126617191Y-83205734D01*
X126547499Y-83200750D01*
X126491566Y-83158878D01*
X126467149Y-83093414D01*
X126467475Y-83071964D01*
X126474999Y-82998319D01*
X126475000Y-82998309D01*
X126475000Y-82975000D01*
X124525001Y-82975000D01*
X124525001Y-82998322D01*
X124535144Y-83097607D01*
X124588452Y-83258481D01*
X124588457Y-83258492D01*
X124677424Y-83402728D01*
X124677427Y-83402732D01*
X124797268Y-83522573D01*
X124904877Y-83588948D01*
X124951601Y-83640896D01*
X124962822Y-83709859D01*
X124934979Y-83773941D01*
X124901780Y-83801873D01*
X124871284Y-83819479D01*
X124871282Y-83819481D01*
X120477083Y-88213681D01*
X120415760Y-88247166D01*
X120389402Y-88250000D01*
X119433012Y-88250000D01*
X119465925Y-88192993D01*
X119500000Y-88065826D01*
X119500000Y-87934174D01*
X119465925Y-87807007D01*
X119433012Y-87750000D01*
X120350000Y-87750000D01*
X120350000Y-87102172D01*
X120349999Y-87102155D01*
X120343598Y-87042627D01*
X120343596Y-87042620D01*
X120293354Y-86907913D01*
X120293350Y-86907906D01*
X120207190Y-86792812D01*
X120207187Y-86792809D01*
X120092093Y-86706649D01*
X120092086Y-86706645D01*
X119957379Y-86656403D01*
X119957372Y-86656401D01*
X119897844Y-86650000D01*
X119250000Y-86650000D01*
X119250000Y-87566988D01*
X119192993Y-87534075D01*
X119065826Y-87500000D01*
X118934174Y-87500000D01*
X118807007Y-87534075D01*
X118750000Y-87566988D01*
X118750000Y-86650000D01*
X118102155Y-86650000D01*
X118042627Y-86656401D01*
X118042620Y-86656403D01*
X117907913Y-86706645D01*
X117907906Y-86706649D01*
X117792812Y-86792809D01*
X117792809Y-86792812D01*
X117706649Y-86907906D01*
X117706645Y-86907913D01*
X117656403Y-87042620D01*
X117656401Y-87042627D01*
X117650000Y-87102155D01*
X117650000Y-87750000D01*
X118566988Y-87750000D01*
X118534075Y-87807007D01*
X118500000Y-87934174D01*
X118500000Y-88065826D01*
X118534075Y-88192993D01*
X118566988Y-88250000D01*
X117650000Y-88250000D01*
X117650000Y-88897844D01*
X117656401Y-88957372D01*
X117656403Y-88957379D01*
X117706645Y-89092086D01*
X117706649Y-89092093D01*
X117792809Y-89207187D01*
X117792812Y-89207190D01*
X117907906Y-89293350D01*
X117907913Y-89293354D01*
X118039470Y-89342422D01*
X118095404Y-89384293D01*
X118119821Y-89449758D01*
X118104969Y-89518031D01*
X118083819Y-89546285D01*
X117969889Y-89660215D01*
X117844951Y-89832179D01*
X117748444Y-90021585D01*
X117682753Y-90223760D01*
X117649500Y-90433713D01*
X117649500Y-90646286D01*
X117682754Y-90856244D01*
X117682754Y-90856247D01*
X117696491Y-90898523D01*
X117698486Y-90968364D01*
X117666241Y-91024522D01*
X115931286Y-92759478D01*
X115819481Y-92871282D01*
X115819479Y-92871285D01*
X115769361Y-92958094D01*
X115769359Y-92958096D01*
X115740425Y-93008209D01*
X115740424Y-93008210D01*
X115740423Y-93008215D01*
X115699499Y-93160943D01*
X115699499Y-93160945D01*
X115699499Y-93329046D01*
X115699500Y-93329059D01*
X115699500Y-103413330D01*
X115699499Y-103413348D01*
X115699499Y-103579054D01*
X115699498Y-103579054D01*
X115740423Y-103731785D01*
X115769358Y-103781900D01*
X115769359Y-103781904D01*
X115769360Y-103781904D01*
X115819479Y-103868714D01*
X115819481Y-103868717D01*
X115938349Y-103987585D01*
X115938355Y-103987590D01*
X116265139Y-104314374D01*
X116265149Y-104314385D01*
X116269479Y-104318715D01*
X116269480Y-104318716D01*
X116381284Y-104430520D01*
X116458328Y-104475000D01*
X116468095Y-104480639D01*
X116468097Y-104480641D01*
X116501307Y-104499815D01*
X116518215Y-104509577D01*
X116670943Y-104550500D01*
X116829192Y-104550500D01*
X116896231Y-104570185D01*
X116916874Y-104586820D01*
X116948129Y-104618076D01*
X116948133Y-104618079D01*
X116948135Y-104618081D01*
X117089602Y-104701744D01*
X117172597Y-104725856D01*
X117231480Y-104763462D01*
X117260687Y-104826934D01*
X117262000Y-104844932D01*
X117262000Y-105079154D01*
X117242315Y-105146193D01*
X117203098Y-105184692D01*
X117134456Y-105227031D01*
X117014532Y-105346955D01*
X117014529Y-105346959D01*
X116925501Y-105491294D01*
X116925496Y-105491305D01*
X116872151Y-105652290D01*
X116862000Y-105751647D01*
X116862000Y-106348337D01*
X116862001Y-106348355D01*
X116872150Y-106447707D01*
X116872151Y-106447710D01*
X116925496Y-106608694D01*
X116925501Y-106608705D01*
X117014529Y-106753040D01*
X117014532Y-106753044D01*
X117134455Y-106872967D01*
X117134459Y-106872970D01*
X117278794Y-106961998D01*
X117278797Y-106961999D01*
X117278803Y-106962003D01*
X117439792Y-107015349D01*
X117539155Y-107025500D01*
X118085844Y-107025499D01*
X118085852Y-107025498D01*
X118085855Y-107025498D01*
X118140260Y-107019940D01*
X118185208Y-107015349D01*
X118346197Y-106962003D01*
X118490544Y-106872968D01*
X118500168Y-106863343D01*
X118561487Y-106829856D01*
X118631179Y-106834835D01*
X118675534Y-106863339D01*
X118684767Y-106872572D01*
X118684771Y-106872575D01*
X118829007Y-106961542D01*
X118829018Y-106961547D01*
X118989893Y-107014855D01*
X119089183Y-107024999D01*
X119612500Y-107024999D01*
X119635808Y-107024999D01*
X119635822Y-107024998D01*
X119735107Y-107014855D01*
X119895981Y-106961547D01*
X119895992Y-106961542D01*
X120040228Y-106872575D01*
X120040232Y-106872572D01*
X120160072Y-106752732D01*
X120160075Y-106752728D01*
X120249042Y-106608492D01*
X120249047Y-106608481D01*
X120302355Y-106447606D01*
X120312499Y-106348322D01*
X120312500Y-106348309D01*
X120312500Y-106300000D01*
X119612500Y-106300000D01*
X119612500Y-107024999D01*
X119089183Y-107024999D01*
X119112500Y-107024998D01*
X119112500Y-105800000D01*
X119612500Y-105800000D01*
X120312499Y-105800000D01*
X120312499Y-105751692D01*
X120312498Y-105751677D01*
X120302355Y-105652392D01*
X120249047Y-105491518D01*
X120249042Y-105491507D01*
X120160075Y-105347271D01*
X120160072Y-105347267D01*
X120040232Y-105227427D01*
X120040228Y-105227424D01*
X119895992Y-105138457D01*
X119895981Y-105138452D01*
X119735106Y-105085144D01*
X119635822Y-105075000D01*
X119612500Y-105075000D01*
X119612500Y-105800000D01*
X119112500Y-105800000D01*
X119112500Y-105074999D01*
X119089193Y-105075000D01*
X119089174Y-105075001D01*
X118989892Y-105085144D01*
X118829018Y-105138452D01*
X118829007Y-105138457D01*
X118684771Y-105227424D01*
X118684764Y-105227430D01*
X118675528Y-105236665D01*
X118614203Y-105270146D01*
X118544511Y-105265157D01*
X118500172Y-105236659D01*
X118499319Y-105235806D01*
X118465834Y-105174483D01*
X118463000Y-105148125D01*
X118463000Y-104844932D01*
X118482685Y-104777893D01*
X118535489Y-104732138D01*
X118552393Y-104725859D01*
X118635398Y-104701744D01*
X118776865Y-104618081D01*
X118879995Y-104514950D01*
X118941316Y-104481467D01*
X119011008Y-104486451D01*
X119036562Y-104499529D01*
X119143190Y-104570775D01*
X119176122Y-104584415D01*
X119216348Y-104611294D01*
X119223135Y-104618081D01*
X119364602Y-104701744D01*
X119394995Y-104710574D01*
X119522426Y-104747597D01*
X119522429Y-104747597D01*
X119522431Y-104747598D01*
X119559306Y-104750500D01*
X119895981Y-104750500D01*
X119963020Y-104770185D01*
X119983662Y-104786819D01*
X120466990Y-105270146D01*
X120943386Y-105746542D01*
X120996844Y-105800000D01*
X121040959Y-105844115D01*
X121155682Y-105920771D01*
X121155695Y-105920778D01*
X121239570Y-105955520D01*
X121239571Y-105955520D01*
X121283171Y-105973580D01*
X121291346Y-105975206D01*
X121342210Y-105985323D01*
X121418504Y-106000500D01*
X121418507Y-106000500D01*
X123525501Y-106000500D01*
X123592540Y-106020185D01*
X123638295Y-106072989D01*
X123649501Y-106124500D01*
X123649501Y-106197876D01*
X123655909Y-106257484D01*
X123657692Y-106265029D01*
X123655051Y-106265652D01*
X123659110Y-106322392D01*
X123625626Y-106383715D01*
X120125472Y-109883869D01*
X120048807Y-109998607D01*
X119996006Y-110126082D01*
X119996003Y-110126092D01*
X119969085Y-110261419D01*
X119969085Y-111575500D01*
X119949400Y-111642539D01*
X119896596Y-111688294D01*
X119845088Y-111699500D01*
X119812500Y-111699500D01*
X119812480Y-111699501D01*
X119709703Y-111710000D01*
X119709700Y-111710001D01*
X119543168Y-111765185D01*
X119543163Y-111765187D01*
X119393842Y-111857289D01*
X119269789Y-111981342D01*
X119177687Y-112130663D01*
X119177685Y-112130668D01*
X119177615Y-112130880D01*
X119122501Y-112297203D01*
X119122501Y-112297204D01*
X119122500Y-112297204D01*
X119112000Y-112399983D01*
X119112000Y-113600001D01*
X119112001Y-113600018D01*
X119122500Y-113702796D01*
X119122501Y-113702799D01*
X119144250Y-113768431D01*
X119146652Y-113838259D01*
X119114225Y-113895116D01*
X117855890Y-115153451D01*
X117855884Y-115153458D01*
X117821895Y-115204328D01*
X117821895Y-115204329D01*
X117800560Y-115236259D01*
X117779225Y-115268188D01*
X117779221Y-115268195D01*
X117726421Y-115395667D01*
X117726418Y-115395677D01*
X117699500Y-115531004D01*
X117699500Y-115531007D01*
X117699500Y-121631006D01*
X117699500Y-121768994D01*
X117699500Y-121768996D01*
X117699499Y-121768996D01*
X117726418Y-121904322D01*
X117726421Y-121904332D01*
X117779222Y-122031807D01*
X117855887Y-122146545D01*
X118553454Y-122844112D01*
X118668190Y-122920776D01*
X118766790Y-122961617D01*
X118795671Y-122973580D01*
X118795672Y-122973580D01*
X118795677Y-122973582D01*
X118822545Y-122978925D01*
X118822551Y-122978926D01*
X118822591Y-122978934D01*
X118912937Y-122996905D01*
X118931006Y-123000500D01*
X118931007Y-123000500D01*
X128443996Y-123000500D01*
X128552457Y-122978925D01*
X128579328Y-122973580D01*
X128643069Y-122947177D01*
X128706807Y-122920777D01*
X128706808Y-122920776D01*
X128706811Y-122920775D01*
X128821543Y-122844114D01*
X129627872Y-122037782D01*
X129689193Y-122004299D01*
X129753866Y-122007533D01*
X129783757Y-122017246D01*
X129993713Y-122050500D01*
X129993714Y-122050500D01*
X130206286Y-122050500D01*
X130206287Y-122050500D01*
X130416243Y-122017246D01*
X130618412Y-121951557D01*
X130807816Y-121855051D01*
X130829789Y-121839086D01*
X130979786Y-121730109D01*
X130979788Y-121730106D01*
X130979792Y-121730104D01*
X131130104Y-121579792D01*
X131130106Y-121579788D01*
X131130109Y-121579786D01*
X131255048Y-121407820D01*
X131255047Y-121407820D01*
X131255051Y-121407816D01*
X131351557Y-121218412D01*
X131417246Y-121016243D01*
X131450500Y-120806287D01*
X131450500Y-120343713D01*
X131417246Y-120133757D01*
X131351557Y-119931588D01*
X131255051Y-119742184D01*
X131255049Y-119742181D01*
X131255048Y-119742179D01*
X131130109Y-119570213D01*
X130979786Y-119419890D01*
X130807820Y-119294951D01*
X130618414Y-119198444D01*
X130618413Y-119198443D01*
X130618412Y-119198443D01*
X130416243Y-119132754D01*
X130416241Y-119132753D01*
X130416239Y-119132753D01*
X130203597Y-119099074D01*
X130140462Y-119069145D01*
X130103531Y-119009833D01*
X130104529Y-118939971D01*
X130135314Y-118888920D01*
X130387416Y-118636819D01*
X130448739Y-118603334D01*
X130475097Y-118600500D01*
X131813331Y-118600500D01*
X131813347Y-118600501D01*
X131820943Y-118600501D01*
X131979054Y-118600501D01*
X131979057Y-118600501D01*
X132131785Y-118559577D01*
X132181904Y-118530639D01*
X132268716Y-118480520D01*
X132380520Y-118368716D01*
X132380520Y-118368714D01*
X132390728Y-118358507D01*
X132390730Y-118358504D01*
X133803506Y-116945728D01*
X133803511Y-116945724D01*
X133813714Y-116935520D01*
X133813716Y-116935520D01*
X133925520Y-116823716D01*
X133978596Y-116731785D01*
X134004577Y-116686785D01*
X134045501Y-116534057D01*
X134045501Y-116375943D01*
X134045501Y-116368348D01*
X134045500Y-116368330D01*
X134045500Y-116345808D01*
X134065185Y-116278769D01*
X134081820Y-116258126D01*
X134113076Y-116226870D01*
X134113081Y-116226865D01*
X134196744Y-116085398D01*
X134231361Y-115966247D01*
X134242597Y-115927573D01*
X134242598Y-115927567D01*
X134245499Y-115890701D01*
X134245500Y-115890694D01*
X134245500Y-114109306D01*
X134242598Y-114072431D01*
X134226884Y-114018345D01*
X134196745Y-113914606D01*
X134196744Y-113914603D01*
X134196744Y-113914602D01*
X134113081Y-113773135D01*
X134113079Y-113773133D01*
X134113076Y-113773129D01*
X133996870Y-113656923D01*
X133996862Y-113656917D01*
X133900633Y-113600008D01*
X133855398Y-113573256D01*
X133855397Y-113573255D01*
X133855396Y-113573255D01*
X133855393Y-113573254D01*
X133697573Y-113527402D01*
X133697567Y-113527401D01*
X133660701Y-113524500D01*
X133660694Y-113524500D01*
X133229306Y-113524500D01*
X133229298Y-113524500D01*
X133192432Y-113527401D01*
X133192426Y-113527402D01*
X133034606Y-113573254D01*
X133034603Y-113573255D01*
X132893137Y-113656917D01*
X132886969Y-113661702D01*
X132885072Y-113659256D01*
X132836358Y-113685857D01*
X132766666Y-113680873D01*
X132734296Y-113660069D01*
X132733031Y-113661702D01*
X132726862Y-113656917D01*
X132630633Y-113600008D01*
X132585398Y-113573256D01*
X132585397Y-113573255D01*
X132585396Y-113573255D01*
X132585393Y-113573254D01*
X132427573Y-113527402D01*
X132427567Y-113527401D01*
X132390701Y-113524500D01*
X132390694Y-113524500D01*
X131959306Y-113524500D01*
X131959298Y-113524500D01*
X131922432Y-113527401D01*
X131922426Y-113527402D01*
X131764606Y-113573254D01*
X131764603Y-113573255D01*
X131623137Y-113656917D01*
X131616969Y-113661702D01*
X131615072Y-113659256D01*
X131566358Y-113685857D01*
X131496666Y-113680873D01*
X131464296Y-113660069D01*
X131463031Y-113661702D01*
X131456862Y-113656917D01*
X131360633Y-113600008D01*
X131315398Y-113573256D01*
X131315397Y-113573255D01*
X131315396Y-113573255D01*
X131315393Y-113573254D01*
X131157573Y-113527402D01*
X131157567Y-113527401D01*
X131120701Y-113524500D01*
X131120694Y-113524500D01*
X130689306Y-113524500D01*
X130689298Y-113524500D01*
X130652432Y-113527401D01*
X130652426Y-113527402D01*
X130494606Y-113573254D01*
X130494603Y-113573255D01*
X130353137Y-113656917D01*
X130346969Y-113661702D01*
X130345072Y-113659256D01*
X130296358Y-113685857D01*
X130226666Y-113680873D01*
X130194296Y-113660069D01*
X130193031Y-113661702D01*
X130186862Y-113656917D01*
X130090633Y-113600008D01*
X130045398Y-113573256D01*
X130045397Y-113573255D01*
X130045396Y-113573255D01*
X130045393Y-113573254D01*
X129887573Y-113527402D01*
X129887567Y-113527401D01*
X129850701Y-113524500D01*
X129850694Y-113524500D01*
X129419306Y-113524500D01*
X129419298Y-113524500D01*
X129382432Y-113527401D01*
X129382426Y-113527402D01*
X129224606Y-113573254D01*
X129224603Y-113573255D01*
X129083137Y-113656917D01*
X129076969Y-113661702D01*
X129075072Y-113659256D01*
X129026358Y-113685857D01*
X128956666Y-113680873D01*
X128924296Y-113660069D01*
X128923031Y-113661702D01*
X128916862Y-113656917D01*
X128820633Y-113600008D01*
X128775398Y-113573256D01*
X128775397Y-113573255D01*
X128775396Y-113573255D01*
X128775393Y-113573254D01*
X128617573Y-113527402D01*
X128617567Y-113527401D01*
X128580701Y-113524500D01*
X128580694Y-113524500D01*
X128149306Y-113524500D01*
X128149298Y-113524500D01*
X128112432Y-113527401D01*
X128112426Y-113527402D01*
X127954606Y-113573254D01*
X127954603Y-113573255D01*
X127813137Y-113656917D01*
X127806969Y-113661702D01*
X127805072Y-113659256D01*
X127756358Y-113685857D01*
X127686666Y-113680873D01*
X127654296Y-113660069D01*
X127653031Y-113661702D01*
X127646862Y-113656917D01*
X127550633Y-113600008D01*
X127505398Y-113573256D01*
X127505397Y-113573255D01*
X127505396Y-113573255D01*
X127505393Y-113573254D01*
X127347573Y-113527402D01*
X127347567Y-113527401D01*
X127310701Y-113524500D01*
X127310694Y-113524500D01*
X126879306Y-113524500D01*
X126879298Y-113524500D01*
X126842432Y-113527401D01*
X126842426Y-113527402D01*
X126684606Y-113573254D01*
X126684603Y-113573255D01*
X126543137Y-113656917D01*
X126536969Y-113661702D01*
X126535072Y-113659256D01*
X126486358Y-113685857D01*
X126416666Y-113680873D01*
X126384296Y-113660069D01*
X126383031Y-113661702D01*
X126376862Y-113656917D01*
X126280633Y-113600008D01*
X126235398Y-113573256D01*
X126235397Y-113573255D01*
X126235396Y-113573255D01*
X126235393Y-113573254D01*
X126077573Y-113527402D01*
X126077567Y-113527401D01*
X126040701Y-113524500D01*
X126040694Y-113524500D01*
X125609306Y-113524500D01*
X125609298Y-113524500D01*
X125572432Y-113527401D01*
X125572426Y-113527402D01*
X125414606Y-113573254D01*
X125414603Y-113573255D01*
X125273137Y-113656917D01*
X125266969Y-113661702D01*
X125265072Y-113659256D01*
X125216358Y-113685857D01*
X125146666Y-113680873D01*
X125114296Y-113660069D01*
X125113031Y-113661702D01*
X125106862Y-113656917D01*
X125010633Y-113600008D01*
X124965398Y-113573256D01*
X124965397Y-113573255D01*
X124965396Y-113573255D01*
X124965393Y-113573254D01*
X124807573Y-113527402D01*
X124807567Y-113527401D01*
X124770701Y-113524500D01*
X124770694Y-113524500D01*
X124339306Y-113524500D01*
X124339298Y-113524500D01*
X124302432Y-113527401D01*
X124302426Y-113527402D01*
X124144607Y-113573254D01*
X124144600Y-113573256D01*
X124044636Y-113632374D01*
X123980085Y-113648750D01*
X123980085Y-113649500D01*
X123977129Y-113649500D01*
X123976912Y-113649555D01*
X123976100Y-113649500D01*
X123973994Y-113649500D01*
X123973993Y-113649500D01*
X123012000Y-113649500D01*
X122944961Y-113629815D01*
X122899206Y-113577011D01*
X122888000Y-113525500D01*
X122887999Y-112399998D01*
X122887998Y-112399981D01*
X122877499Y-112297203D01*
X122877498Y-112297200D01*
X122822314Y-112130666D01*
X122730212Y-111981344D01*
X122606156Y-111857288D01*
X122456834Y-111765186D01*
X122290297Y-111710001D01*
X122290295Y-111710000D01*
X122187516Y-111699500D01*
X122187509Y-111699500D01*
X121494085Y-111699500D01*
X121427046Y-111679815D01*
X121381291Y-111627011D01*
X121370085Y-111575500D01*
X121370085Y-110940649D01*
X123755000Y-110940649D01*
X123757899Y-110977489D01*
X123757900Y-110977495D01*
X123803716Y-111135193D01*
X123803717Y-111135196D01*
X123887314Y-111276552D01*
X123887321Y-111276561D01*
X124003438Y-111392678D01*
X124003447Y-111392685D01*
X124144801Y-111476281D01*
X124302514Y-111522100D01*
X124302511Y-111522100D01*
X124304998Y-111522295D01*
X124305000Y-111522295D01*
X124305000Y-110300000D01*
X123755000Y-110300000D01*
X123755000Y-110940649D01*
X121370085Y-110940649D01*
X121370085Y-110671933D01*
X121389770Y-110604894D01*
X121406399Y-110584257D01*
X122831306Y-109159350D01*
X123755000Y-109159350D01*
X123755000Y-109800000D01*
X124305000Y-109800000D01*
X124305000Y-108577703D01*
X124302503Y-108577900D01*
X124144806Y-108623716D01*
X124144803Y-108623717D01*
X124003447Y-108707314D01*
X124003438Y-108707321D01*
X123887321Y-108823438D01*
X123887314Y-108823447D01*
X123803717Y-108964803D01*
X123803716Y-108964806D01*
X123757900Y-109122504D01*
X123757899Y-109122510D01*
X123755000Y-109159350D01*
X122831306Y-109159350D01*
X125303838Y-106686817D01*
X125365161Y-106653333D01*
X125391519Y-106650499D01*
X125897871Y-106650499D01*
X125897872Y-106650499D01*
X125957483Y-106644091D01*
X126092331Y-106593796D01*
X126207546Y-106507546D01*
X126293796Y-106392331D01*
X126344091Y-106257483D01*
X126350500Y-106197873D01*
X126350499Y-104402128D01*
X126344091Y-104342517D01*
X126333598Y-104314385D01*
X126293797Y-104207671D01*
X126293793Y-104207664D01*
X126207547Y-104092455D01*
X126207544Y-104092452D01*
X126092335Y-104006206D01*
X126092328Y-104006202D01*
X125957482Y-103955908D01*
X125957483Y-103955908D01*
X125897883Y-103949501D01*
X125897881Y-103949500D01*
X125897873Y-103949500D01*
X125897864Y-103949500D01*
X124102129Y-103949500D01*
X124102123Y-103949501D01*
X124042516Y-103955908D01*
X123907671Y-104006202D01*
X123907664Y-104006206D01*
X123792455Y-104092452D01*
X123792452Y-104092455D01*
X123706206Y-104207664D01*
X123706202Y-104207671D01*
X123655908Y-104342517D01*
X123649501Y-104402116D01*
X123649501Y-104402123D01*
X123649500Y-104402135D01*
X123649500Y-104475500D01*
X123629815Y-104542539D01*
X123577011Y-104588294D01*
X123525500Y-104599500D01*
X121829018Y-104599500D01*
X121761979Y-104579815D01*
X121741337Y-104563181D01*
X121336819Y-104158662D01*
X121303334Y-104097339D01*
X121300500Y-104070981D01*
X121300500Y-103734313D01*
X121300499Y-103734298D01*
X121300301Y-103731785D01*
X121297598Y-103697431D01*
X121283450Y-103648735D01*
X121263206Y-103579054D01*
X121251744Y-103539602D01*
X121250574Y-103537624D01*
X121250130Y-103535874D01*
X121248647Y-103532446D01*
X121249200Y-103532206D01*
X121233396Y-103469901D01*
X121248753Y-103417603D01*
X121248184Y-103417357D01*
X121250182Y-103412738D01*
X121250581Y-103411382D01*
X121251281Y-103410197D01*
X121297100Y-103252486D01*
X121297295Y-103250001D01*
X121297295Y-103250000D01*
X121031815Y-103250000D01*
X120968694Y-103232732D01*
X120926095Y-103207539D01*
X120910398Y-103198256D01*
X120910397Y-103198255D01*
X120910396Y-103198255D01*
X120910393Y-103198254D01*
X120752573Y-103152402D01*
X120752567Y-103152401D01*
X120715701Y-103149500D01*
X120715694Y-103149500D01*
X120261500Y-103149500D01*
X120194461Y-103129815D01*
X120148706Y-103077011D01*
X120137500Y-103025500D01*
X120137500Y-102974500D01*
X120157185Y-102907461D01*
X120209989Y-102861706D01*
X120261500Y-102850500D01*
X120715686Y-102850500D01*
X120715694Y-102850500D01*
X120752569Y-102847598D01*
X120752571Y-102847597D01*
X120752573Y-102847597D01*
X120794191Y-102835505D01*
X120910398Y-102801744D01*
X120968694Y-102767268D01*
X121031815Y-102750000D01*
X121297295Y-102750000D01*
X121297295Y-102749998D01*
X121297100Y-102747511D01*
X121297099Y-102747505D01*
X121251283Y-102589806D01*
X121251281Y-102589801D01*
X121250578Y-102588612D01*
X121250310Y-102587558D01*
X121248184Y-102582644D01*
X121248976Y-102582300D01*
X121233395Y-102520888D01*
X121249009Y-102467714D01*
X121248646Y-102467557D01*
X121249920Y-102464612D01*
X121250579Y-102462369D01*
X121251742Y-102460401D01*
X121251744Y-102460398D01*
X121297598Y-102302569D01*
X121300500Y-102265694D01*
X121300500Y-101834306D01*
X121297598Y-101797431D01*
X121251744Y-101639602D01*
X121168081Y-101498135D01*
X121168079Y-101498133D01*
X121168076Y-101498129D01*
X121051870Y-101381923D01*
X121051862Y-101381917D01*
X120918276Y-101302915D01*
X120910398Y-101298256D01*
X120910397Y-101298255D01*
X120910396Y-101298255D01*
X120910393Y-101298254D01*
X120752573Y-101252402D01*
X120752567Y-101252401D01*
X120715701Y-101249500D01*
X120715694Y-101249500D01*
X119795423Y-101249500D01*
X119728384Y-101229815D01*
X119682629Y-101177011D01*
X119672685Y-101107853D01*
X119701710Y-101044297D01*
X119756419Y-101007794D01*
X119895981Y-100961547D01*
X119895992Y-100961542D01*
X120040228Y-100872575D01*
X120040232Y-100872572D01*
X120160072Y-100752732D01*
X120160075Y-100752728D01*
X120249042Y-100608492D01*
X120249047Y-100608481D01*
X120302355Y-100447606D01*
X120312499Y-100348322D01*
X120312500Y-100348309D01*
X120312500Y-100300000D01*
X119612500Y-100300000D01*
X119612500Y-101024999D01*
X119626545Y-101039044D01*
X119660030Y-101100367D01*
X119655046Y-101170059D01*
X119613174Y-101225992D01*
X119548593Y-101250343D01*
X119522432Y-101252401D01*
X119522426Y-101252402D01*
X119364606Y-101298254D01*
X119364603Y-101298255D01*
X119223137Y-101381917D01*
X119223129Y-101381923D01*
X119106923Y-101498129D01*
X119106914Y-101498140D01*
X119106729Y-101498455D01*
X119106519Y-101498650D01*
X119102139Y-101504298D01*
X119101227Y-101503591D01*
X119055657Y-101546136D01*
X118986915Y-101558637D01*
X118922327Y-101531988D01*
X118898143Y-101504078D01*
X118897861Y-101504298D01*
X118893823Y-101499092D01*
X118893271Y-101498455D01*
X118893085Y-101498140D01*
X118893076Y-101498129D01*
X118776870Y-101381923D01*
X118776862Y-101381917D01*
X118643276Y-101302915D01*
X118635398Y-101298256D01*
X118635397Y-101298255D01*
X118635396Y-101298255D01*
X118635393Y-101298254D01*
X118502405Y-101259617D01*
X118443519Y-101222011D01*
X118414313Y-101158538D01*
X118413000Y-101140541D01*
X118413000Y-100990004D01*
X118432685Y-100922965D01*
X118471903Y-100884465D01*
X118490544Y-100872968D01*
X118500168Y-100863343D01*
X118561487Y-100829856D01*
X118631179Y-100834835D01*
X118675534Y-100863339D01*
X118684767Y-100872572D01*
X118684771Y-100872575D01*
X118829007Y-100961542D01*
X118829018Y-100961547D01*
X118989893Y-101014855D01*
X119089183Y-101024999D01*
X119112500Y-101024998D01*
X119112500Y-99800000D01*
X119612500Y-99800000D01*
X120312499Y-99800000D01*
X120312499Y-99751692D01*
X120312498Y-99751677D01*
X120302355Y-99652392D01*
X120249047Y-99491518D01*
X120249042Y-99491507D01*
X120160075Y-99347271D01*
X120160072Y-99347267D01*
X120040232Y-99227427D01*
X120040228Y-99227424D01*
X119895992Y-99138457D01*
X119895981Y-99138452D01*
X119735106Y-99085144D01*
X119635822Y-99075000D01*
X119612500Y-99075000D01*
X119612500Y-99800000D01*
X119112500Y-99800000D01*
X119112500Y-99074999D01*
X119089193Y-99075000D01*
X119089174Y-99075001D01*
X118989892Y-99085144D01*
X118829018Y-99138452D01*
X118829007Y-99138457D01*
X118684771Y-99227424D01*
X118684765Y-99227428D01*
X118675531Y-99236663D01*
X118614207Y-99270146D01*
X118544515Y-99265159D01*
X118500172Y-99236660D01*
X118490544Y-99227032D01*
X118490540Y-99227029D01*
X118346205Y-99138001D01*
X118346199Y-99137998D01*
X118346197Y-99137997D01*
X118346194Y-99137996D01*
X118185209Y-99084651D01*
X118085846Y-99074500D01*
X117539162Y-99074500D01*
X117539144Y-99074501D01*
X117439792Y-99084650D01*
X117439789Y-99084651D01*
X117278805Y-99137996D01*
X117278794Y-99138001D01*
X117134459Y-99227029D01*
X117134455Y-99227032D01*
X117112181Y-99249307D01*
X117050858Y-99282792D01*
X116981166Y-99277808D01*
X116925233Y-99235936D01*
X116900816Y-99170472D01*
X116900500Y-99161626D01*
X116900500Y-98324500D01*
X116920185Y-98257461D01*
X116972989Y-98211706D01*
X117024500Y-98200500D01*
X120549903Y-98200500D01*
X120616942Y-98220185D01*
X120637584Y-98236819D01*
X121363181Y-98962416D01*
X121396666Y-99023739D01*
X121399500Y-99050097D01*
X121399500Y-100713330D01*
X121399499Y-100713348D01*
X121399499Y-100879054D01*
X121399498Y-100879054D01*
X121440423Y-101031786D01*
X121454369Y-101055939D01*
X121454370Y-101055944D01*
X121454372Y-101055944D01*
X121513604Y-101158538D01*
X121519479Y-101168714D01*
X121519481Y-101168717D01*
X121638349Y-101287585D01*
X121638354Y-101287589D01*
X123531284Y-103180520D01*
X123531286Y-103180521D01*
X123531290Y-103180524D01*
X123642647Y-103244815D01*
X123668216Y-103259577D01*
X123820943Y-103300501D01*
X123820945Y-103300501D01*
X123986654Y-103300501D01*
X123986670Y-103300500D01*
X126599903Y-103300500D01*
X126666942Y-103320185D01*
X126687584Y-103336819D01*
X126963181Y-103612416D01*
X126996666Y-103673739D01*
X126999500Y-103700097D01*
X126999500Y-104913330D01*
X126999499Y-104913348D01*
X126999499Y-105079054D01*
X126999498Y-105079054D01*
X127034596Y-105210042D01*
X127040423Y-105231785D01*
X127059529Y-105264877D01*
X127106917Y-105346956D01*
X127119479Y-105368714D01*
X127119481Y-105368717D01*
X127238349Y-105487585D01*
X127238355Y-105487590D01*
X127331284Y-105580519D01*
X127468215Y-105659576D01*
X127620942Y-105700500D01*
X127620944Y-105700500D01*
X127779055Y-105700500D01*
X127779057Y-105700500D01*
X127837929Y-105684724D01*
X127870022Y-105680500D01*
X128196275Y-105680500D01*
X128263314Y-105700185D01*
X128309069Y-105752989D01*
X128319013Y-105822147D01*
X128317892Y-105828691D01*
X128299500Y-105921153D01*
X128299500Y-106078846D01*
X128330261Y-106233489D01*
X128330264Y-106233501D01*
X128390602Y-106379172D01*
X128390609Y-106379185D01*
X128478210Y-106510288D01*
X128478213Y-106510292D01*
X128589707Y-106621786D01*
X128589711Y-106621789D01*
X128720814Y-106709390D01*
X128720827Y-106709397D01*
X128826202Y-106753044D01*
X128866503Y-106769737D01*
X129021153Y-106800499D01*
X129021156Y-106800500D01*
X129021158Y-106800500D01*
X129178844Y-106800500D01*
X129178845Y-106800499D01*
X129333497Y-106769737D01*
X129479179Y-106709394D01*
X129610289Y-106621789D01*
X129721789Y-106510289D01*
X129809394Y-106379179D01*
X129869737Y-106233497D01*
X129872724Y-106218477D01*
X129879323Y-106185308D01*
X129911708Y-106123397D01*
X129972424Y-106088823D01*
X130000940Y-106085500D01*
X130015500Y-106085500D01*
X130082539Y-106105185D01*
X130128294Y-106157989D01*
X130139500Y-106209500D01*
X130139500Y-106475002D01*
X130142396Y-106529035D01*
X130142396Y-106529036D01*
X130177976Y-106668440D01*
X130177978Y-106668447D01*
X130194088Y-106707339D01*
X130245880Y-106802188D01*
X130245882Y-106802191D01*
X130311777Y-106872967D01*
X130343926Y-106907497D01*
X130403352Y-106942755D01*
X130467664Y-106980913D01*
X130506555Y-106997022D01*
X130524613Y-107003392D01*
X130581283Y-107044258D01*
X130606865Y-107109276D01*
X130593233Y-107177803D01*
X130571039Y-107208009D01*
X129355474Y-108423575D01*
X129278565Y-108500484D01*
X129224524Y-108554525D01*
X129170483Y-108608565D01*
X129145809Y-108651301D01*
X129101549Y-108696027D01*
X129083139Y-108706915D01*
X129076976Y-108711697D01*
X129075086Y-108709261D01*
X129026296Y-108735871D01*
X128956607Y-108730850D01*
X128924294Y-108710072D01*
X128923031Y-108711702D01*
X128916862Y-108706917D01*
X128822820Y-108651301D01*
X128775398Y-108623256D01*
X128775397Y-108623255D01*
X128775396Y-108623255D01*
X128775393Y-108623254D01*
X128617573Y-108577402D01*
X128617567Y-108577401D01*
X128580701Y-108574500D01*
X128580694Y-108574500D01*
X128149306Y-108574500D01*
X128149298Y-108574500D01*
X128112432Y-108577401D01*
X128112426Y-108577402D01*
X127954606Y-108623254D01*
X127954603Y-108623255D01*
X127813137Y-108706917D01*
X127806969Y-108711702D01*
X127805072Y-108709256D01*
X127756358Y-108735857D01*
X127686666Y-108730873D01*
X127654296Y-108710069D01*
X127653031Y-108711702D01*
X127646862Y-108706917D01*
X127552820Y-108651301D01*
X127505398Y-108623256D01*
X127505397Y-108623255D01*
X127505396Y-108623255D01*
X127505393Y-108623254D01*
X127347573Y-108577402D01*
X127347567Y-108577401D01*
X127310701Y-108574500D01*
X127310694Y-108574500D01*
X126879306Y-108574500D01*
X126879298Y-108574500D01*
X126842432Y-108577401D01*
X126842426Y-108577402D01*
X126684606Y-108623254D01*
X126684603Y-108623255D01*
X126543137Y-108706917D01*
X126536969Y-108711702D01*
X126535072Y-108709256D01*
X126486358Y-108735857D01*
X126416666Y-108730873D01*
X126384296Y-108710069D01*
X126383031Y-108711702D01*
X126376862Y-108706917D01*
X126282820Y-108651301D01*
X126235398Y-108623256D01*
X126235397Y-108623255D01*
X126235396Y-108623255D01*
X126235393Y-108623254D01*
X126077573Y-108577402D01*
X126077567Y-108577401D01*
X126040701Y-108574500D01*
X126040694Y-108574500D01*
X125609306Y-108574500D01*
X125609298Y-108574500D01*
X125572432Y-108577401D01*
X125572426Y-108577402D01*
X125414606Y-108623254D01*
X125414603Y-108623255D01*
X125273140Y-108706915D01*
X125266974Y-108711699D01*
X125265174Y-108709379D01*
X125215913Y-108736230D01*
X125146225Y-108731193D01*
X125113992Y-108710461D01*
X125112722Y-108712100D01*
X125106552Y-108707314D01*
X124965196Y-108623717D01*
X124965193Y-108623716D01*
X124807494Y-108577900D01*
X124807497Y-108577900D01*
X124805000Y-108577703D01*
X124805000Y-111522295D01*
X124805001Y-111522295D01*
X124807486Y-111522100D01*
X124965198Y-111476281D01*
X125106550Y-111392686D01*
X125112717Y-111387903D01*
X125114630Y-111390369D01*
X125163222Y-111363802D01*
X125232917Y-111368749D01*
X125265762Y-111389853D01*
X125266969Y-111388298D01*
X125273132Y-111393078D01*
X125273135Y-111393081D01*
X125414602Y-111476744D01*
X125456224Y-111488836D01*
X125572426Y-111522597D01*
X125572429Y-111522597D01*
X125572431Y-111522598D01*
X125609306Y-111525500D01*
X125609314Y-111525500D01*
X126040686Y-111525500D01*
X126040694Y-111525500D01*
X126077569Y-111522598D01*
X126077571Y-111522597D01*
X126077573Y-111522597D01*
X126119191Y-111510505D01*
X126235398Y-111476744D01*
X126376865Y-111393081D01*
X126376870Y-111393075D01*
X126383031Y-111388298D01*
X126384933Y-111390750D01*
X126433579Y-111364155D01*
X126503274Y-111369104D01*
X126535695Y-111389940D01*
X126536969Y-111388298D01*
X126543132Y-111393078D01*
X126543135Y-111393081D01*
X126684602Y-111476744D01*
X126726224Y-111488836D01*
X126842426Y-111522597D01*
X126842429Y-111522597D01*
X126842431Y-111522598D01*
X126879306Y-111525500D01*
X126879314Y-111525500D01*
X127310686Y-111525500D01*
X127310694Y-111525500D01*
X127347569Y-111522598D01*
X127347571Y-111522597D01*
X127347573Y-111522597D01*
X127389191Y-111510505D01*
X127505398Y-111476744D01*
X127646865Y-111393081D01*
X127646870Y-111393075D01*
X127653031Y-111388298D01*
X127654933Y-111390750D01*
X127703579Y-111364155D01*
X127773274Y-111369104D01*
X127805695Y-111389940D01*
X127806969Y-111388298D01*
X127813132Y-111393078D01*
X127813135Y-111393081D01*
X127954602Y-111476744D01*
X127996224Y-111488836D01*
X128112426Y-111522597D01*
X128112429Y-111522597D01*
X128112431Y-111522598D01*
X128149306Y-111525500D01*
X128149314Y-111525500D01*
X128580686Y-111525500D01*
X128580694Y-111525500D01*
X128617569Y-111522598D01*
X128617571Y-111522597D01*
X128617573Y-111522597D01*
X128659191Y-111510505D01*
X128775398Y-111476744D01*
X128916865Y-111393081D01*
X128916870Y-111393075D01*
X128923031Y-111388298D01*
X128924933Y-111390750D01*
X128973579Y-111364155D01*
X129043274Y-111369104D01*
X129075695Y-111389940D01*
X129076969Y-111388298D01*
X129083132Y-111393078D01*
X129083135Y-111393081D01*
X129224602Y-111476744D01*
X129266224Y-111488836D01*
X129382426Y-111522597D01*
X129382429Y-111522597D01*
X129382431Y-111522598D01*
X129419306Y-111525500D01*
X129419314Y-111525500D01*
X129850686Y-111525500D01*
X129850694Y-111525500D01*
X129887569Y-111522598D01*
X129887571Y-111522597D01*
X129887573Y-111522597D01*
X129929191Y-111510505D01*
X130045398Y-111476744D01*
X130186865Y-111393081D01*
X130186870Y-111393075D01*
X130193031Y-111388298D01*
X130194933Y-111390750D01*
X130243579Y-111364155D01*
X130313274Y-111369104D01*
X130345695Y-111389940D01*
X130346969Y-111388298D01*
X130353132Y-111393078D01*
X130353135Y-111393081D01*
X130494602Y-111476744D01*
X130536224Y-111488836D01*
X130652426Y-111522597D01*
X130652429Y-111522597D01*
X130652431Y-111522598D01*
X130689306Y-111525500D01*
X130689314Y-111525500D01*
X131120686Y-111525500D01*
X131120694Y-111525500D01*
X131157569Y-111522598D01*
X131157571Y-111522597D01*
X131157573Y-111522597D01*
X131199191Y-111510505D01*
X131315398Y-111476744D01*
X131456865Y-111393081D01*
X131456870Y-111393075D01*
X131463031Y-111388298D01*
X131464933Y-111390750D01*
X131513579Y-111364155D01*
X131583274Y-111369104D01*
X131615695Y-111389940D01*
X131616969Y-111388298D01*
X131623132Y-111393078D01*
X131623135Y-111393081D01*
X131764602Y-111476744D01*
X131806224Y-111488836D01*
X131922426Y-111522597D01*
X131922429Y-111522597D01*
X131922431Y-111522598D01*
X131959306Y-111525500D01*
X131959314Y-111525500D01*
X132390686Y-111525500D01*
X132390694Y-111525500D01*
X132427569Y-111522598D01*
X132427571Y-111522597D01*
X132427573Y-111522597D01*
X132469191Y-111510505D01*
X132585398Y-111476744D01*
X132726865Y-111393081D01*
X132726870Y-111393075D01*
X132733031Y-111388298D01*
X132734933Y-111390750D01*
X132783579Y-111364155D01*
X132853274Y-111369104D01*
X132885695Y-111389940D01*
X132886969Y-111388298D01*
X132893132Y-111393078D01*
X132893135Y-111393081D01*
X133034602Y-111476744D01*
X133076224Y-111488836D01*
X133192426Y-111522597D01*
X133192429Y-111522597D01*
X133192431Y-111522598D01*
X133229306Y-111525500D01*
X133229314Y-111525500D01*
X133660686Y-111525500D01*
X133660694Y-111525500D01*
X133697569Y-111522598D01*
X133697571Y-111522597D01*
X133697573Y-111522597D01*
X133739191Y-111510505D01*
X133855398Y-111476744D01*
X133996865Y-111393081D01*
X134113081Y-111276865D01*
X134196744Y-111135398D01*
X134242598Y-110977569D01*
X134245500Y-110940694D01*
X134245500Y-109159306D01*
X134242598Y-109122431D01*
X134208110Y-109003722D01*
X134208309Y-108933853D01*
X134239504Y-108881445D01*
X134264516Y-108856435D01*
X134286374Y-108818576D01*
X134340940Y-108724065D01*
X134365894Y-108630935D01*
X134380500Y-108576425D01*
X134380500Y-108423575D01*
X134380500Y-105318282D01*
X134340941Y-105170642D01*
X134339149Y-105167539D01*
X134291578Y-105085144D01*
X134264516Y-105038271D01*
X133936819Y-104710574D01*
X133903334Y-104649251D01*
X133900500Y-104622893D01*
X133900500Y-104581897D01*
X133898252Y-104563181D01*
X133889877Y-104493436D01*
X133889876Y-104493434D01*
X133889438Y-104489785D01*
X133889438Y-104460215D01*
X133889876Y-104456565D01*
X133889877Y-104456564D01*
X133900500Y-104368102D01*
X133900500Y-104181898D01*
X133890191Y-104096051D01*
X133890567Y-104063632D01*
X133910500Y-103925000D01*
X133910500Y-103836812D01*
X133930185Y-103769773D01*
X133946819Y-103749131D01*
X135175062Y-102520888D01*
X136287821Y-101408129D01*
X136349142Y-101374646D01*
X136418834Y-101379630D01*
X136474767Y-101421502D01*
X136499184Y-101486966D01*
X136499500Y-101495812D01*
X136499500Y-126875500D01*
X136479815Y-126942539D01*
X136427011Y-126988294D01*
X136375500Y-126999500D01*
X113624500Y-126999500D01*
X113557461Y-126979815D01*
X113511706Y-126927011D01*
X113500500Y-126875500D01*
X113500500Y-113599986D01*
X114987501Y-113599986D01*
X114997994Y-113702697D01*
X115053141Y-113869119D01*
X115053143Y-113869124D01*
X115145184Y-114018345D01*
X115269154Y-114142315D01*
X115418375Y-114234356D01*
X115418380Y-114234358D01*
X115584802Y-114289505D01*
X115584809Y-114289506D01*
X115687519Y-114299999D01*
X116624999Y-114299999D01*
X117125000Y-114299999D01*
X118062472Y-114299999D01*
X118062486Y-114299998D01*
X118165197Y-114289505D01*
X118331619Y-114234358D01*
X118331624Y-114234356D01*
X118480845Y-114142315D01*
X118604815Y-114018345D01*
X118696856Y-113869124D01*
X118696858Y-113869119D01*
X118752005Y-113702697D01*
X118752006Y-113702690D01*
X118762499Y-113599986D01*
X118762500Y-113599973D01*
X118762500Y-113250000D01*
X117125000Y-113250000D01*
X117125000Y-114299999D01*
X116624999Y-114299999D01*
X116625000Y-114299998D01*
X116625000Y-113250000D01*
X114987501Y-113250000D01*
X114987501Y-113599986D01*
X113500500Y-113599986D01*
X113500500Y-112400013D01*
X114987500Y-112400013D01*
X114987500Y-112750000D01*
X116625000Y-112750000D01*
X117125000Y-112750000D01*
X118762499Y-112750000D01*
X118762499Y-112400028D01*
X118762498Y-112400013D01*
X118752005Y-112297302D01*
X118696858Y-112130880D01*
X118696856Y-112130875D01*
X118604815Y-111981654D01*
X118480845Y-111857684D01*
X118331624Y-111765643D01*
X118331619Y-111765641D01*
X118165197Y-111710494D01*
X118165190Y-111710493D01*
X118062486Y-111700000D01*
X117125000Y-111700000D01*
X117125000Y-112750000D01*
X116625000Y-112750000D01*
X116625000Y-111700000D01*
X115687528Y-111700000D01*
X115687512Y-111700001D01*
X115584802Y-111710494D01*
X115418380Y-111765641D01*
X115418375Y-111765643D01*
X115269154Y-111857684D01*
X115145184Y-111981654D01*
X115053143Y-112130875D01*
X115053141Y-112130880D01*
X114997994Y-112297302D01*
X114997993Y-112297309D01*
X114987500Y-112400013D01*
X113500500Y-112400013D01*
X113500500Y-79124500D01*
X113520185Y-79057461D01*
X113572989Y-79011706D01*
X113624500Y-79000500D01*
X136375500Y-79000500D01*
X136442539Y-79020185D01*
G37*
%TD.AperFunction*%
%TA.AperFunction,Conductor*%
G36*
X131368434Y-104114876D02*
G01*
X131368436Y-104114877D01*
X131440821Y-104123569D01*
X131456897Y-104125500D01*
X131456898Y-104125500D01*
X131643103Y-104125500D01*
X131659178Y-104123569D01*
X131731564Y-104114877D01*
X131731565Y-104114876D01*
X131735215Y-104114438D01*
X131764785Y-104114438D01*
X131768434Y-104114876D01*
X131768436Y-104114877D01*
X131840821Y-104123569D01*
X131856897Y-104125500D01*
X131975500Y-104125500D01*
X132042539Y-104145185D01*
X132088294Y-104197989D01*
X132099500Y-104249500D01*
X132099500Y-104368102D01*
X132103586Y-104402127D01*
X132110561Y-104460217D01*
X132110561Y-104489783D01*
X132107539Y-104514952D01*
X132099500Y-104581898D01*
X132099500Y-104768102D01*
X132100676Y-104777893D01*
X132110561Y-104860217D01*
X132110561Y-104889783D01*
X132107734Y-104913330D01*
X132099500Y-104981898D01*
X132099500Y-104981903D01*
X132099500Y-105100500D01*
X132079815Y-105167539D01*
X132027011Y-105213294D01*
X131975500Y-105224500D01*
X131856898Y-105224500D01*
X131813440Y-105229718D01*
X131764783Y-105235561D01*
X131735217Y-105235561D01*
X131686559Y-105229718D01*
X131643102Y-105224500D01*
X131456898Y-105224500D01*
X131413440Y-105229718D01*
X131364783Y-105235561D01*
X131335217Y-105235561D01*
X131286559Y-105229718D01*
X131243102Y-105224500D01*
X131124500Y-105224500D01*
X131057461Y-105204815D01*
X131011706Y-105152011D01*
X131000500Y-105100500D01*
X131000500Y-104981898D01*
X130993180Y-104920943D01*
X130989877Y-104893436D01*
X130989875Y-104893432D01*
X130989185Y-104887682D01*
X130989185Y-104858110D01*
X131000000Y-104768059D01*
X131000000Y-104581940D01*
X130989185Y-104491890D01*
X130989185Y-104462318D01*
X130989875Y-104456567D01*
X130989877Y-104456564D01*
X131000500Y-104368102D01*
X131000500Y-104249500D01*
X131020185Y-104182461D01*
X131072989Y-104136706D01*
X131124500Y-104125500D01*
X131243103Y-104125500D01*
X131259178Y-104123569D01*
X131331564Y-104114877D01*
X131331565Y-104114876D01*
X131335215Y-104114438D01*
X131364785Y-104114438D01*
X131368434Y-104114876D01*
G37*
%TD.AperFunction*%
%TA.AperFunction,Conductor*%
G36*
X133910203Y-93640716D02*
G01*
X133916681Y-93646748D01*
X134483181Y-94213248D01*
X134516666Y-94274571D01*
X134519500Y-94300929D01*
X134519500Y-98808187D01*
X134499815Y-98875226D01*
X134483181Y-98895868D01*
X133917181Y-99461868D01*
X133855858Y-99495353D01*
X133786166Y-99490369D01*
X133730233Y-99448497D01*
X133705816Y-99383033D01*
X133705500Y-99374187D01*
X133705500Y-98559313D01*
X133705499Y-98559298D01*
X133702598Y-98522432D01*
X133702597Y-98522426D01*
X133656745Y-98364606D01*
X133656744Y-98364603D01*
X133656744Y-98364602D01*
X133573081Y-98223135D01*
X133573079Y-98223133D01*
X133573076Y-98223129D01*
X133456870Y-98106923D01*
X133456862Y-98106917D01*
X133315396Y-98023255D01*
X133315393Y-98023254D01*
X133157573Y-97977402D01*
X133157567Y-97977401D01*
X133120701Y-97974500D01*
X133120694Y-97974500D01*
X132689306Y-97974500D01*
X132689298Y-97974500D01*
X132652432Y-97977401D01*
X132652426Y-97977402D01*
X132494606Y-98023254D01*
X132494603Y-98023255D01*
X132353137Y-98106917D01*
X132346969Y-98111702D01*
X132345072Y-98109256D01*
X132296358Y-98135857D01*
X132226666Y-98130873D01*
X132194296Y-98110069D01*
X132193031Y-98111702D01*
X132186862Y-98106917D01*
X132045396Y-98023255D01*
X132045393Y-98023254D01*
X131887573Y-97977402D01*
X131887567Y-97977401D01*
X131850701Y-97974500D01*
X131850694Y-97974500D01*
X131419306Y-97974500D01*
X131419298Y-97974500D01*
X131382432Y-97977401D01*
X131382426Y-97977402D01*
X131224606Y-98023254D01*
X131224603Y-98023255D01*
X131083137Y-98106917D01*
X131076969Y-98111702D01*
X131075072Y-98109256D01*
X131026358Y-98135857D01*
X130956666Y-98130873D01*
X130924296Y-98110069D01*
X130923031Y-98111702D01*
X130916862Y-98106917D01*
X130775396Y-98023255D01*
X130775393Y-98023254D01*
X130617573Y-97977402D01*
X130617567Y-97977401D01*
X130580701Y-97974500D01*
X130580694Y-97974500D01*
X130149306Y-97974500D01*
X130149298Y-97974500D01*
X130112432Y-97977401D01*
X130112426Y-97977402D01*
X129954606Y-98023254D01*
X129954603Y-98023255D01*
X129813137Y-98106917D01*
X129806969Y-98111702D01*
X129805072Y-98109256D01*
X129756358Y-98135857D01*
X129686666Y-98130873D01*
X129654296Y-98110069D01*
X129653031Y-98111702D01*
X129646862Y-98106917D01*
X129505396Y-98023255D01*
X129505393Y-98023254D01*
X129347573Y-97977402D01*
X129347567Y-97977401D01*
X129310701Y-97974500D01*
X129310694Y-97974500D01*
X128879306Y-97974500D01*
X128879298Y-97974500D01*
X128842432Y-97977401D01*
X128842426Y-97977402D01*
X128684606Y-98023254D01*
X128684603Y-98023255D01*
X128543137Y-98106917D01*
X128543129Y-98106923D01*
X128426923Y-98223129D01*
X128426917Y-98223137D01*
X128343255Y-98364603D01*
X128343254Y-98364606D01*
X128297402Y-98522426D01*
X128297401Y-98522432D01*
X128294500Y-98559298D01*
X128294500Y-100340701D01*
X128297401Y-100377567D01*
X128297402Y-100377573D01*
X128343254Y-100535393D01*
X128343255Y-100535396D01*
X128426917Y-100676862D01*
X128426923Y-100676870D01*
X128478180Y-100728126D01*
X128511666Y-100789449D01*
X128514500Y-100815808D01*
X128514500Y-103721429D01*
X128520996Y-103745672D01*
X128520997Y-103745672D01*
X128553966Y-103868716D01*
X128554061Y-103869068D01*
X128630481Y-104001431D01*
X128630486Y-104001437D01*
X128936868Y-104307819D01*
X128970353Y-104369142D01*
X128965369Y-104438834D01*
X128923497Y-104494767D01*
X128858033Y-104519184D01*
X128849187Y-104519500D01*
X128324500Y-104519500D01*
X128257461Y-104499815D01*
X128211706Y-104447011D01*
X128200500Y-104395500D01*
X128200500Y-103320944D01*
X128200499Y-103320941D01*
X128200296Y-103320185D01*
X128199852Y-103318526D01*
X128167626Y-103198256D01*
X128167626Y-103198255D01*
X128159578Y-103168217D01*
X128159576Y-103168213D01*
X128080524Y-103031290D01*
X128080521Y-103031286D01*
X128080520Y-103031284D01*
X127968716Y-102919480D01*
X127968715Y-102919479D01*
X127964385Y-102915149D01*
X127964374Y-102915139D01*
X127387590Y-102338355D01*
X127387588Y-102338352D01*
X127268717Y-102219481D01*
X127268716Y-102219480D01*
X127181904Y-102169360D01*
X127181904Y-102169359D01*
X127181900Y-102169358D01*
X127131785Y-102140423D01*
X126979057Y-102099499D01*
X126820943Y-102099499D01*
X126813347Y-102099499D01*
X126813331Y-102099500D01*
X124200098Y-102099500D01*
X124133059Y-102079815D01*
X124112417Y-102063181D01*
X122636819Y-100587583D01*
X122603334Y-100526260D01*
X122600500Y-100499902D01*
X122600500Y-98839060D01*
X122600501Y-98839047D01*
X122600501Y-98670944D01*
X122570585Y-98559298D01*
X122559577Y-98518216D01*
X122524622Y-98457671D01*
X122480524Y-98381290D01*
X122480518Y-98381282D01*
X121786916Y-97687680D01*
X121753431Y-97626357D01*
X121758415Y-97556665D01*
X121786916Y-97512318D01*
X122598734Y-96700500D01*
X123437821Y-95861412D01*
X123499142Y-95827929D01*
X123568834Y-95832913D01*
X123624767Y-95874785D01*
X123649184Y-95940249D01*
X123649500Y-95949095D01*
X123649500Y-96647870D01*
X123649501Y-96647876D01*
X123655908Y-96707483D01*
X123706202Y-96842328D01*
X123706206Y-96842335D01*
X123792452Y-96957544D01*
X123792455Y-96957547D01*
X123907664Y-97043793D01*
X123907671Y-97043797D01*
X124042517Y-97094091D01*
X124042516Y-97094091D01*
X124049444Y-97094835D01*
X124102127Y-97100500D01*
X125897872Y-97100499D01*
X125957483Y-97094091D01*
X126092331Y-97043796D01*
X126207546Y-96957546D01*
X126293796Y-96842331D01*
X126316609Y-96781167D01*
X126358480Y-96725233D01*
X126423944Y-96700816D01*
X126432791Y-96700500D01*
X126700903Y-96700500D01*
X126767942Y-96720185D01*
X126813697Y-96772989D01*
X126823641Y-96842147D01*
X126794616Y-96905703D01*
X126788584Y-96912181D01*
X125537582Y-98163181D01*
X125476259Y-98196666D01*
X125449901Y-98199500D01*
X124102129Y-98199500D01*
X124102123Y-98199501D01*
X124042516Y-98205908D01*
X123907671Y-98256202D01*
X123907664Y-98256206D01*
X123792455Y-98342452D01*
X123792452Y-98342455D01*
X123706206Y-98457664D01*
X123706202Y-98457671D01*
X123655908Y-98592517D01*
X123649501Y-98652116D01*
X123649500Y-98652135D01*
X123649500Y-100447870D01*
X123649501Y-100447876D01*
X123655908Y-100507483D01*
X123706202Y-100642328D01*
X123706206Y-100642335D01*
X123792452Y-100757544D01*
X123792455Y-100757547D01*
X123907664Y-100843793D01*
X123907671Y-100843797D01*
X124042517Y-100894091D01*
X124042516Y-100894091D01*
X124049444Y-100894835D01*
X124102127Y-100900500D01*
X125897872Y-100900499D01*
X125957483Y-100894091D01*
X126092331Y-100843796D01*
X126207546Y-100757546D01*
X126293796Y-100642331D01*
X126344091Y-100507483D01*
X126350500Y-100447873D01*
X126350499Y-99100095D01*
X126370184Y-99033057D01*
X126386813Y-99012420D01*
X128162416Y-97236819D01*
X128223739Y-97203334D01*
X128250097Y-97200500D01*
X131348330Y-97200500D01*
X131348346Y-97200501D01*
X131355942Y-97200501D01*
X131514053Y-97200501D01*
X131514056Y-97200501D01*
X131666784Y-97159577D01*
X131736232Y-97119481D01*
X131803715Y-97080520D01*
X131915519Y-96968716D01*
X131915519Y-96968714D01*
X131925723Y-96958511D01*
X131925727Y-96958506D01*
X131993506Y-96890727D01*
X131993511Y-96890723D01*
X132003714Y-96880519D01*
X132003716Y-96880519D01*
X132115520Y-96768715D01*
X132167284Y-96679057D01*
X132194577Y-96631784D01*
X132235500Y-96479056D01*
X132235500Y-96320942D01*
X132235500Y-95990326D01*
X132255185Y-95923287D01*
X132307989Y-95877532D01*
X132377147Y-95867588D01*
X132422621Y-95883594D01*
X132494801Y-95926281D01*
X132652514Y-95972100D01*
X132652511Y-95972100D01*
X132654998Y-95972295D01*
X132655000Y-95972295D01*
X133155000Y-95972295D01*
X133155001Y-95972295D01*
X133157486Y-95972100D01*
X133315198Y-95926281D01*
X133456552Y-95842685D01*
X133456561Y-95842678D01*
X133572678Y-95726561D01*
X133572685Y-95726552D01*
X133656282Y-95585196D01*
X133656283Y-95585193D01*
X133702099Y-95427495D01*
X133702100Y-95427489D01*
X133704999Y-95390649D01*
X133705000Y-95390634D01*
X133705000Y-94750000D01*
X133155000Y-94750000D01*
X133155000Y-95972295D01*
X132655000Y-95972295D01*
X132655000Y-94624000D01*
X132674685Y-94556961D01*
X132727489Y-94511206D01*
X132779000Y-94500000D01*
X132905000Y-94500000D01*
X132905000Y-94374000D01*
X132924685Y-94306961D01*
X132977489Y-94261206D01*
X133029000Y-94250000D01*
X133705000Y-94250000D01*
X133705000Y-93734429D01*
X133724685Y-93667390D01*
X133777489Y-93621635D01*
X133846647Y-93611691D01*
X133910203Y-93640716D01*
G37*
%TD.AperFunction*%
%TA.AperFunction,Conductor*%
G36*
X129624273Y-83130294D02*
G01*
X129658593Y-83154544D01*
X135383181Y-88879132D01*
X135416666Y-88940455D01*
X135419500Y-88966813D01*
X135419500Y-92699187D01*
X135399815Y-92766226D01*
X135347011Y-92811981D01*
X135277853Y-92821925D01*
X135214297Y-92792900D01*
X135207819Y-92786868D01*
X133886437Y-91465486D01*
X133886431Y-91465481D01*
X133754068Y-91389061D01*
X133754069Y-91389061D01*
X133738023Y-91384761D01*
X133678140Y-91368716D01*
X133678137Y-91368715D01*
X133647827Y-91360593D01*
X133606425Y-91349500D01*
X133606424Y-91349500D01*
X133397757Y-91349500D01*
X133330718Y-91329815D01*
X133284963Y-91277011D01*
X133275019Y-91207853D01*
X133276140Y-91201308D01*
X133300500Y-91078844D01*
X133300500Y-90921155D01*
X133300499Y-90921153D01*
X133295998Y-90898523D01*
X133269737Y-90766503D01*
X133229095Y-90668384D01*
X133209397Y-90620827D01*
X133209390Y-90620814D01*
X133121789Y-90489711D01*
X133121786Y-90489707D01*
X133010292Y-90378213D01*
X133010288Y-90378210D01*
X132879185Y-90290609D01*
X132879172Y-90290602D01*
X132733501Y-90230264D01*
X132733489Y-90230261D01*
X132578845Y-90199500D01*
X132578842Y-90199500D01*
X132421158Y-90199500D01*
X132421155Y-90199500D01*
X132266510Y-90230261D01*
X132266498Y-90230264D01*
X132169396Y-90270485D01*
X132099927Y-90277954D01*
X132037448Y-90246678D01*
X132034263Y-90243605D01*
X131960188Y-90169530D01*
X131928740Y-90150519D01*
X131848378Y-90101938D01*
X131801191Y-90050411D01*
X131789353Y-89981551D01*
X131816622Y-89917223D01*
X131847433Y-89890283D01*
X131955078Y-89823887D01*
X132073885Y-89705080D01*
X132162091Y-89562077D01*
X132162093Y-89562072D01*
X132214942Y-89402583D01*
X132224999Y-89304150D01*
X132225000Y-89304137D01*
X132225000Y-89250000D01*
X131411500Y-89250000D01*
X131344461Y-89230315D01*
X131298706Y-89177511D01*
X131287500Y-89126000D01*
X131287500Y-89000000D01*
X131161500Y-89000000D01*
X131094461Y-88980315D01*
X131048706Y-88927511D01*
X131037500Y-88876000D01*
X131037500Y-88750000D01*
X131537500Y-88750000D01*
X132224999Y-88750000D01*
X132224999Y-88695864D01*
X132224998Y-88695847D01*
X132214943Y-88597416D01*
X132162093Y-88437927D01*
X132162091Y-88437922D01*
X132073885Y-88294919D01*
X131955080Y-88176114D01*
X131812077Y-88087908D01*
X131812072Y-88087906D01*
X131652583Y-88035057D01*
X131554150Y-88025000D01*
X131537500Y-88025000D01*
X131537500Y-88750000D01*
X131037500Y-88750000D01*
X131037500Y-88024999D01*
X131020856Y-88025000D01*
X130922415Y-88035057D01*
X130762927Y-88087906D01*
X130762922Y-88087908D01*
X130619919Y-88176114D01*
X130588033Y-88208000D01*
X130526709Y-88241485D01*
X130457018Y-88236499D01*
X130412673Y-88208000D01*
X130380392Y-88175719D01*
X130380387Y-88175716D01*
X130237295Y-88087455D01*
X130237289Y-88087452D01*
X130237287Y-88087451D01*
X130077685Y-88034564D01*
X130077683Y-88034563D01*
X129979181Y-88024500D01*
X129979174Y-88024500D01*
X129445826Y-88024500D01*
X129445818Y-88024500D01*
X129347316Y-88034563D01*
X129347315Y-88034564D01*
X129288097Y-88054187D01*
X129187715Y-88087450D01*
X129187704Y-88087455D01*
X129044612Y-88175716D01*
X129044608Y-88175719D01*
X128925719Y-88294608D01*
X128925716Y-88294612D01*
X128837455Y-88437704D01*
X128837450Y-88437715D01*
X128837380Y-88437927D01*
X128784564Y-88597315D01*
X128784564Y-88597316D01*
X128784563Y-88597316D01*
X128774500Y-88695818D01*
X128774500Y-89304181D01*
X128784563Y-89402683D01*
X128837450Y-89562284D01*
X128837455Y-89562295D01*
X128925716Y-89705387D01*
X128925719Y-89705391D01*
X129038181Y-89817853D01*
X129071666Y-89879176D01*
X129074500Y-89905534D01*
X129074500Y-90083480D01*
X129054815Y-90150519D01*
X129038181Y-90171161D01*
X128919531Y-90289810D01*
X128919530Y-90289811D01*
X128831522Y-90435393D01*
X128780913Y-90597807D01*
X128774500Y-90668386D01*
X128774500Y-91225500D01*
X128754815Y-91292539D01*
X128702011Y-91338294D01*
X128650500Y-91349500D01*
X126348377Y-91349500D01*
X126281338Y-91329815D01*
X126235583Y-91277011D01*
X126225639Y-91207853D01*
X126249111Y-91151188D01*
X126293352Y-91092089D01*
X126293354Y-91092086D01*
X126343596Y-90957379D01*
X126343598Y-90957372D01*
X126349999Y-90897844D01*
X126350000Y-90897827D01*
X126350000Y-90250000D01*
X125433012Y-90250000D01*
X125465925Y-90192993D01*
X125500000Y-90065826D01*
X125500000Y-89934174D01*
X125465925Y-89807007D01*
X125433012Y-89750000D01*
X126350000Y-89750000D01*
X126350000Y-89102172D01*
X126349999Y-89102155D01*
X126343598Y-89042627D01*
X126343596Y-89042620D01*
X126293354Y-88907913D01*
X126293350Y-88907906D01*
X126207190Y-88792812D01*
X126207187Y-88792809D01*
X126092093Y-88706649D01*
X126092086Y-88706645D01*
X125957379Y-88656403D01*
X125957372Y-88656401D01*
X125897844Y-88650000D01*
X125250000Y-88650000D01*
X125250000Y-89566988D01*
X125192993Y-89534075D01*
X125065826Y-89500000D01*
X124934174Y-89500000D01*
X124807007Y-89534075D01*
X124750000Y-89566988D01*
X124750000Y-88650000D01*
X124102155Y-88650000D01*
X124042627Y-88656401D01*
X124042620Y-88656403D01*
X123907913Y-88706645D01*
X123907906Y-88706649D01*
X123792812Y-88792809D01*
X123792809Y-88792812D01*
X123706649Y-88907906D01*
X123706645Y-88907913D01*
X123656403Y-89042620D01*
X123656401Y-89042627D01*
X123650000Y-89102155D01*
X123650000Y-89750000D01*
X124566988Y-89750000D01*
X124534075Y-89807007D01*
X124500000Y-89934174D01*
X124500000Y-90065826D01*
X124534075Y-90192993D01*
X124566988Y-90250000D01*
X123650000Y-90250000D01*
X123650000Y-90897844D01*
X123656401Y-90957372D01*
X123656403Y-90957379D01*
X123706645Y-91092086D01*
X123706647Y-91092089D01*
X123750889Y-91151188D01*
X123775307Y-91216652D01*
X123760456Y-91284926D01*
X123711051Y-91334331D01*
X123651623Y-91349500D01*
X120305590Y-91349500D01*
X120238551Y-91329815D01*
X120192796Y-91277011D01*
X120182852Y-91207853D01*
X120195105Y-91169205D01*
X120204285Y-91151188D01*
X120251557Y-91058412D01*
X120317246Y-90856243D01*
X120350500Y-90646287D01*
X120350500Y-90433713D01*
X120317246Y-90223757D01*
X120303506Y-90181473D01*
X120301512Y-90111635D01*
X120333755Y-90055478D01*
X125452417Y-84936819D01*
X125513740Y-84903334D01*
X125540098Y-84900500D01*
X126313331Y-84900500D01*
X126313347Y-84900501D01*
X126320943Y-84900501D01*
X126479054Y-84900501D01*
X126479057Y-84900501D01*
X126631785Y-84859577D01*
X126681904Y-84830639D01*
X126768716Y-84780520D01*
X126880520Y-84668716D01*
X126880520Y-84668714D01*
X126890728Y-84658507D01*
X126890730Y-84658504D01*
X127840733Y-83708500D01*
X127902054Y-83675017D01*
X127965300Y-83677796D01*
X128097804Y-83719086D01*
X128168384Y-83725500D01*
X128168387Y-83725500D01*
X128831613Y-83725500D01*
X128831616Y-83725500D01*
X128902196Y-83719086D01*
X129064606Y-83668478D01*
X129210185Y-83580472D01*
X129330472Y-83460185D01*
X129418478Y-83314606D01*
X129452528Y-83205332D01*
X129491263Y-83147188D01*
X129555288Y-83119213D01*
X129624273Y-83130294D01*
G37*
%TD.AperFunction*%
%TD*%
M02*
