%TF.GenerationSoftware,KiCad,Pcbnew,10.0.5*%
%TF.CreationDate,2026-08-22T19:25:51-07:00*%
%TF.ProjectId,driver-v5,64726976-6572-42d7-9635-2e6b69636164,rev?*%
%TF.SameCoordinates,Original*%
%TF.FileFunction,Soldermask,Top*%
%TF.FilePolarity,Negative*%
%FSLAX46Y46*%
G04 Gerber Fmt 4.6, Leading zero omitted, Abs format (unit mm)*
G04 Created by KiCad (PCBNEW 10.0.5) date 2026-08-22 19:25:51*
%MOMM*%
%LPD*%
G01*
G04 APERTURE LIST*
G04 APERTURE END LIST*
G36*
X120704850Y-119600964D02*
G01*
X120755040Y-119606787D01*
X120772189Y-119614359D01*
X120795671Y-119619030D01*
X120820810Y-119635827D01*
X120840696Y-119644608D01*
X120854277Y-119658189D01*
X120876777Y-119673223D01*
X120891810Y-119695722D01*
X120905391Y-119709303D01*
X120914170Y-119729186D01*
X120930970Y-119754329D01*
X120935641Y-119777812D01*
X120943212Y-119794959D01*
X120949033Y-119845139D01*
X120950000Y-119850000D01*
X120950000Y-121300000D01*
X120949032Y-121304863D01*
X120943212Y-121355040D01*
X120935641Y-121372185D01*
X120930970Y-121395671D01*
X120914169Y-121420815D01*
X120905391Y-121440696D01*
X120891812Y-121454274D01*
X120876777Y-121476777D01*
X120854274Y-121491812D01*
X120840696Y-121505391D01*
X120820815Y-121514169D01*
X120795671Y-121530970D01*
X120772185Y-121535641D01*
X120755040Y-121543212D01*
X120704861Y-121549032D01*
X120700000Y-121550000D01*
X119500000Y-121550000D01*
X119495138Y-121549032D01*
X119444959Y-121543212D01*
X119427812Y-121535641D01*
X119404329Y-121530970D01*
X119379186Y-121514170D01*
X119359303Y-121505391D01*
X119345722Y-121491810D01*
X119323223Y-121476777D01*
X119308189Y-121454277D01*
X119294608Y-121440696D01*
X119285827Y-121420810D01*
X119269030Y-121395671D01*
X119264359Y-121372189D01*
X119256787Y-121355040D01*
X119250964Y-121304849D01*
X119250000Y-121300000D01*
X119250000Y-119850000D01*
X119250964Y-119845150D01*
X119256787Y-119794959D01*
X119264359Y-119777808D01*
X119269030Y-119754329D01*
X119285826Y-119729191D01*
X119294608Y-119709303D01*
X119308191Y-119695719D01*
X119323223Y-119673223D01*
X119345719Y-119658191D01*
X119359303Y-119644608D01*
X119379191Y-119635826D01*
X119404329Y-119619030D01*
X119427808Y-119614359D01*
X119444959Y-119606787D01*
X119495151Y-119600964D01*
X119500000Y-119600000D01*
X120700000Y-119600000D01*
X120704850Y-119600964D01*
G37*
G36*
X122846742Y-119636601D02*
G01*
X123000687Y-119700367D01*
X123139234Y-119792941D01*
X123257059Y-119910766D01*
X123349633Y-120049313D01*
X123413399Y-120203258D01*
X123445907Y-120366685D01*
X123450000Y-120450000D01*
X123450000Y-120700000D01*
X123445907Y-120783315D01*
X123413399Y-120946742D01*
X123349633Y-121100687D01*
X123257059Y-121239234D01*
X123139234Y-121357059D01*
X123000687Y-121449633D01*
X122846742Y-121513399D01*
X122683315Y-121545907D01*
X122516685Y-121545907D01*
X122353258Y-121513399D01*
X122199313Y-121449633D01*
X122060766Y-121357059D01*
X121942941Y-121239234D01*
X121850367Y-121100687D01*
X121786601Y-120946742D01*
X121754093Y-120783315D01*
X121750000Y-120700000D01*
X121750000Y-120450000D01*
X121754093Y-120366685D01*
X121786601Y-120203258D01*
X121850367Y-120049313D01*
X121942941Y-119910766D01*
X122060766Y-119792941D01*
X122199313Y-119700367D01*
X122353258Y-119636601D01*
X122516685Y-119604093D01*
X122683315Y-119604093D01*
X122846742Y-119636601D01*
G37*
G36*
X125346742Y-119636601D02*
G01*
X125500687Y-119700367D01*
X125639234Y-119792941D01*
X125757059Y-119910766D01*
X125849633Y-120049313D01*
X125913399Y-120203258D01*
X125945907Y-120366685D01*
X125950000Y-120450000D01*
X125950000Y-120700000D01*
X125945907Y-120783315D01*
X125913399Y-120946742D01*
X125849633Y-121100687D01*
X125757059Y-121239234D01*
X125639234Y-121357059D01*
X125500687Y-121449633D01*
X125346742Y-121513399D01*
X125183315Y-121545907D01*
X125016685Y-121545907D01*
X124853258Y-121513399D01*
X124699313Y-121449633D01*
X124560766Y-121357059D01*
X124442941Y-121239234D01*
X124350367Y-121100687D01*
X124286601Y-120946742D01*
X124254093Y-120783315D01*
X124250000Y-120700000D01*
X124250000Y-120450000D01*
X124254093Y-120366685D01*
X124286601Y-120203258D01*
X124350367Y-120049313D01*
X124442941Y-119910766D01*
X124560766Y-119792941D01*
X124699313Y-119700367D01*
X124853258Y-119636601D01*
X125016685Y-119604093D01*
X125183315Y-119604093D01*
X125346742Y-119636601D01*
G37*
G36*
X127846742Y-119636601D02*
G01*
X128000687Y-119700367D01*
X128139234Y-119792941D01*
X128257059Y-119910766D01*
X128349633Y-120049313D01*
X128413399Y-120203258D01*
X128445907Y-120366685D01*
X128450000Y-120450000D01*
X128450000Y-120700000D01*
X128445907Y-120783315D01*
X128413399Y-120946742D01*
X128349633Y-121100687D01*
X128257059Y-121239234D01*
X128139234Y-121357059D01*
X128000687Y-121449633D01*
X127846742Y-121513399D01*
X127683315Y-121545907D01*
X127516685Y-121545907D01*
X127353258Y-121513399D01*
X127199313Y-121449633D01*
X127060766Y-121357059D01*
X126942941Y-121239234D01*
X126850367Y-121100687D01*
X126786601Y-120946742D01*
X126754093Y-120783315D01*
X126750000Y-120700000D01*
X126750000Y-120450000D01*
X126754093Y-120366685D01*
X126786601Y-120203258D01*
X126850367Y-120049313D01*
X126942941Y-119910766D01*
X127060766Y-119792941D01*
X127199313Y-119700367D01*
X127353258Y-119636601D01*
X127516685Y-119604093D01*
X127683315Y-119604093D01*
X127846742Y-119636601D01*
G37*
G36*
X130346742Y-119636601D02*
G01*
X130500687Y-119700367D01*
X130639234Y-119792941D01*
X130757059Y-119910766D01*
X130849633Y-120049313D01*
X130913399Y-120203258D01*
X130945907Y-120366685D01*
X130950000Y-120450000D01*
X130950000Y-120700000D01*
X130945907Y-120783315D01*
X130913399Y-120946742D01*
X130849633Y-121100687D01*
X130757059Y-121239234D01*
X130639234Y-121357059D01*
X130500687Y-121449633D01*
X130346742Y-121513399D01*
X130183315Y-121545907D01*
X130016685Y-121545907D01*
X129853258Y-121513399D01*
X129699313Y-121449633D01*
X129560766Y-121357059D01*
X129442941Y-121239234D01*
X129350367Y-121100687D01*
X129286601Y-120946742D01*
X129254093Y-120783315D01*
X129250000Y-120700000D01*
X129250000Y-120450000D01*
X129254093Y-120366685D01*
X129286601Y-120203258D01*
X129350367Y-120049313D01*
X129442941Y-119910766D01*
X129560766Y-119792941D01*
X129699313Y-119700367D01*
X129853258Y-119636601D01*
X130016685Y-119604093D01*
X130183315Y-119604093D01*
X130346742Y-119636601D01*
G37*
G36*
X124762403Y-114036418D02*
G01*
X124811066Y-114068934D01*
X124843582Y-114117597D01*
X124855000Y-114175000D01*
X124855000Y-115825000D01*
X124843582Y-115882403D01*
X124811066Y-115931066D01*
X124762403Y-115963582D01*
X124705000Y-115975000D01*
X124405000Y-115975000D01*
X124347597Y-115963582D01*
X124298934Y-115931066D01*
X124266418Y-115882403D01*
X124255000Y-115825000D01*
X124255000Y-114175000D01*
X124266418Y-114117597D01*
X124298934Y-114068934D01*
X124347597Y-114036418D01*
X124405000Y-114025000D01*
X124705000Y-114025000D01*
X124762403Y-114036418D01*
G37*
G36*
X126032403Y-114036418D02*
G01*
X126081066Y-114068934D01*
X126113582Y-114117597D01*
X126125000Y-114175000D01*
X126125000Y-115825000D01*
X126113582Y-115882403D01*
X126081066Y-115931066D01*
X126032403Y-115963582D01*
X125975000Y-115975000D01*
X125675000Y-115975000D01*
X125617597Y-115963582D01*
X125568934Y-115931066D01*
X125536418Y-115882403D01*
X125525000Y-115825000D01*
X125525000Y-114175000D01*
X125536418Y-114117597D01*
X125568934Y-114068934D01*
X125617597Y-114036418D01*
X125675000Y-114025000D01*
X125975000Y-114025000D01*
X126032403Y-114036418D01*
G37*
G36*
X127302403Y-114036418D02*
G01*
X127351066Y-114068934D01*
X127383582Y-114117597D01*
X127395000Y-114175000D01*
X127395000Y-115825000D01*
X127383582Y-115882403D01*
X127351066Y-115931066D01*
X127302403Y-115963582D01*
X127245000Y-115975000D01*
X126945000Y-115975000D01*
X126887597Y-115963582D01*
X126838934Y-115931066D01*
X126806418Y-115882403D01*
X126795000Y-115825000D01*
X126795000Y-114175000D01*
X126806418Y-114117597D01*
X126838934Y-114068934D01*
X126887597Y-114036418D01*
X126945000Y-114025000D01*
X127245000Y-114025000D01*
X127302403Y-114036418D01*
G37*
G36*
X128572403Y-114036418D02*
G01*
X128621066Y-114068934D01*
X128653582Y-114117597D01*
X128665000Y-114175000D01*
X128665000Y-115825000D01*
X128653582Y-115882403D01*
X128621066Y-115931066D01*
X128572403Y-115963582D01*
X128515000Y-115975000D01*
X128215000Y-115975000D01*
X128157597Y-115963582D01*
X128108934Y-115931066D01*
X128076418Y-115882403D01*
X128065000Y-115825000D01*
X128065000Y-114175000D01*
X128076418Y-114117597D01*
X128108934Y-114068934D01*
X128157597Y-114036418D01*
X128215000Y-114025000D01*
X128515000Y-114025000D01*
X128572403Y-114036418D01*
G37*
G36*
X129842403Y-114036418D02*
G01*
X129891066Y-114068934D01*
X129923582Y-114117597D01*
X129935000Y-114175000D01*
X129935000Y-115825000D01*
X129923582Y-115882403D01*
X129891066Y-115931066D01*
X129842403Y-115963582D01*
X129785000Y-115975000D01*
X129485000Y-115975000D01*
X129427597Y-115963582D01*
X129378934Y-115931066D01*
X129346418Y-115882403D01*
X129335000Y-115825000D01*
X129335000Y-114175000D01*
X129346418Y-114117597D01*
X129378934Y-114068934D01*
X129427597Y-114036418D01*
X129485000Y-114025000D01*
X129785000Y-114025000D01*
X129842403Y-114036418D01*
G37*
G36*
X131112403Y-114036418D02*
G01*
X131161066Y-114068934D01*
X131193582Y-114117597D01*
X131205000Y-114175000D01*
X131205000Y-115825000D01*
X131193582Y-115882403D01*
X131161066Y-115931066D01*
X131112403Y-115963582D01*
X131055000Y-115975000D01*
X130755000Y-115975000D01*
X130697597Y-115963582D01*
X130648934Y-115931066D01*
X130616418Y-115882403D01*
X130605000Y-115825000D01*
X130605000Y-114175000D01*
X130616418Y-114117597D01*
X130648934Y-114068934D01*
X130697597Y-114036418D01*
X130755000Y-114025000D01*
X131055000Y-114025000D01*
X131112403Y-114036418D01*
G37*
G36*
X132382403Y-114036418D02*
G01*
X132431066Y-114068934D01*
X132463582Y-114117597D01*
X132475000Y-114175000D01*
X132475000Y-115825000D01*
X132463582Y-115882403D01*
X132431066Y-115931066D01*
X132382403Y-115963582D01*
X132325000Y-115975000D01*
X132025000Y-115975000D01*
X131967597Y-115963582D01*
X131918934Y-115931066D01*
X131886418Y-115882403D01*
X131875000Y-115825000D01*
X131875000Y-114175000D01*
X131886418Y-114117597D01*
X131918934Y-114068934D01*
X131967597Y-114036418D01*
X132025000Y-114025000D01*
X132325000Y-114025000D01*
X132382403Y-114036418D01*
G37*
G36*
X133652403Y-114036418D02*
G01*
X133701066Y-114068934D01*
X133733582Y-114117597D01*
X133745000Y-114175000D01*
X133745000Y-115825000D01*
X133733582Y-115882403D01*
X133701066Y-115931066D01*
X133652403Y-115963582D01*
X133595000Y-115975000D01*
X133295000Y-115975000D01*
X133237597Y-115963582D01*
X133188934Y-115931066D01*
X133156418Y-115882403D01*
X133145000Y-115825000D01*
X133145000Y-114175000D01*
X133156418Y-114117597D01*
X133188934Y-114068934D01*
X133237597Y-114036418D01*
X133295000Y-114025000D01*
X133595000Y-114025000D01*
X133652403Y-114036418D01*
G37*
G36*
X118017350Y-112200964D02*
G01*
X118067540Y-112206787D01*
X118084689Y-112214359D01*
X118108171Y-112219030D01*
X118133310Y-112235827D01*
X118153196Y-112244608D01*
X118166777Y-112258189D01*
X118189277Y-112273223D01*
X118204310Y-112295722D01*
X118217891Y-112309303D01*
X118226670Y-112329186D01*
X118243470Y-112354329D01*
X118248141Y-112377812D01*
X118255712Y-112394959D01*
X118261533Y-112445139D01*
X118262500Y-112450000D01*
X118262500Y-113550000D01*
X118261532Y-113554863D01*
X118255712Y-113605040D01*
X118248141Y-113622185D01*
X118243470Y-113645671D01*
X118226669Y-113670815D01*
X118217891Y-113690696D01*
X118204312Y-113704274D01*
X118189277Y-113726777D01*
X118166774Y-113741812D01*
X118153196Y-113755391D01*
X118133315Y-113764169D01*
X118108171Y-113780970D01*
X118084685Y-113785641D01*
X118067540Y-113793212D01*
X118017361Y-113799032D01*
X118012500Y-113800000D01*
X115737500Y-113800000D01*
X115732638Y-113799032D01*
X115682459Y-113793212D01*
X115665312Y-113785641D01*
X115641829Y-113780970D01*
X115616686Y-113764170D01*
X115596803Y-113755391D01*
X115583222Y-113741810D01*
X115560723Y-113726777D01*
X115545689Y-113704277D01*
X115532108Y-113690696D01*
X115523327Y-113670810D01*
X115506530Y-113645671D01*
X115501859Y-113622189D01*
X115494287Y-113605040D01*
X115488464Y-113554849D01*
X115487500Y-113550000D01*
X115487500Y-112450000D01*
X115488464Y-112445150D01*
X115494287Y-112394959D01*
X115501859Y-112377808D01*
X115506530Y-112354329D01*
X115523326Y-112329191D01*
X115532108Y-112309303D01*
X115545691Y-112295719D01*
X115560723Y-112273223D01*
X115583219Y-112258191D01*
X115596803Y-112244608D01*
X115616691Y-112235826D01*
X115641829Y-112219030D01*
X115665308Y-112214359D01*
X115682459Y-112206787D01*
X115732651Y-112200964D01*
X115737500Y-112200000D01*
X118012500Y-112200000D01*
X118017350Y-112200964D01*
G37*
G36*
X122142350Y-112200964D02*
G01*
X122192540Y-112206787D01*
X122209689Y-112214359D01*
X122233171Y-112219030D01*
X122258310Y-112235827D01*
X122278196Y-112244608D01*
X122291777Y-112258189D01*
X122314277Y-112273223D01*
X122329310Y-112295722D01*
X122342891Y-112309303D01*
X122351670Y-112329186D01*
X122368470Y-112354329D01*
X122373141Y-112377812D01*
X122380712Y-112394959D01*
X122386533Y-112445139D01*
X122387500Y-112450000D01*
X122387500Y-113550000D01*
X122386532Y-113554863D01*
X122380712Y-113605040D01*
X122373141Y-113622185D01*
X122368470Y-113645671D01*
X122351669Y-113670815D01*
X122342891Y-113690696D01*
X122329312Y-113704274D01*
X122314277Y-113726777D01*
X122291774Y-113741812D01*
X122278196Y-113755391D01*
X122258315Y-113764169D01*
X122233171Y-113780970D01*
X122209685Y-113785641D01*
X122192540Y-113793212D01*
X122142361Y-113799032D01*
X122137500Y-113800000D01*
X119862500Y-113800000D01*
X119857638Y-113799032D01*
X119807459Y-113793212D01*
X119790312Y-113785641D01*
X119766829Y-113780970D01*
X119741686Y-113764170D01*
X119721803Y-113755391D01*
X119708222Y-113741810D01*
X119685723Y-113726777D01*
X119670689Y-113704277D01*
X119657108Y-113690696D01*
X119648327Y-113670810D01*
X119631530Y-113645671D01*
X119626859Y-113622189D01*
X119619287Y-113605040D01*
X119613464Y-113554849D01*
X119612500Y-113550000D01*
X119612500Y-112450000D01*
X119613464Y-112445150D01*
X119619287Y-112394959D01*
X119626859Y-112377808D01*
X119631530Y-112354329D01*
X119648326Y-112329191D01*
X119657108Y-112309303D01*
X119670691Y-112295719D01*
X119685723Y-112273223D01*
X119708219Y-112258191D01*
X119721803Y-112244608D01*
X119741691Y-112235826D01*
X119766829Y-112219030D01*
X119790308Y-112214359D01*
X119807459Y-112206787D01*
X119857651Y-112200964D01*
X119862500Y-112200000D01*
X122137500Y-112200000D01*
X122142350Y-112200964D01*
G37*
G36*
X124762403Y-109086418D02*
G01*
X124811066Y-109118934D01*
X124843582Y-109167597D01*
X124855000Y-109225000D01*
X124855000Y-110875000D01*
X124843582Y-110932403D01*
X124811066Y-110981066D01*
X124762403Y-111013582D01*
X124705000Y-111025000D01*
X124405000Y-111025000D01*
X124347597Y-111013582D01*
X124298934Y-110981066D01*
X124266418Y-110932403D01*
X124255000Y-110875000D01*
X124255000Y-109225000D01*
X124266418Y-109167597D01*
X124298934Y-109118934D01*
X124347597Y-109086418D01*
X124405000Y-109075000D01*
X124705000Y-109075000D01*
X124762403Y-109086418D01*
G37*
G36*
X126032403Y-109086418D02*
G01*
X126081066Y-109118934D01*
X126113582Y-109167597D01*
X126125000Y-109225000D01*
X126125000Y-110875000D01*
X126113582Y-110932403D01*
X126081066Y-110981066D01*
X126032403Y-111013582D01*
X125975000Y-111025000D01*
X125675000Y-111025000D01*
X125617597Y-111013582D01*
X125568934Y-110981066D01*
X125536418Y-110932403D01*
X125525000Y-110875000D01*
X125525000Y-109225000D01*
X125536418Y-109167597D01*
X125568934Y-109118934D01*
X125617597Y-109086418D01*
X125675000Y-109075000D01*
X125975000Y-109075000D01*
X126032403Y-109086418D01*
G37*
G36*
X127302403Y-109086418D02*
G01*
X127351066Y-109118934D01*
X127383582Y-109167597D01*
X127395000Y-109225000D01*
X127395000Y-110875000D01*
X127383582Y-110932403D01*
X127351066Y-110981066D01*
X127302403Y-111013582D01*
X127245000Y-111025000D01*
X126945000Y-111025000D01*
X126887597Y-111013582D01*
X126838934Y-110981066D01*
X126806418Y-110932403D01*
X126795000Y-110875000D01*
X126795000Y-109225000D01*
X126806418Y-109167597D01*
X126838934Y-109118934D01*
X126887597Y-109086418D01*
X126945000Y-109075000D01*
X127245000Y-109075000D01*
X127302403Y-109086418D01*
G37*
G36*
X128572403Y-109086418D02*
G01*
X128621066Y-109118934D01*
X128653582Y-109167597D01*
X128665000Y-109225000D01*
X128665000Y-110875000D01*
X128653582Y-110932403D01*
X128621066Y-110981066D01*
X128572403Y-111013582D01*
X128515000Y-111025000D01*
X128215000Y-111025000D01*
X128157597Y-111013582D01*
X128108934Y-110981066D01*
X128076418Y-110932403D01*
X128065000Y-110875000D01*
X128065000Y-109225000D01*
X128076418Y-109167597D01*
X128108934Y-109118934D01*
X128157597Y-109086418D01*
X128215000Y-109075000D01*
X128515000Y-109075000D01*
X128572403Y-109086418D01*
G37*
G36*
X129842403Y-109086418D02*
G01*
X129891066Y-109118934D01*
X129923582Y-109167597D01*
X129935000Y-109225000D01*
X129935000Y-110875000D01*
X129923582Y-110932403D01*
X129891066Y-110981066D01*
X129842403Y-111013582D01*
X129785000Y-111025000D01*
X129485000Y-111025000D01*
X129427597Y-111013582D01*
X129378934Y-110981066D01*
X129346418Y-110932403D01*
X129335000Y-110875000D01*
X129335000Y-109225000D01*
X129346418Y-109167597D01*
X129378934Y-109118934D01*
X129427597Y-109086418D01*
X129485000Y-109075000D01*
X129785000Y-109075000D01*
X129842403Y-109086418D01*
G37*
G36*
X131112403Y-109086418D02*
G01*
X131161066Y-109118934D01*
X131193582Y-109167597D01*
X131205000Y-109225000D01*
X131205000Y-110875000D01*
X131193582Y-110932403D01*
X131161066Y-110981066D01*
X131112403Y-111013582D01*
X131055000Y-111025000D01*
X130755000Y-111025000D01*
X130697597Y-111013582D01*
X130648934Y-110981066D01*
X130616418Y-110932403D01*
X130605000Y-110875000D01*
X130605000Y-109225000D01*
X130616418Y-109167597D01*
X130648934Y-109118934D01*
X130697597Y-109086418D01*
X130755000Y-109075000D01*
X131055000Y-109075000D01*
X131112403Y-109086418D01*
G37*
G36*
X132382403Y-109086418D02*
G01*
X132431066Y-109118934D01*
X132463582Y-109167597D01*
X132475000Y-109225000D01*
X132475000Y-110875000D01*
X132463582Y-110932403D01*
X132431066Y-110981066D01*
X132382403Y-111013582D01*
X132325000Y-111025000D01*
X132025000Y-111025000D01*
X131967597Y-111013582D01*
X131918934Y-110981066D01*
X131886418Y-110932403D01*
X131875000Y-110875000D01*
X131875000Y-109225000D01*
X131886418Y-109167597D01*
X131918934Y-109118934D01*
X131967597Y-109086418D01*
X132025000Y-109075000D01*
X132325000Y-109075000D01*
X132382403Y-109086418D01*
G37*
G36*
X133652403Y-109086418D02*
G01*
X133701066Y-109118934D01*
X133733582Y-109167597D01*
X133745000Y-109225000D01*
X133745000Y-110875000D01*
X133733582Y-110932403D01*
X133701066Y-110981066D01*
X133652403Y-111013582D01*
X133595000Y-111025000D01*
X133295000Y-111025000D01*
X133237597Y-111013582D01*
X133188934Y-110981066D01*
X133156418Y-110932403D01*
X133145000Y-110875000D01*
X133145000Y-109225000D01*
X133156418Y-109167597D01*
X133188934Y-109118934D01*
X133237597Y-109086418D01*
X133295000Y-109075000D01*
X133595000Y-109075000D01*
X133652403Y-109086418D01*
G37*
G36*
X130801913Y-105715381D02*
G01*
X130807370Y-105717641D01*
X130807373Y-105717642D01*
X130829777Y-105726922D01*
X130840804Y-105731490D01*
X130843510Y-105734196D01*
X130859619Y-105773087D01*
X130860000Y-105775000D01*
X130860000Y-106475000D01*
X130859619Y-106476913D01*
X130843510Y-106515804D01*
X130840804Y-106518510D01*
X130801913Y-106534619D01*
X130800000Y-106535000D01*
X130794090Y-106535000D01*
X130705910Y-106535000D01*
X130700000Y-106535000D01*
X130698087Y-106534619D01*
X130659196Y-106518510D01*
X130656490Y-106515804D01*
X130651922Y-106504777D01*
X130642642Y-106482373D01*
X130642641Y-106482370D01*
X130640381Y-106476913D01*
X130640000Y-106475000D01*
X130640000Y-105825711D01*
X130640381Y-105823798D01*
X130642641Y-105818341D01*
X130642642Y-105818337D01*
X130654228Y-105790366D01*
X130654230Y-105790362D01*
X130656490Y-105784907D01*
X130657573Y-105783284D01*
X130708284Y-105732573D01*
X130709907Y-105731490D01*
X130715362Y-105729230D01*
X130715366Y-105729228D01*
X130743337Y-105717642D01*
X130743341Y-105717641D01*
X130748798Y-105715381D01*
X130750711Y-105715000D01*
X130800000Y-105715000D01*
X130801913Y-105715381D01*
G37*
G36*
X132351202Y-105715381D02*
G01*
X132356659Y-105717641D01*
X132356662Y-105717642D01*
X132384633Y-105729228D01*
X132384634Y-105729229D01*
X132390093Y-105731490D01*
X132391716Y-105732573D01*
X132442427Y-105783284D01*
X132443510Y-105784907D01*
X132459619Y-105823798D01*
X132460000Y-105825711D01*
X132460000Y-106475000D01*
X132459619Y-106476913D01*
X132443510Y-106515804D01*
X132440804Y-106518510D01*
X132401913Y-106534619D01*
X132400000Y-106535000D01*
X132394090Y-106535000D01*
X132305910Y-106535000D01*
X132300000Y-106535000D01*
X132298087Y-106534619D01*
X132259196Y-106518510D01*
X132256490Y-106515804D01*
X132251922Y-106504777D01*
X132242642Y-106482373D01*
X132242641Y-106482370D01*
X132240381Y-106476913D01*
X132240000Y-106475000D01*
X132240000Y-105775000D01*
X132240381Y-105773087D01*
X132242641Y-105767630D01*
X132242642Y-105767626D01*
X132251922Y-105745222D01*
X132251923Y-105745220D01*
X132256490Y-105734196D01*
X132259196Y-105731490D01*
X132270220Y-105726923D01*
X132270222Y-105726922D01*
X132292626Y-105717642D01*
X132292630Y-105717641D01*
X132298087Y-105715381D01*
X132300000Y-105715000D01*
X132349289Y-105715000D01*
X132351202Y-105715381D01*
G37*
G36*
X118042350Y-105575964D02*
G01*
X118086817Y-105581123D01*
X118102010Y-105587831D01*
X118123604Y-105592127D01*
X118146722Y-105607574D01*
X118164067Y-105615233D01*
X118175912Y-105627078D01*
X118196599Y-105640901D01*
X118210421Y-105661587D01*
X118222266Y-105673432D01*
X118229923Y-105690774D01*
X118245373Y-105713896D01*
X118249668Y-105735491D01*
X118256376Y-105750682D01*
X118261533Y-105795139D01*
X118262500Y-105800000D01*
X118262500Y-106300000D01*
X118261532Y-106304862D01*
X118256376Y-106349317D01*
X118249668Y-106364506D01*
X118245373Y-106386104D01*
X118229922Y-106409227D01*
X118222266Y-106426567D01*
X118210423Y-106438409D01*
X118196599Y-106459099D01*
X118175909Y-106472923D01*
X118164067Y-106484766D01*
X118146727Y-106492422D01*
X118123604Y-106507873D01*
X118102006Y-106512168D01*
X118086817Y-106518876D01*
X118042361Y-106524032D01*
X118037500Y-106525000D01*
X117587500Y-106525000D01*
X117582638Y-106524033D01*
X117538182Y-106518876D01*
X117522991Y-106512168D01*
X117501396Y-106507873D01*
X117478274Y-106492423D01*
X117460932Y-106484766D01*
X117449087Y-106472921D01*
X117428401Y-106459099D01*
X117414578Y-106438412D01*
X117402733Y-106426567D01*
X117395074Y-106409222D01*
X117379627Y-106386104D01*
X117375331Y-106364510D01*
X117368623Y-106349317D01*
X117363464Y-106304849D01*
X117362500Y-106300000D01*
X117362500Y-105800000D01*
X117363464Y-105795150D01*
X117368623Y-105750682D01*
X117375332Y-105735487D01*
X117379627Y-105713896D01*
X117395073Y-105690779D01*
X117402733Y-105673432D01*
X117414580Y-105661584D01*
X117428401Y-105640901D01*
X117449084Y-105627080D01*
X117460932Y-105615233D01*
X117478279Y-105607573D01*
X117501396Y-105592127D01*
X117522987Y-105587832D01*
X117538182Y-105581123D01*
X117582651Y-105575964D01*
X117587500Y-105575000D01*
X118037500Y-105575000D01*
X118042350Y-105575964D01*
G37*
G36*
X119592350Y-105575964D02*
G01*
X119636817Y-105581123D01*
X119652010Y-105587831D01*
X119673604Y-105592127D01*
X119696722Y-105607574D01*
X119714067Y-105615233D01*
X119725912Y-105627078D01*
X119746599Y-105640901D01*
X119760421Y-105661587D01*
X119772266Y-105673432D01*
X119779923Y-105690774D01*
X119795373Y-105713896D01*
X119799668Y-105735491D01*
X119806376Y-105750682D01*
X119811533Y-105795139D01*
X119812500Y-105800000D01*
X119812500Y-106300000D01*
X119811532Y-106304862D01*
X119806376Y-106349317D01*
X119799668Y-106364506D01*
X119795373Y-106386104D01*
X119779922Y-106409227D01*
X119772266Y-106426567D01*
X119760423Y-106438409D01*
X119746599Y-106459099D01*
X119725909Y-106472923D01*
X119714067Y-106484766D01*
X119696727Y-106492422D01*
X119673604Y-106507873D01*
X119652006Y-106512168D01*
X119636817Y-106518876D01*
X119592361Y-106524032D01*
X119587500Y-106525000D01*
X119137500Y-106525000D01*
X119132638Y-106524033D01*
X119088182Y-106518876D01*
X119072991Y-106512168D01*
X119051396Y-106507873D01*
X119028274Y-106492423D01*
X119010932Y-106484766D01*
X118999087Y-106472921D01*
X118978401Y-106459099D01*
X118964578Y-106438412D01*
X118952733Y-106426567D01*
X118945074Y-106409222D01*
X118929627Y-106386104D01*
X118925331Y-106364510D01*
X118918623Y-106349317D01*
X118913464Y-106304849D01*
X118912500Y-106300000D01*
X118912500Y-105800000D01*
X118913464Y-105795150D01*
X118918623Y-105750682D01*
X118925332Y-105735487D01*
X118929627Y-105713896D01*
X118945073Y-105690779D01*
X118952733Y-105673432D01*
X118964580Y-105661584D01*
X118978401Y-105640901D01*
X118999084Y-105627080D01*
X119010932Y-105615233D01*
X119028279Y-105607573D01*
X119051396Y-105592127D01*
X119072987Y-105587832D01*
X119088182Y-105581123D01*
X119132651Y-105575964D01*
X119137500Y-105575000D01*
X119587500Y-105575000D01*
X119592350Y-105575964D01*
G37*
G36*
X131219134Y-105728806D02*
G01*
X131235355Y-105739645D01*
X131246194Y-105755866D01*
X131250000Y-105775000D01*
X131250000Y-106475000D01*
X131246194Y-106494134D01*
X131235355Y-106510355D01*
X131219134Y-106521194D01*
X131200000Y-106525000D01*
X131100000Y-106525000D01*
X131080866Y-106521194D01*
X131064645Y-106510355D01*
X131053806Y-106494134D01*
X131050000Y-106475000D01*
X131050000Y-105775000D01*
X131053806Y-105755866D01*
X131064645Y-105739645D01*
X131080866Y-105728806D01*
X131100000Y-105725000D01*
X131200000Y-105725000D01*
X131219134Y-105728806D01*
G37*
G36*
X131619134Y-105728806D02*
G01*
X131635355Y-105739645D01*
X131646194Y-105755866D01*
X131650000Y-105775000D01*
X131650000Y-106475000D01*
X131646194Y-106494134D01*
X131635355Y-106510355D01*
X131619134Y-106521194D01*
X131600000Y-106525000D01*
X131500000Y-106525000D01*
X131480866Y-106521194D01*
X131464645Y-106510355D01*
X131453806Y-106494134D01*
X131450000Y-106475000D01*
X131450000Y-105775000D01*
X131453806Y-105755866D01*
X131464645Y-105739645D01*
X131480866Y-105728806D01*
X131500000Y-105725000D01*
X131600000Y-105725000D01*
X131619134Y-105728806D01*
G37*
G36*
X132019134Y-105728806D02*
G01*
X132035355Y-105739645D01*
X132046194Y-105755866D01*
X132050000Y-105775000D01*
X132050000Y-106475000D01*
X132046194Y-106494134D01*
X132035355Y-106510355D01*
X132019134Y-106521194D01*
X132000000Y-106525000D01*
X131900000Y-106525000D01*
X131880866Y-106521194D01*
X131864645Y-106510355D01*
X131853806Y-106494134D01*
X131850000Y-106475000D01*
X131850000Y-105775000D01*
X131853806Y-105755866D01*
X131864645Y-105739645D01*
X131880866Y-105728806D01*
X131900000Y-105725000D01*
X132000000Y-105725000D01*
X132019134Y-105728806D01*
G37*
G36*
X125850000Y-106150000D02*
G01*
X124150000Y-106150000D01*
X124150000Y-104450000D01*
X125850000Y-104450000D01*
X125850000Y-106150000D01*
G37*
G36*
X130451913Y-105365381D02*
G01*
X130457370Y-105367641D01*
X130457373Y-105367642D01*
X130479777Y-105376922D01*
X130490804Y-105381490D01*
X130493510Y-105384196D01*
X130509619Y-105423087D01*
X130510000Y-105425000D01*
X130510000Y-105474289D01*
X130509619Y-105476202D01*
X130493510Y-105515093D01*
X130492427Y-105516716D01*
X130441716Y-105567427D01*
X130440093Y-105568510D01*
X130401202Y-105584619D01*
X130399289Y-105585000D01*
X130393379Y-105585000D01*
X129755910Y-105585000D01*
X129750000Y-105585000D01*
X129748087Y-105584619D01*
X129709196Y-105568510D01*
X129706490Y-105565804D01*
X129701922Y-105554777D01*
X129692642Y-105532373D01*
X129692641Y-105532370D01*
X129690381Y-105526913D01*
X129690000Y-105525000D01*
X129690000Y-105425000D01*
X129690381Y-105423087D01*
X129692641Y-105417630D01*
X129692642Y-105417626D01*
X129701922Y-105395222D01*
X129701923Y-105395220D01*
X129706490Y-105384196D01*
X129709196Y-105381490D01*
X129720220Y-105376923D01*
X129720222Y-105376922D01*
X129742626Y-105367642D01*
X129742630Y-105367641D01*
X129748087Y-105365381D01*
X129750000Y-105365000D01*
X130450000Y-105365000D01*
X130451913Y-105365381D01*
G37*
G36*
X133351913Y-105365381D02*
G01*
X133357370Y-105367641D01*
X133357373Y-105367642D01*
X133379777Y-105376922D01*
X133390804Y-105381490D01*
X133393510Y-105384196D01*
X133409619Y-105423087D01*
X133410000Y-105425000D01*
X133410000Y-105525000D01*
X133409619Y-105526913D01*
X133393510Y-105565804D01*
X133390804Y-105568510D01*
X133351913Y-105584619D01*
X133350000Y-105585000D01*
X133344090Y-105585000D01*
X132706621Y-105585000D01*
X132700711Y-105585000D01*
X132698798Y-105584619D01*
X132659907Y-105568510D01*
X132658284Y-105567427D01*
X132607573Y-105516716D01*
X132606490Y-105515093D01*
X132604228Y-105509633D01*
X132592642Y-105481662D01*
X132592641Y-105481659D01*
X132590381Y-105476202D01*
X132590000Y-105474289D01*
X132590000Y-105425000D01*
X132590381Y-105423087D01*
X132592641Y-105417630D01*
X132592642Y-105417626D01*
X132601922Y-105395222D01*
X132601923Y-105395220D01*
X132606490Y-105384196D01*
X132609196Y-105381490D01*
X132620220Y-105376923D01*
X132620222Y-105376922D01*
X132642626Y-105367642D01*
X132642630Y-105367641D01*
X132648087Y-105365381D01*
X132650000Y-105365000D01*
X133350000Y-105365000D01*
X133351913Y-105365381D01*
G37*
G36*
X132400000Y-105525000D02*
G01*
X130700000Y-105525000D01*
X130700000Y-103825000D01*
X132400000Y-103825000D01*
X132400000Y-105525000D01*
G37*
G36*
X130469134Y-104978806D02*
G01*
X130485355Y-104989645D01*
X130496194Y-105005866D01*
X130500000Y-105025000D01*
X130500000Y-105125000D01*
X130496194Y-105144134D01*
X130485355Y-105160355D01*
X130469134Y-105171194D01*
X130450000Y-105175000D01*
X129750000Y-105175000D01*
X129730866Y-105171194D01*
X129714645Y-105160355D01*
X129703806Y-105144134D01*
X129700000Y-105125000D01*
X129700000Y-105025000D01*
X129703806Y-105005866D01*
X129714645Y-104989645D01*
X129730866Y-104978806D01*
X129750000Y-104975000D01*
X130450000Y-104975000D01*
X130469134Y-104978806D01*
G37*
G36*
X133369134Y-104978806D02*
G01*
X133385355Y-104989645D01*
X133396194Y-105005866D01*
X133400000Y-105025000D01*
X133400000Y-105125000D01*
X133396194Y-105144134D01*
X133385355Y-105160355D01*
X133369134Y-105171194D01*
X133350000Y-105175000D01*
X132650000Y-105175000D01*
X132630866Y-105171194D01*
X132614645Y-105160355D01*
X132603806Y-105144134D01*
X132600000Y-105125000D01*
X132600000Y-105025000D01*
X132603806Y-105005866D01*
X132614645Y-104989645D01*
X132630866Y-104978806D01*
X132650000Y-104975000D01*
X133350000Y-104975000D01*
X133369134Y-104978806D01*
G37*
G36*
X130469134Y-104578806D02*
G01*
X130485355Y-104589645D01*
X130496194Y-104605866D01*
X130500000Y-104625000D01*
X130500000Y-104725000D01*
X130496194Y-104744134D01*
X130485355Y-104760355D01*
X130469134Y-104771194D01*
X130450000Y-104775000D01*
X129750000Y-104775000D01*
X129730866Y-104771194D01*
X129714645Y-104760355D01*
X129703806Y-104744134D01*
X129700000Y-104725000D01*
X129700000Y-104625000D01*
X129703806Y-104605866D01*
X129714645Y-104589645D01*
X129730866Y-104578806D01*
X129750000Y-104575000D01*
X130450000Y-104575000D01*
X130469134Y-104578806D01*
G37*
G36*
X133369134Y-104578806D02*
G01*
X133385355Y-104589645D01*
X133396194Y-104605866D01*
X133400000Y-104625000D01*
X133400000Y-104725000D01*
X133396194Y-104744134D01*
X133385355Y-104760355D01*
X133369134Y-104771194D01*
X133350000Y-104775000D01*
X132650000Y-104775000D01*
X132630866Y-104771194D01*
X132614645Y-104760355D01*
X132603806Y-104744134D01*
X132600000Y-104725000D01*
X132600000Y-104625000D01*
X132603806Y-104605866D01*
X132614645Y-104589645D01*
X132630866Y-104578806D01*
X132650000Y-104575000D01*
X133350000Y-104575000D01*
X133369134Y-104578806D01*
G37*
G36*
X130469134Y-104178806D02*
G01*
X130485355Y-104189645D01*
X130496194Y-104205866D01*
X130500000Y-104225000D01*
X130500000Y-104325000D01*
X130496194Y-104344134D01*
X130485355Y-104360355D01*
X130469134Y-104371194D01*
X130450000Y-104375000D01*
X129750000Y-104375000D01*
X129730866Y-104371194D01*
X129714645Y-104360355D01*
X129703806Y-104344134D01*
X129700000Y-104325000D01*
X129700000Y-104225000D01*
X129703806Y-104205866D01*
X129714645Y-104189645D01*
X129730866Y-104178806D01*
X129750000Y-104175000D01*
X130450000Y-104175000D01*
X130469134Y-104178806D01*
G37*
G36*
X133369134Y-104178806D02*
G01*
X133385355Y-104189645D01*
X133396194Y-104205866D01*
X133400000Y-104225000D01*
X133400000Y-104325000D01*
X133396194Y-104344134D01*
X133385355Y-104360355D01*
X133369134Y-104371194D01*
X133350000Y-104375000D01*
X132650000Y-104375000D01*
X132630866Y-104371194D01*
X132614645Y-104360355D01*
X132603806Y-104344134D01*
X132600000Y-104325000D01*
X132600000Y-104225000D01*
X132603806Y-104205866D01*
X132614645Y-104189645D01*
X132630866Y-104178806D01*
X132650000Y-104175000D01*
X133350000Y-104175000D01*
X133369134Y-104178806D01*
G37*
G36*
X118432403Y-103661418D02*
G01*
X118481066Y-103693934D01*
X118513582Y-103742597D01*
X118525000Y-103800000D01*
X118525000Y-104100000D01*
X118513582Y-104157403D01*
X118481066Y-104206066D01*
X118432403Y-104238582D01*
X118375000Y-104250000D01*
X117350000Y-104250000D01*
X117292597Y-104238582D01*
X117243934Y-104206066D01*
X117211418Y-104157403D01*
X117200000Y-104100000D01*
X117200000Y-103800000D01*
X117211418Y-103742597D01*
X117243934Y-103693934D01*
X117292597Y-103661418D01*
X117350000Y-103650000D01*
X118375000Y-103650000D01*
X118432403Y-103661418D01*
G37*
G36*
X120707403Y-103661418D02*
G01*
X120756066Y-103693934D01*
X120788582Y-103742597D01*
X120800000Y-103800000D01*
X120800000Y-104100000D01*
X120788582Y-104157403D01*
X120756066Y-104206066D01*
X120707403Y-104238582D01*
X120650000Y-104250000D01*
X119625000Y-104250000D01*
X119567597Y-104238582D01*
X119518934Y-104206066D01*
X119486418Y-104157403D01*
X119475000Y-104100000D01*
X119475000Y-103800000D01*
X119486418Y-103742597D01*
X119518934Y-103693934D01*
X119567597Y-103661418D01*
X119625000Y-103650000D01*
X120650000Y-103650000D01*
X120707403Y-103661418D01*
G37*
G36*
X130401202Y-103765381D02*
G01*
X130406659Y-103767641D01*
X130406662Y-103767642D01*
X130434633Y-103779228D01*
X130434634Y-103779229D01*
X130440093Y-103781490D01*
X130441716Y-103782573D01*
X130492427Y-103833284D01*
X130493510Y-103834907D01*
X130509619Y-103873798D01*
X130510000Y-103875711D01*
X130510000Y-103925000D01*
X130509619Y-103926913D01*
X130493510Y-103965804D01*
X130490804Y-103968510D01*
X130451913Y-103984619D01*
X130450000Y-103985000D01*
X130444090Y-103985000D01*
X129755910Y-103985000D01*
X129750000Y-103985000D01*
X129748087Y-103984619D01*
X129709196Y-103968510D01*
X129706490Y-103965804D01*
X129701922Y-103954777D01*
X129692642Y-103932373D01*
X129692641Y-103932370D01*
X129690381Y-103926913D01*
X129690000Y-103925000D01*
X129690000Y-103825000D01*
X129690381Y-103823087D01*
X129692641Y-103817630D01*
X129692642Y-103817626D01*
X129701922Y-103795222D01*
X129701923Y-103795220D01*
X129706490Y-103784196D01*
X129709196Y-103781490D01*
X129720220Y-103776923D01*
X129720222Y-103776922D01*
X129742626Y-103767642D01*
X129742630Y-103767641D01*
X129748087Y-103765381D01*
X129750000Y-103765000D01*
X130399289Y-103765000D01*
X130401202Y-103765381D01*
G37*
G36*
X133351913Y-103765381D02*
G01*
X133357370Y-103767641D01*
X133357373Y-103767642D01*
X133379777Y-103776922D01*
X133390804Y-103781490D01*
X133393510Y-103784196D01*
X133409619Y-103823087D01*
X133410000Y-103825000D01*
X133410000Y-103925000D01*
X133409619Y-103926913D01*
X133393510Y-103965804D01*
X133390804Y-103968510D01*
X133351913Y-103984619D01*
X133350000Y-103985000D01*
X133344090Y-103985000D01*
X132655910Y-103985000D01*
X132650000Y-103985000D01*
X132648087Y-103984619D01*
X132609196Y-103968510D01*
X132606490Y-103965804D01*
X132601922Y-103954777D01*
X132592642Y-103932373D01*
X132592641Y-103932370D01*
X132590381Y-103926913D01*
X132590000Y-103925000D01*
X132590000Y-103875711D01*
X132590381Y-103873798D01*
X132592641Y-103868341D01*
X132592642Y-103868337D01*
X132604228Y-103840366D01*
X132604230Y-103840362D01*
X132606490Y-103834907D01*
X132607573Y-103833284D01*
X132658284Y-103782573D01*
X132659907Y-103781490D01*
X132665362Y-103779230D01*
X132665366Y-103779228D01*
X132693337Y-103767642D01*
X132693341Y-103767641D01*
X132698798Y-103765381D01*
X132700711Y-103765000D01*
X133350000Y-103765000D01*
X133351913Y-103765381D01*
G37*
G36*
X130801913Y-102815381D02*
G01*
X130807370Y-102817641D01*
X130807373Y-102817642D01*
X130829777Y-102826922D01*
X130840804Y-102831490D01*
X130843510Y-102834196D01*
X130859619Y-102873087D01*
X130860000Y-102875000D01*
X130860000Y-103575000D01*
X130859619Y-103576913D01*
X130843510Y-103615804D01*
X130840804Y-103618510D01*
X130801913Y-103634619D01*
X130800000Y-103635000D01*
X130794090Y-103635000D01*
X130756621Y-103635000D01*
X130750711Y-103635000D01*
X130748798Y-103634619D01*
X130709907Y-103618510D01*
X130708284Y-103617427D01*
X130657573Y-103566716D01*
X130656490Y-103565093D01*
X130654228Y-103559633D01*
X130642642Y-103531662D01*
X130642641Y-103531659D01*
X130640381Y-103526202D01*
X130640000Y-103524289D01*
X130640000Y-102875000D01*
X130640381Y-102873087D01*
X130642641Y-102867630D01*
X130642642Y-102867626D01*
X130651922Y-102845222D01*
X130651923Y-102845220D01*
X130656490Y-102834196D01*
X130659196Y-102831490D01*
X130670220Y-102826923D01*
X130670222Y-102826922D01*
X130692626Y-102817642D01*
X130692630Y-102817641D01*
X130698087Y-102815381D01*
X130700000Y-102815000D01*
X130800000Y-102815000D01*
X130801913Y-102815381D01*
G37*
G36*
X132401913Y-102815381D02*
G01*
X132407370Y-102817641D01*
X132407373Y-102817642D01*
X132429777Y-102826922D01*
X132440804Y-102831490D01*
X132443510Y-102834196D01*
X132459619Y-102873087D01*
X132460000Y-102875000D01*
X132460000Y-103524289D01*
X132459619Y-103526202D01*
X132443510Y-103565093D01*
X132442427Y-103566716D01*
X132391716Y-103617427D01*
X132390093Y-103618510D01*
X132351202Y-103634619D01*
X132349289Y-103635000D01*
X132343379Y-103635000D01*
X132305910Y-103635000D01*
X132300000Y-103635000D01*
X132298087Y-103634619D01*
X132259196Y-103618510D01*
X132256490Y-103615804D01*
X132251922Y-103604777D01*
X132242642Y-103582373D01*
X132242641Y-103582370D01*
X132240381Y-103576913D01*
X132240000Y-103575000D01*
X132240000Y-102875000D01*
X132240381Y-102873087D01*
X132242641Y-102867630D01*
X132242642Y-102867626D01*
X132251922Y-102845222D01*
X132251923Y-102845220D01*
X132256490Y-102834196D01*
X132259196Y-102831490D01*
X132270220Y-102826923D01*
X132270222Y-102826922D01*
X132292626Y-102817642D01*
X132292630Y-102817641D01*
X132298087Y-102815381D01*
X132300000Y-102815000D01*
X132400000Y-102815000D01*
X132401913Y-102815381D01*
G37*
G36*
X131219134Y-102828806D02*
G01*
X131235355Y-102839645D01*
X131246194Y-102855866D01*
X131250000Y-102875000D01*
X131250000Y-103575000D01*
X131246194Y-103594134D01*
X131235355Y-103610355D01*
X131219134Y-103621194D01*
X131200000Y-103625000D01*
X131100000Y-103625000D01*
X131080866Y-103621194D01*
X131064645Y-103610355D01*
X131053806Y-103594134D01*
X131050000Y-103575000D01*
X131050000Y-102875000D01*
X131053806Y-102855866D01*
X131064645Y-102839645D01*
X131080866Y-102828806D01*
X131100000Y-102825000D01*
X131200000Y-102825000D01*
X131219134Y-102828806D01*
G37*
G36*
X131619134Y-102828806D02*
G01*
X131635355Y-102839645D01*
X131646194Y-102855866D01*
X131650000Y-102875000D01*
X131650000Y-103575000D01*
X131646194Y-103594134D01*
X131635355Y-103610355D01*
X131619134Y-103621194D01*
X131600000Y-103625000D01*
X131500000Y-103625000D01*
X131480866Y-103621194D01*
X131464645Y-103610355D01*
X131453806Y-103594134D01*
X131450000Y-103575000D01*
X131450000Y-102875000D01*
X131453806Y-102855866D01*
X131464645Y-102839645D01*
X131480866Y-102828806D01*
X131500000Y-102825000D01*
X131600000Y-102825000D01*
X131619134Y-102828806D01*
G37*
G36*
X132019134Y-102828806D02*
G01*
X132035355Y-102839645D01*
X132046194Y-102855866D01*
X132050000Y-102875000D01*
X132050000Y-103575000D01*
X132046194Y-103594134D01*
X132035355Y-103610355D01*
X132019134Y-103621194D01*
X132000000Y-103625000D01*
X131900000Y-103625000D01*
X131880866Y-103621194D01*
X131864645Y-103610355D01*
X131853806Y-103594134D01*
X131850000Y-103575000D01*
X131850000Y-102875000D01*
X131853806Y-102855866D01*
X131864645Y-102839645D01*
X131880866Y-102828806D01*
X131900000Y-102825000D01*
X132000000Y-102825000D01*
X132019134Y-102828806D01*
G37*
G36*
X120707403Y-102711418D02*
G01*
X120756066Y-102743934D01*
X120788582Y-102792597D01*
X120800000Y-102850000D01*
X120800000Y-103150000D01*
X120788582Y-103207403D01*
X120756066Y-103256066D01*
X120707403Y-103288582D01*
X120650000Y-103300000D01*
X119625000Y-103300000D01*
X119567597Y-103288582D01*
X119518934Y-103256066D01*
X119486418Y-103207403D01*
X119475000Y-103150000D01*
X119475000Y-102850000D01*
X119486418Y-102792597D01*
X119518934Y-102743934D01*
X119567597Y-102711418D01*
X119625000Y-102700000D01*
X120650000Y-102700000D01*
X120707403Y-102711418D01*
G37*
G36*
X118432403Y-101761418D02*
G01*
X118481066Y-101793934D01*
X118513582Y-101842597D01*
X118525000Y-101900000D01*
X118525000Y-102200000D01*
X118513582Y-102257403D01*
X118481066Y-102306066D01*
X118432403Y-102338582D01*
X118375000Y-102350000D01*
X117350000Y-102350000D01*
X117292597Y-102338582D01*
X117243934Y-102306066D01*
X117211418Y-102257403D01*
X117200000Y-102200000D01*
X117200000Y-101900000D01*
X117211418Y-101842597D01*
X117243934Y-101793934D01*
X117292597Y-101761418D01*
X117350000Y-101750000D01*
X118375000Y-101750000D01*
X118432403Y-101761418D01*
G37*
G36*
X120707403Y-101761418D02*
G01*
X120756066Y-101793934D01*
X120788582Y-101842597D01*
X120800000Y-101900000D01*
X120800000Y-102200000D01*
X120788582Y-102257403D01*
X120756066Y-102306066D01*
X120707403Y-102338582D01*
X120650000Y-102350000D01*
X119625000Y-102350000D01*
X119567597Y-102338582D01*
X119518934Y-102306066D01*
X119486418Y-102257403D01*
X119475000Y-102200000D01*
X119475000Y-101900000D01*
X119486418Y-101842597D01*
X119518934Y-101793934D01*
X119567597Y-101761418D01*
X119625000Y-101750000D01*
X120650000Y-101750000D01*
X120707403Y-101761418D01*
G37*
G36*
X118042350Y-99575964D02*
G01*
X118086817Y-99581123D01*
X118102010Y-99587831D01*
X118123604Y-99592127D01*
X118146722Y-99607574D01*
X118164067Y-99615233D01*
X118175912Y-99627078D01*
X118196599Y-99640901D01*
X118210421Y-99661587D01*
X118222266Y-99673432D01*
X118229923Y-99690774D01*
X118245373Y-99713896D01*
X118249668Y-99735491D01*
X118256376Y-99750682D01*
X118261533Y-99795139D01*
X118262500Y-99800000D01*
X118262500Y-100300000D01*
X118261532Y-100304862D01*
X118256376Y-100349317D01*
X118249668Y-100364506D01*
X118245373Y-100386104D01*
X118229922Y-100409227D01*
X118222266Y-100426567D01*
X118210423Y-100438409D01*
X118196599Y-100459099D01*
X118175909Y-100472923D01*
X118164067Y-100484766D01*
X118146727Y-100492422D01*
X118123604Y-100507873D01*
X118102006Y-100512168D01*
X118086817Y-100518876D01*
X118042361Y-100524032D01*
X118037500Y-100525000D01*
X117587500Y-100525000D01*
X117582638Y-100524033D01*
X117538182Y-100518876D01*
X117522991Y-100512168D01*
X117501396Y-100507873D01*
X117478274Y-100492423D01*
X117460932Y-100484766D01*
X117449087Y-100472921D01*
X117428401Y-100459099D01*
X117414578Y-100438412D01*
X117402733Y-100426567D01*
X117395074Y-100409222D01*
X117379627Y-100386104D01*
X117375331Y-100364510D01*
X117368623Y-100349317D01*
X117363464Y-100304849D01*
X117362500Y-100300000D01*
X117362500Y-99800000D01*
X117363464Y-99795150D01*
X117368623Y-99750682D01*
X117375332Y-99735487D01*
X117379627Y-99713896D01*
X117395073Y-99690779D01*
X117402733Y-99673432D01*
X117414580Y-99661584D01*
X117428401Y-99640901D01*
X117449084Y-99627080D01*
X117460932Y-99615233D01*
X117478279Y-99607573D01*
X117501396Y-99592127D01*
X117522987Y-99587832D01*
X117538182Y-99581123D01*
X117582651Y-99575964D01*
X117587500Y-99575000D01*
X118037500Y-99575000D01*
X118042350Y-99575964D01*
G37*
G36*
X119592350Y-99575964D02*
G01*
X119636817Y-99581123D01*
X119652010Y-99587831D01*
X119673604Y-99592127D01*
X119696722Y-99607574D01*
X119714067Y-99615233D01*
X119725912Y-99627078D01*
X119746599Y-99640901D01*
X119760421Y-99661587D01*
X119772266Y-99673432D01*
X119779923Y-99690774D01*
X119795373Y-99713896D01*
X119799668Y-99735491D01*
X119806376Y-99750682D01*
X119811533Y-99795139D01*
X119812500Y-99800000D01*
X119812500Y-100300000D01*
X119811532Y-100304862D01*
X119806376Y-100349317D01*
X119799668Y-100364506D01*
X119795373Y-100386104D01*
X119779922Y-100409227D01*
X119772266Y-100426567D01*
X119760423Y-100438409D01*
X119746599Y-100459099D01*
X119725909Y-100472923D01*
X119714067Y-100484766D01*
X119696727Y-100492422D01*
X119673604Y-100507873D01*
X119652006Y-100512168D01*
X119636817Y-100518876D01*
X119592361Y-100524032D01*
X119587500Y-100525000D01*
X119137500Y-100525000D01*
X119132638Y-100524033D01*
X119088182Y-100518876D01*
X119072991Y-100512168D01*
X119051396Y-100507873D01*
X119028274Y-100492423D01*
X119010932Y-100484766D01*
X118999087Y-100472921D01*
X118978401Y-100459099D01*
X118964578Y-100438412D01*
X118952733Y-100426567D01*
X118945074Y-100409222D01*
X118929627Y-100386104D01*
X118925331Y-100364510D01*
X118918623Y-100349317D01*
X118913464Y-100304849D01*
X118912500Y-100300000D01*
X118912500Y-99800000D01*
X118913464Y-99795150D01*
X118918623Y-99750682D01*
X118925332Y-99735487D01*
X118929627Y-99713896D01*
X118945073Y-99690779D01*
X118952733Y-99673432D01*
X118964580Y-99661584D01*
X118978401Y-99640901D01*
X118999084Y-99627080D01*
X119010932Y-99615233D01*
X119028279Y-99607573D01*
X119051396Y-99592127D01*
X119072987Y-99587832D01*
X119088182Y-99581123D01*
X119132651Y-99575964D01*
X119137500Y-99575000D01*
X119587500Y-99575000D01*
X119592350Y-99575964D01*
G37*
G36*
X129302403Y-98486418D02*
G01*
X129351066Y-98518934D01*
X129383582Y-98567597D01*
X129395000Y-98625000D01*
X129395000Y-100275000D01*
X129383582Y-100332403D01*
X129351066Y-100381066D01*
X129302403Y-100413582D01*
X129245000Y-100425000D01*
X128945000Y-100425000D01*
X128887597Y-100413582D01*
X128838934Y-100381066D01*
X128806418Y-100332403D01*
X128795000Y-100275000D01*
X128795000Y-98625000D01*
X128806418Y-98567597D01*
X128838934Y-98518934D01*
X128887597Y-98486418D01*
X128945000Y-98475000D01*
X129245000Y-98475000D01*
X129302403Y-98486418D01*
G37*
G36*
X130572403Y-98486418D02*
G01*
X130621066Y-98518934D01*
X130653582Y-98567597D01*
X130665000Y-98625000D01*
X130665000Y-100275000D01*
X130653582Y-100332403D01*
X130621066Y-100381066D01*
X130572403Y-100413582D01*
X130515000Y-100425000D01*
X130215000Y-100425000D01*
X130157597Y-100413582D01*
X130108934Y-100381066D01*
X130076418Y-100332403D01*
X130065000Y-100275000D01*
X130065000Y-98625000D01*
X130076418Y-98567597D01*
X130108934Y-98518934D01*
X130157597Y-98486418D01*
X130215000Y-98475000D01*
X130515000Y-98475000D01*
X130572403Y-98486418D01*
G37*
G36*
X131842403Y-98486418D02*
G01*
X131891066Y-98518934D01*
X131923582Y-98567597D01*
X131935000Y-98625000D01*
X131935000Y-100275000D01*
X131923582Y-100332403D01*
X131891066Y-100381066D01*
X131842403Y-100413582D01*
X131785000Y-100425000D01*
X131485000Y-100425000D01*
X131427597Y-100413582D01*
X131378934Y-100381066D01*
X131346418Y-100332403D01*
X131335000Y-100275000D01*
X131335000Y-98625000D01*
X131346418Y-98567597D01*
X131378934Y-98518934D01*
X131427597Y-98486418D01*
X131485000Y-98475000D01*
X131785000Y-98475000D01*
X131842403Y-98486418D01*
G37*
G36*
X133112403Y-98486418D02*
G01*
X133161066Y-98518934D01*
X133193582Y-98567597D01*
X133205000Y-98625000D01*
X133205000Y-100275000D01*
X133193582Y-100332403D01*
X133161066Y-100381066D01*
X133112403Y-100413582D01*
X133055000Y-100425000D01*
X132755000Y-100425000D01*
X132697597Y-100413582D01*
X132648934Y-100381066D01*
X132616418Y-100332403D01*
X132605000Y-100275000D01*
X132605000Y-98625000D01*
X132616418Y-98567597D01*
X132648934Y-98518934D01*
X132697597Y-98486418D01*
X132755000Y-98475000D01*
X133055000Y-98475000D01*
X133112403Y-98486418D01*
G37*
G36*
X125850000Y-100400000D02*
G01*
X124150000Y-100400000D01*
X124150000Y-98700000D01*
X125850000Y-98700000D01*
X125850000Y-100400000D01*
G37*
G36*
X125850000Y-96600000D02*
G01*
X124150000Y-96600000D01*
X124150000Y-94900000D01*
X125850000Y-94900000D01*
X125850000Y-96600000D01*
G37*
G36*
X119246742Y-94806601D02*
G01*
X119400687Y-94870367D01*
X119539234Y-94962941D01*
X119657059Y-95080766D01*
X119749633Y-95219313D01*
X119813399Y-95373258D01*
X119845907Y-95536685D01*
X119845907Y-95703315D01*
X119813399Y-95866742D01*
X119749633Y-96020687D01*
X119657059Y-96159234D01*
X119539234Y-96277059D01*
X119400687Y-96369633D01*
X119246742Y-96433399D01*
X119083315Y-96465907D01*
X118916685Y-96465907D01*
X118753258Y-96433399D01*
X118599313Y-96369633D01*
X118460766Y-96277059D01*
X118342941Y-96159234D01*
X118250367Y-96020687D01*
X118186601Y-95866742D01*
X118154093Y-95703315D01*
X118154093Y-95536685D01*
X118186601Y-95373258D01*
X118250367Y-95219313D01*
X118342941Y-95080766D01*
X118460766Y-94962941D01*
X118599313Y-94870367D01*
X118753258Y-94806601D01*
X118916685Y-94774093D01*
X119083315Y-94774093D01*
X119246742Y-94806601D01*
G37*
G36*
X129302403Y-93536418D02*
G01*
X129351066Y-93568934D01*
X129383582Y-93617597D01*
X129395000Y-93675000D01*
X129395000Y-95325000D01*
X129383582Y-95382403D01*
X129351066Y-95431066D01*
X129302403Y-95463582D01*
X129245000Y-95475000D01*
X128945000Y-95475000D01*
X128887597Y-95463582D01*
X128838934Y-95431066D01*
X128806418Y-95382403D01*
X128795000Y-95325000D01*
X128795000Y-93675000D01*
X128806418Y-93617597D01*
X128838934Y-93568934D01*
X128887597Y-93536418D01*
X128945000Y-93525000D01*
X129245000Y-93525000D01*
X129302403Y-93536418D01*
G37*
G36*
X130572403Y-93536418D02*
G01*
X130621066Y-93568934D01*
X130653582Y-93617597D01*
X130665000Y-93675000D01*
X130665000Y-95325000D01*
X130653582Y-95382403D01*
X130621066Y-95431066D01*
X130572403Y-95463582D01*
X130515000Y-95475000D01*
X130215000Y-95475000D01*
X130157597Y-95463582D01*
X130108934Y-95431066D01*
X130076418Y-95382403D01*
X130065000Y-95325000D01*
X130065000Y-93675000D01*
X130076418Y-93617597D01*
X130108934Y-93568934D01*
X130157597Y-93536418D01*
X130215000Y-93525000D01*
X130515000Y-93525000D01*
X130572403Y-93536418D01*
G37*
G36*
X131842403Y-93536418D02*
G01*
X131891066Y-93568934D01*
X131923582Y-93617597D01*
X131935000Y-93675000D01*
X131935000Y-95325000D01*
X131923582Y-95382403D01*
X131891066Y-95431066D01*
X131842403Y-95463582D01*
X131785000Y-95475000D01*
X131485000Y-95475000D01*
X131427597Y-95463582D01*
X131378934Y-95431066D01*
X131346418Y-95382403D01*
X131335000Y-95325000D01*
X131335000Y-93675000D01*
X131346418Y-93617597D01*
X131378934Y-93568934D01*
X131427597Y-93536418D01*
X131485000Y-93525000D01*
X131785000Y-93525000D01*
X131842403Y-93536418D01*
G37*
G36*
X133112403Y-93536418D02*
G01*
X133161066Y-93568934D01*
X133193582Y-93617597D01*
X133205000Y-93675000D01*
X133205000Y-95325000D01*
X133193582Y-95382403D01*
X133161066Y-95431066D01*
X133112403Y-95463582D01*
X133055000Y-95475000D01*
X132755000Y-95475000D01*
X132697597Y-95463582D01*
X132648934Y-95431066D01*
X132616418Y-95382403D01*
X132605000Y-95325000D01*
X132605000Y-93675000D01*
X132616418Y-93617597D01*
X132648934Y-93568934D01*
X132697597Y-93536418D01*
X132755000Y-93525000D01*
X133055000Y-93525000D01*
X133112403Y-93536418D01*
G37*
G36*
X119246742Y-92266601D02*
G01*
X119400687Y-92330367D01*
X119539234Y-92422941D01*
X119657059Y-92540766D01*
X119749633Y-92679313D01*
X119813399Y-92833258D01*
X119845907Y-92996685D01*
X119845907Y-93163315D01*
X119813399Y-93326742D01*
X119749633Y-93480687D01*
X119657059Y-93619234D01*
X119539234Y-93737059D01*
X119400687Y-93829633D01*
X119246742Y-93893399D01*
X119083315Y-93925907D01*
X118916685Y-93925907D01*
X118753258Y-93893399D01*
X118599313Y-93829633D01*
X118460766Y-93737059D01*
X118342941Y-93619234D01*
X118250367Y-93480687D01*
X118186601Y-93326742D01*
X118154093Y-93163315D01*
X118154093Y-92996685D01*
X118186601Y-92833258D01*
X118250367Y-92679313D01*
X118342941Y-92540766D01*
X118460766Y-92422941D01*
X118599313Y-92330367D01*
X118753258Y-92266601D01*
X118916685Y-92234093D01*
X119083315Y-92234093D01*
X119246742Y-92266601D01*
G37*
G36*
X129951537Y-90540224D02*
G01*
X130016421Y-90583579D01*
X130059776Y-90648463D01*
X130075000Y-90725000D01*
X130075000Y-91275000D01*
X130059776Y-91351537D01*
X130016421Y-91416421D01*
X129951537Y-91459776D01*
X129875000Y-91475000D01*
X129475000Y-91475000D01*
X129398463Y-91459776D01*
X129333579Y-91416421D01*
X129290224Y-91351537D01*
X129275000Y-91275000D01*
X129275000Y-90725000D01*
X129290224Y-90648463D01*
X129333579Y-90583579D01*
X129398463Y-90540224D01*
X129475000Y-90525000D01*
X129875000Y-90525000D01*
X129951537Y-90540224D01*
G37*
G36*
X131601537Y-90540224D02*
G01*
X131666421Y-90583579D01*
X131709776Y-90648463D01*
X131725000Y-90725000D01*
X131725000Y-91275000D01*
X131709776Y-91351537D01*
X131666421Y-91416421D01*
X131601537Y-91459776D01*
X131525000Y-91475000D01*
X131125000Y-91475000D01*
X131048463Y-91459776D01*
X130983579Y-91416421D01*
X130940224Y-91351537D01*
X130925000Y-91275000D01*
X130925000Y-90725000D01*
X130940224Y-90648463D01*
X130983579Y-90583579D01*
X131048463Y-90540224D01*
X131125000Y-90525000D01*
X131525000Y-90525000D01*
X131601537Y-90540224D01*
G37*
G36*
X119246742Y-89726601D02*
G01*
X119400687Y-89790367D01*
X119539234Y-89882941D01*
X119657059Y-90000766D01*
X119749633Y-90139313D01*
X119813399Y-90293258D01*
X119845907Y-90456685D01*
X119845907Y-90623315D01*
X119813399Y-90786742D01*
X119749633Y-90940687D01*
X119657059Y-91079234D01*
X119539234Y-91197059D01*
X119400687Y-91289633D01*
X119246742Y-91353399D01*
X119083315Y-91385907D01*
X118916685Y-91385907D01*
X118753258Y-91353399D01*
X118599313Y-91289633D01*
X118460766Y-91197059D01*
X118342941Y-91079234D01*
X118250367Y-90940687D01*
X118186601Y-90786742D01*
X118154093Y-90623315D01*
X118154093Y-90456685D01*
X118186601Y-90293258D01*
X118250367Y-90139313D01*
X118342941Y-90000766D01*
X118460766Y-89882941D01*
X118599313Y-89790367D01*
X118753258Y-89726601D01*
X118916685Y-89694093D01*
X119083315Y-89694093D01*
X119246742Y-89726601D01*
G37*
G36*
X125850000Y-90850000D02*
G01*
X124150000Y-90850000D01*
X124150000Y-89150000D01*
X125850000Y-89150000D01*
X125850000Y-90850000D01*
G37*
G36*
X129936100Y-88525964D02*
G01*
X129979136Y-88530957D01*
X129993840Y-88537449D01*
X130014962Y-88541651D01*
X130037576Y-88556761D01*
X130054285Y-88564139D01*
X130065696Y-88575550D01*
X130085930Y-88589070D01*
X130099449Y-88609303D01*
X130110860Y-88620714D01*
X130118237Y-88637421D01*
X130133349Y-88660038D01*
X130137550Y-88681161D01*
X130144042Y-88695863D01*
X130149033Y-88738889D01*
X130150000Y-88743750D01*
X130150000Y-89256250D01*
X130149032Y-89261112D01*
X130144042Y-89304136D01*
X130137551Y-89318836D01*
X130133349Y-89339962D01*
X130118235Y-89362580D01*
X130110860Y-89379285D01*
X130099451Y-89390693D01*
X130085930Y-89410930D01*
X130065693Y-89424451D01*
X130054285Y-89435860D01*
X130037580Y-89443235D01*
X130014962Y-89458349D01*
X129993836Y-89462551D01*
X129979136Y-89469042D01*
X129936111Y-89474032D01*
X129931250Y-89475000D01*
X129493750Y-89475000D01*
X129488888Y-89474032D01*
X129445863Y-89469042D01*
X129431161Y-89462550D01*
X129410038Y-89458349D01*
X129387421Y-89443237D01*
X129370714Y-89435860D01*
X129359303Y-89424449D01*
X129339070Y-89410930D01*
X129325550Y-89390696D01*
X129314139Y-89379285D01*
X129306761Y-89362576D01*
X129291651Y-89339962D01*
X129287449Y-89318840D01*
X129280957Y-89304136D01*
X129275964Y-89261099D01*
X129275000Y-89256250D01*
X129275000Y-88743750D01*
X129275964Y-88738900D01*
X129280957Y-88695863D01*
X129287450Y-88681157D01*
X129291651Y-88660038D01*
X129306759Y-88637425D01*
X129314139Y-88620714D01*
X129325552Y-88609300D01*
X129339070Y-88589070D01*
X129359300Y-88575552D01*
X129370714Y-88564139D01*
X129387425Y-88556759D01*
X129410038Y-88541651D01*
X129431157Y-88537450D01*
X129445863Y-88530957D01*
X129488901Y-88525964D01*
X129493750Y-88525000D01*
X129931250Y-88525000D01*
X129936100Y-88525964D01*
G37*
G36*
X131511100Y-88525964D02*
G01*
X131554136Y-88530957D01*
X131568840Y-88537449D01*
X131589962Y-88541651D01*
X131612576Y-88556761D01*
X131629285Y-88564139D01*
X131640696Y-88575550D01*
X131660930Y-88589070D01*
X131674449Y-88609303D01*
X131685860Y-88620714D01*
X131693237Y-88637421D01*
X131708349Y-88660038D01*
X131712550Y-88681161D01*
X131719042Y-88695863D01*
X131724033Y-88738889D01*
X131725000Y-88743750D01*
X131725000Y-89256250D01*
X131724032Y-89261112D01*
X131719042Y-89304136D01*
X131712551Y-89318836D01*
X131708349Y-89339962D01*
X131693235Y-89362580D01*
X131685860Y-89379285D01*
X131674451Y-89390693D01*
X131660930Y-89410930D01*
X131640693Y-89424451D01*
X131629285Y-89435860D01*
X131612580Y-89443235D01*
X131589962Y-89458349D01*
X131568836Y-89462551D01*
X131554136Y-89469042D01*
X131511111Y-89474032D01*
X131506250Y-89475000D01*
X131068750Y-89475000D01*
X131063888Y-89474032D01*
X131020863Y-89469042D01*
X131006161Y-89462550D01*
X130985038Y-89458349D01*
X130962421Y-89443237D01*
X130945714Y-89435860D01*
X130934303Y-89424449D01*
X130914070Y-89410930D01*
X130900550Y-89390696D01*
X130889139Y-89379285D01*
X130881761Y-89362576D01*
X130866651Y-89339962D01*
X130862449Y-89318840D01*
X130855957Y-89304136D01*
X130850964Y-89261099D01*
X130850000Y-89256250D01*
X130850000Y-88743750D01*
X130850964Y-88738900D01*
X130855957Y-88695863D01*
X130862450Y-88681157D01*
X130866651Y-88660038D01*
X130881759Y-88637425D01*
X130889139Y-88620714D01*
X130900552Y-88609300D01*
X130914070Y-88589070D01*
X130934300Y-88575552D01*
X130945714Y-88564139D01*
X130962425Y-88556759D01*
X130985038Y-88541651D01*
X131006157Y-88537450D01*
X131020863Y-88530957D01*
X131063901Y-88525964D01*
X131068750Y-88525000D01*
X131506250Y-88525000D01*
X131511100Y-88525964D01*
G37*
G36*
X119850000Y-88850000D02*
G01*
X118150000Y-88850000D01*
X118150000Y-87150000D01*
X119850000Y-87150000D01*
X119850000Y-88850000D01*
G37*
G36*
X128851537Y-82440224D02*
G01*
X128916421Y-82483579D01*
X128959776Y-82548463D01*
X128975000Y-82625000D01*
X128975000Y-83025000D01*
X128959776Y-83101537D01*
X128916421Y-83166421D01*
X128851537Y-83209776D01*
X128775000Y-83225000D01*
X128225000Y-83225000D01*
X128148463Y-83209776D01*
X128083579Y-83166421D01*
X128040224Y-83101537D01*
X128025000Y-83025000D01*
X128025000Y-82625000D01*
X128040224Y-82548463D01*
X128083579Y-82483579D01*
X128148463Y-82440224D01*
X128225000Y-82425000D01*
X128775000Y-82425000D01*
X128851537Y-82440224D01*
G37*
G36*
X125754850Y-82275964D02*
G01*
X125799317Y-82281123D01*
X125814510Y-82287831D01*
X125836104Y-82292127D01*
X125859222Y-82307574D01*
X125876567Y-82315233D01*
X125888412Y-82327078D01*
X125909099Y-82340901D01*
X125922921Y-82361587D01*
X125934766Y-82373432D01*
X125942423Y-82390774D01*
X125957873Y-82413896D01*
X125962168Y-82435491D01*
X125968876Y-82450682D01*
X125974033Y-82495139D01*
X125975000Y-82500000D01*
X125975000Y-82950000D01*
X125974032Y-82954862D01*
X125968876Y-82999317D01*
X125962168Y-83014506D01*
X125957873Y-83036104D01*
X125942422Y-83059227D01*
X125934766Y-83076567D01*
X125922923Y-83088409D01*
X125909099Y-83109099D01*
X125888409Y-83122923D01*
X125876567Y-83134766D01*
X125859227Y-83142422D01*
X125836104Y-83157873D01*
X125814506Y-83162168D01*
X125799317Y-83168876D01*
X125754861Y-83174032D01*
X125750000Y-83175000D01*
X125250000Y-83175000D01*
X125245138Y-83174033D01*
X125200682Y-83168876D01*
X125185491Y-83162168D01*
X125163896Y-83157873D01*
X125140774Y-83142423D01*
X125123432Y-83134766D01*
X125111587Y-83122921D01*
X125090901Y-83109099D01*
X125077078Y-83088412D01*
X125065233Y-83076567D01*
X125057574Y-83059222D01*
X125042127Y-83036104D01*
X125037831Y-83014510D01*
X125031123Y-82999317D01*
X125025964Y-82954849D01*
X125025000Y-82950000D01*
X125025000Y-82500000D01*
X125025964Y-82495150D01*
X125031123Y-82450682D01*
X125037832Y-82435487D01*
X125042127Y-82413896D01*
X125057573Y-82390779D01*
X125065233Y-82373432D01*
X125077080Y-82361584D01*
X125090901Y-82340901D01*
X125111584Y-82327080D01*
X125123432Y-82315233D01*
X125140779Y-82307573D01*
X125163896Y-82292127D01*
X125185487Y-82287832D01*
X125200682Y-82281123D01*
X125245151Y-82275964D01*
X125250000Y-82275000D01*
X125750000Y-82275000D01*
X125754850Y-82275964D01*
G37*
G36*
X119810000Y-82800000D02*
G01*
X118110000Y-82800000D01*
X118110000Y-81100000D01*
X119810000Y-81100000D01*
X119810000Y-82800000D01*
G37*
G36*
X121746742Y-81136601D02*
G01*
X121900687Y-81200367D01*
X122039234Y-81292941D01*
X122157059Y-81410766D01*
X122249633Y-81549313D01*
X122313399Y-81703258D01*
X122345907Y-81866685D01*
X122345907Y-82033315D01*
X122313399Y-82196742D01*
X122249633Y-82350687D01*
X122157059Y-82489234D01*
X122039234Y-82607059D01*
X121900687Y-82699633D01*
X121746742Y-82763399D01*
X121583315Y-82795907D01*
X121416685Y-82795907D01*
X121253258Y-82763399D01*
X121099313Y-82699633D01*
X120960766Y-82607059D01*
X120842941Y-82489234D01*
X120750367Y-82350687D01*
X120686601Y-82196742D01*
X120654093Y-82033315D01*
X120654093Y-81866685D01*
X120686601Y-81703258D01*
X120750367Y-81549313D01*
X120842941Y-81410766D01*
X120960766Y-81292941D01*
X121099313Y-81200367D01*
X121253258Y-81136601D01*
X121416685Y-81104093D01*
X121583315Y-81104093D01*
X121746742Y-81136601D01*
G37*
G36*
X125754850Y-80725964D02*
G01*
X125799317Y-80731123D01*
X125814510Y-80737831D01*
X125836104Y-80742127D01*
X125859222Y-80757574D01*
X125876567Y-80765233D01*
X125888412Y-80777078D01*
X125909099Y-80790901D01*
X125922921Y-80811587D01*
X125934766Y-80823432D01*
X125942423Y-80840774D01*
X125957873Y-80863896D01*
X125962168Y-80885491D01*
X125968876Y-80900682D01*
X125974033Y-80945139D01*
X125975000Y-80950000D01*
X125975000Y-81400000D01*
X125974032Y-81404862D01*
X125968876Y-81449317D01*
X125962168Y-81464506D01*
X125957873Y-81486104D01*
X125942422Y-81509227D01*
X125934766Y-81526567D01*
X125922923Y-81538409D01*
X125909099Y-81559099D01*
X125888409Y-81572923D01*
X125876567Y-81584766D01*
X125859227Y-81592422D01*
X125836104Y-81607873D01*
X125814506Y-81612168D01*
X125799317Y-81618876D01*
X125754861Y-81624032D01*
X125750000Y-81625000D01*
X125250000Y-81625000D01*
X125245138Y-81624033D01*
X125200682Y-81618876D01*
X125185491Y-81612168D01*
X125163896Y-81607873D01*
X125140774Y-81592423D01*
X125123432Y-81584766D01*
X125111587Y-81572921D01*
X125090901Y-81559099D01*
X125077078Y-81538412D01*
X125065233Y-81526567D01*
X125057574Y-81509222D01*
X125042127Y-81486104D01*
X125037831Y-81464510D01*
X125031123Y-81449317D01*
X125025964Y-81404849D01*
X125025000Y-81400000D01*
X125025000Y-80950000D01*
X125025964Y-80945150D01*
X125031123Y-80900682D01*
X125037832Y-80885487D01*
X125042127Y-80863896D01*
X125057573Y-80840779D01*
X125065233Y-80823432D01*
X125077080Y-80811584D01*
X125090901Y-80790901D01*
X125111584Y-80777080D01*
X125123432Y-80765233D01*
X125140779Y-80757573D01*
X125163896Y-80742127D01*
X125185487Y-80737832D01*
X125200682Y-80731123D01*
X125245151Y-80725964D01*
X125250000Y-80725000D01*
X125750000Y-80725000D01*
X125754850Y-80725964D01*
G37*
G36*
X128851537Y-80790224D02*
G01*
X128916421Y-80833579D01*
X128959776Y-80898463D01*
X128975000Y-80975000D01*
X128975000Y-81375000D01*
X128959776Y-81451537D01*
X128916421Y-81516421D01*
X128851537Y-81559776D01*
X128775000Y-81575000D01*
X128225000Y-81575000D01*
X128148463Y-81559776D01*
X128083579Y-81516421D01*
X128040224Y-81451537D01*
X128025000Y-81375000D01*
X128025000Y-80975000D01*
X128040224Y-80898463D01*
X128083579Y-80833579D01*
X128148463Y-80790224D01*
X128225000Y-80775000D01*
X128775000Y-80775000D01*
X128851537Y-80790224D01*
G37*
M02*
