%TF.GenerationSoftware,KiCad,Pcbnew,10.0.5*%
%TF.CreationDate,2026-08-22T22:05:40-07:00*%
%TF.ProjectId,bus-board-8-module,6275732d-626f-4617-9264-2d382d6d6f64,rev?*%
%TF.SameCoordinates,Original*%
%TF.FileFunction,Copper,L1,Top*%
%TF.FilePolarity,Positive*%
%FSLAX46Y46*%
G04 Gerber Fmt 4.6, Leading zero omitted, Abs format (unit mm)*
G04 Created by KiCad (PCBNEW 10.0.5) date 2026-08-22 22:05:40*
%MOMM*%
%LPD*%
G01*
G04 APERTURE LIST*
G04 Aperture macros list*
%AMRoundRect*
0 Rectangle with rounded corners*
0 $1 Rounding radius*
0 $2 $3 $4 $5 $6 $7 $8 $9 X,Y pos of 4 corners*
0 Add a 4 corners polygon primitive as box body*
4,1,4,$2,$3,$4,$5,$6,$7,$8,$9,$2,$3,0*
0 Add four circle primitives for the rounded corners*
1,1,$1+$1,$2,$3*
1,1,$1+$1,$4,$5*
1,1,$1+$1,$6,$7*
1,1,$1+$1,$8,$9*
0 Add four rect primitives between the rounded corners*
20,1,$1+$1,$2,$3,$4,$5,0*
20,1,$1+$1,$4,$5,$6,$7,0*
20,1,$1+$1,$6,$7,$8,$9,0*
20,1,$1+$1,$8,$9,$2,$3,0*%
G04 Aperture macros list end*
%TA.AperFunction,ComponentPad*%
%ADD10R,1.700000X1.700000*%
%TD*%
%TA.AperFunction,ComponentPad*%
%ADD11C,1.700000*%
%TD*%
%TA.AperFunction,SMDPad,CuDef*%
%ADD12RoundRect,0.385000X-76.115000X-2.865000X76.115000X-2.865000X76.115000X2.865000X-76.115000X2.865000X0*%
%TD*%
%TA.AperFunction,SMDPad,CuDef*%
%ADD13RoundRect,0.375000X-76.125000X-2.875000X76.125000X-2.875000X76.125000X2.875000X-76.125000X2.875000X0*%
%TD*%
%TA.AperFunction,SMDPad,CuDef*%
%ADD14RoundRect,0.375000X-76.125000X-0.875000X76.125000X-0.875000X76.125000X0.875000X-76.125000X0.875000X0*%
%TD*%
%TA.AperFunction,Conductor*%
%ADD15C,1.000000*%
%TD*%
G04 APERTURE END LIST*
D10*
%TO.P,J1,1,Pin_1_1*%
%TO.N,Net-(J1-Pin_1)*%
X22000000Y-30810000D03*
D11*
%TO.P,J1,2,Pin_2_2*%
%TO.N,Net-(J1-Pin_2)*%
X22000000Y-28270000D03*
%TO.P,J1,3,Pin_3_3*%
%TO.N,Net-(J1-Pin_3)*%
X22000000Y-25730000D03*
%TO.P,J1,4,Pin_4_4*%
%TO.N,Net-(J1-Pin_4)*%
X22000000Y-23190000D03*
%TD*%
D10*
%TO.P,J2,1,Pin_1_1*%
%TO.N,Net-(J1-Pin_1)*%
X330000000Y-30810000D03*
D11*
%TO.P,J2,2,Pin_2_2*%
%TO.N,Net-(J1-Pin_2)*%
X330000000Y-28270000D03*
%TO.P,J2,3,Pin_3_3*%
%TO.N,Net-(J1-Pin_3)*%
X330000000Y-25730000D03*
%TO.P,J2,4,Pin_4_4*%
%TO.N,Net-(J1-Pin_4)*%
X330000000Y-23190000D03*
%TD*%
D12*
%TO.P,J3,1,Pin_1_1*%
%TO.N,Net-(J1-Pin_1)*%
X100500000Y-34550000D03*
D13*
X251500000Y-34550000D03*
D14*
%TO.P,J3,2,Pin_2_2*%
%TO.N,Net-(J1-Pin_2)*%
X100500000Y-28850000D03*
X251500000Y-28850000D03*
%TO.P,J3,3,Pin_3_3*%
%TO.N,Net-(J1-Pin_3)*%
X100500000Y-25150000D03*
X251500000Y-25150000D03*
D13*
%TO.P,J3,4,Pin_4_4*%
%TO.N,Net-(J1-Pin_4)*%
X100500000Y-19450000D03*
X251500000Y-19450000D03*
%TD*%
%TO.N,Net-(J1-Pin_1)*%
D15*
X330000000Y-30810000D02*
X330000000Y-31500000D01*
X25300000Y-34550000D02*
X100500000Y-34550000D01*
X330000000Y-31500000D02*
X326950000Y-34550000D01*
X326950000Y-34550000D02*
X251500000Y-34550000D01*
X22000000Y-30810000D02*
X22000000Y-31250000D01*
X22000000Y-31250000D02*
X25300000Y-34550000D01*
%TO.N,Net-(J1-Pin_2)*%
X252080000Y-28270000D02*
X251500000Y-28850000D01*
X22000000Y-28270000D02*
X99920000Y-28270000D01*
X99920000Y-28270000D02*
X100500000Y-28850000D01*
X330000000Y-28270000D02*
X252080000Y-28270000D01*
%TO.N,Net-(J1-Pin_3)*%
X330000000Y-25730000D02*
X252080000Y-25730000D01*
X99920000Y-25730000D02*
X100500000Y-25150000D01*
X252080000Y-25730000D02*
X251500000Y-25150000D01*
X22000000Y-25730000D02*
X99920000Y-25730000D01*
%TO.N,Net-(J1-Pin_4)*%
X330000000Y-23190000D02*
X326260000Y-19450000D01*
X326260000Y-19450000D02*
X251500000Y-19450000D01*
X22000000Y-23190000D02*
X25740000Y-19450000D01*
X25740000Y-19450000D02*
X100500000Y-19450000D01*
%TD*%
%TA.AperFunction,Conductor*%
%TO.N,Net-(J1-Pin_1)*%
G36*
X24007086Y-31845247D02*
G01*
X24008115Y-31846424D01*
X28504714Y-37740857D01*
X28507008Y-37749513D01*
X28502508Y-37757255D01*
X28493852Y-37759549D01*
X28488774Y-37757587D01*
X24002087Y-34665652D01*
X23998696Y-34662041D01*
X22944038Y-32904278D01*
X22942721Y-32895422D01*
X22945797Y-32889989D01*
X23646447Y-32189340D01*
X23990541Y-31845246D01*
X23998813Y-31841820D01*
X24007086Y-31845247D01*
G37*
%TD.AperFunction*%
%TD*%
%TA.AperFunction,Conductor*%
%TO.N,Net-(J1-Pin_1)*%
G36*
X328008285Y-32094234D02*
G01*
X328009523Y-32095310D01*
X329054200Y-33139987D01*
X329057627Y-33148260D01*
X329055960Y-33154280D01*
X328001343Y-34911974D01*
X327997830Y-34915669D01*
X323758223Y-37760696D01*
X323749443Y-37762461D01*
X323741988Y-37757501D01*
X323740223Y-37748721D01*
X323742354Y-37743946D01*
X327991903Y-32096546D01*
X327999614Y-32091998D01*
X328008285Y-32094234D01*
G37*
%TD.AperFunction*%
%TD*%
%TA.AperFunction,Conductor*%
%TO.N,Net-(J1-Pin_2)*%
G36*
X99431187Y-28260584D02*
G01*
X99439430Y-28264084D01*
X99442784Y-28272387D01*
X99439284Y-28280630D01*
X99431237Y-28283983D01*
X24002842Y-29269962D01*
X23997457Y-29268728D01*
X23006468Y-28773234D01*
X23000600Y-28766469D01*
X23000000Y-28762769D01*
X23000000Y-27780342D01*
X23003427Y-27772069D01*
X23010261Y-27768731D01*
X24374245Y-27600093D01*
X24375759Y-27600006D01*
X99431187Y-28260584D01*
G37*
%TD.AperFunction*%
%TD*%
%TA.AperFunction,Conductor*%
%TO.N,Net-(J1-Pin_3)*%
G36*
X328002542Y-24731271D02*
G01*
X328993532Y-25226766D01*
X328999400Y-25233531D01*
X329000000Y-25237231D01*
X329000000Y-26219657D01*
X328996573Y-26227930D01*
X328989736Y-26231269D01*
X327625766Y-26399905D01*
X327624227Y-26399993D01*
X252568812Y-25739415D01*
X252560569Y-25735915D01*
X252557215Y-25727612D01*
X252560715Y-25719369D01*
X252568761Y-25716016D01*
X327997157Y-24730037D01*
X328002542Y-24731271D01*
G37*
%TD.AperFunction*%
%TD*%
%TA.AperFunction,Conductor*%
%TO.N,Net-(J1-Pin_2)*%
G36*
X327625755Y-27600093D02*
G01*
X328989738Y-27768731D01*
X328997526Y-27773146D01*
X329000000Y-27780342D01*
X329000000Y-28762769D01*
X328996573Y-28771042D01*
X328993532Y-28773234D01*
X328002542Y-29268728D01*
X327997157Y-29269962D01*
X252568762Y-28283983D01*
X252560534Y-28280448D01*
X252557216Y-28272131D01*
X252560751Y-28263903D01*
X252568811Y-28260584D01*
X327624239Y-27600006D01*
X327625755Y-27600093D01*
G37*
%TD.AperFunction*%
%TD*%
%TA.AperFunction,Conductor*%
%TO.N,Net-(J1-Pin_4)*%
G36*
X323076154Y-16247603D02*
G01*
X323099445Y-16264292D01*
X327998028Y-19774373D01*
X328001246Y-19777863D01*
X329055960Y-21535719D01*
X329057278Y-21544577D01*
X329054200Y-21550012D01*
X328354331Y-22249881D01*
X328352646Y-22251277D01*
X327942066Y-22531006D01*
X327933299Y-22532832D01*
X327926238Y-22528515D01*
X327710396Y-22250660D01*
X323060101Y-16264292D01*
X323057732Y-16255656D01*
X323062163Y-16247874D01*
X323070799Y-16245505D01*
X323076154Y-16247603D01*
G37*
%TD.AperFunction*%
%TD*%
%TA.AperFunction,Conductor*%
%TO.N,Net-(J1-Pin_4)*%
G36*
X28940168Y-16250299D02*
G01*
X28942202Y-16259020D01*
X28939898Y-16264292D01*
X24073760Y-22528516D01*
X24065978Y-22532947D01*
X24057932Y-22531007D01*
X23647353Y-22251277D01*
X23645668Y-22249881D01*
X22945799Y-21550012D01*
X22942372Y-21541739D01*
X22944037Y-21535723D01*
X23998755Y-19777861D01*
X24001969Y-19774376D01*
X28923845Y-16247603D01*
X28932564Y-16245570D01*
X28940168Y-16250299D01*
G37*
%TD.AperFunction*%
%TD*%
%TA.AperFunction,Conductor*%
%TO.N,Net-(J1-Pin_3)*%
G36*
X99431237Y-25716016D02*
G01*
X99439465Y-25719551D01*
X99442783Y-25727868D01*
X99439248Y-25736096D01*
X99431187Y-25739415D01*
X24375772Y-26399993D01*
X24374233Y-26399905D01*
X23010264Y-26231269D01*
X23002474Y-26226853D01*
X23000000Y-26219657D01*
X23000000Y-25237231D01*
X23003427Y-25228958D01*
X23006468Y-25226766D01*
X23997458Y-24731270D01*
X24002841Y-24730037D01*
X99431237Y-25716016D01*
G37*
%TD.AperFunction*%
%TD*%
M02*
