%TF.GenerationSoftware,KiCad,Pcbnew,10.0.5*%
%TF.CreationDate,2026-08-22T22:05:40-07:00*%
%TF.ProjectId,bus-board-8-module,6275732d-626f-4617-9264-2d382d6d6f64,rev?*%
%TF.SameCoordinates,Original*%
%TF.FileFunction,Legend,Top*%
%TF.FilePolarity,Positive*%
%FSLAX46Y46*%
G04 Gerber Fmt 4.6, Leading zero omitted, Abs format (unit mm)*
G04 Created by KiCad (PCBNEW 10.0.5) date 2026-08-22 22:05:40*
%MOMM*%
%LPD*%
G01*
G04 APERTURE LIST*
G04 Aperture macros list*
%AMRoundRect*
0 Rectangle with rounded corners*
0 $1 Rounding radius*
0 $2 $3 $4 $5 $6 $7 $8 $9 X,Y pos of 4 corners*
0 Add a 4 corners polygon primitive as box body*
4,1,4,$2,$3,$4,$5,$6,$7,$8,$9,$2,$3,0*
0 Add four circle primitives for the rounded corners*
1,1,$1+$1,$2,$3*
1,1,$1+$1,$4,$5*
1,1,$1+$1,$6,$7*
1,1,$1+$1,$8,$9*
0 Add four rect primitives between the rounded corners*
20,1,$1+$1,$2,$3,$4,$5,0*
20,1,$1+$1,$4,$5,$6,$7,0*
20,1,$1+$1,$6,$7,$8,$9,0*
20,1,$1+$1,$8,$9,$2,$3,0*%
G04 Aperture macros list end*
%ADD10C,0.100000*%
%ADD11C,0.120000*%
%ADD12R,1.700000X1.700000*%
%ADD13C,1.700000*%
%ADD14RoundRect,0.385000X-76.115000X-2.865000X76.115000X-2.865000X76.115000X2.865000X-76.115000X2.865000X0*%
%ADD15RoundRect,0.375000X-76.125000X-2.875000X76.125000X-2.875000X76.125000X2.875000X-76.125000X2.875000X0*%
%ADD16RoundRect,0.375000X-76.125000X-0.875000X76.125000X-0.875000X76.125000X0.875000X-76.125000X0.875000X0*%
G04 APERTURE END LIST*
D10*
X18077693Y-22670038D02*
X17982455Y-22622419D01*
X17982455Y-22622419D02*
X17839598Y-22622419D01*
X17839598Y-22622419D02*
X17696741Y-22670038D01*
X17696741Y-22670038D02*
X17601503Y-22765276D01*
X17601503Y-22765276D02*
X17553884Y-22860514D01*
X17553884Y-22860514D02*
X17506265Y-23050990D01*
X17506265Y-23050990D02*
X17506265Y-23193847D01*
X17506265Y-23193847D02*
X17553884Y-23384323D01*
X17553884Y-23384323D02*
X17601503Y-23479561D01*
X17601503Y-23479561D02*
X17696741Y-23574800D01*
X17696741Y-23574800D02*
X17839598Y-23622419D01*
X17839598Y-23622419D02*
X17934836Y-23622419D01*
X17934836Y-23622419D02*
X18077693Y-23574800D01*
X18077693Y-23574800D02*
X18125312Y-23527180D01*
X18125312Y-23527180D02*
X18125312Y-23193847D01*
X18125312Y-23193847D02*
X17934836Y-23193847D01*
X18553884Y-23622419D02*
X18553884Y-22622419D01*
X18553884Y-22622419D02*
X19125312Y-23622419D01*
X19125312Y-23622419D02*
X19125312Y-22622419D01*
X19601503Y-23622419D02*
X19601503Y-22622419D01*
X19601503Y-22622419D02*
X19839598Y-22622419D01*
X19839598Y-22622419D02*
X19982455Y-22670038D01*
X19982455Y-22670038D02*
X20077693Y-22765276D01*
X20077693Y-22765276D02*
X20125312Y-22860514D01*
X20125312Y-22860514D02*
X20172931Y-23050990D01*
X20172931Y-23050990D02*
X20172931Y-23193847D01*
X20172931Y-23193847D02*
X20125312Y-23384323D01*
X20125312Y-23384323D02*
X20077693Y-23479561D01*
X20077693Y-23479561D02*
X19982455Y-23574800D01*
X19982455Y-23574800D02*
X19839598Y-23622419D01*
X19839598Y-23622419D02*
X19601503Y-23622419D01*
X19030074Y-30372419D02*
X18553884Y-30372419D01*
X18553884Y-30372419D02*
X18506265Y-30848609D01*
X18506265Y-30848609D02*
X18553884Y-30800990D01*
X18553884Y-30800990D02*
X18649122Y-30753371D01*
X18649122Y-30753371D02*
X18887217Y-30753371D01*
X18887217Y-30753371D02*
X18982455Y-30800990D01*
X18982455Y-30800990D02*
X19030074Y-30848609D01*
X19030074Y-30848609D02*
X19077693Y-30943847D01*
X19077693Y-30943847D02*
X19077693Y-31181942D01*
X19077693Y-31181942D02*
X19030074Y-31277180D01*
X19030074Y-31277180D02*
X18982455Y-31324800D01*
X18982455Y-31324800D02*
X18887217Y-31372419D01*
X18887217Y-31372419D02*
X18649122Y-31372419D01*
X18649122Y-31372419D02*
X18553884Y-31324800D01*
X18553884Y-31324800D02*
X18506265Y-31277180D01*
X19363408Y-30372419D02*
X19696741Y-31372419D01*
X19696741Y-31372419D02*
X20030074Y-30372419D01*
X19887217Y-25598609D02*
X20030074Y-25646228D01*
X20030074Y-25646228D02*
X20077693Y-25693847D01*
X20077693Y-25693847D02*
X20125312Y-25789085D01*
X20125312Y-25789085D02*
X20125312Y-25931942D01*
X20125312Y-25931942D02*
X20077693Y-26027180D01*
X20077693Y-26027180D02*
X20030074Y-26074800D01*
X20030074Y-26074800D02*
X19934836Y-26122419D01*
X19934836Y-26122419D02*
X19553884Y-26122419D01*
X19553884Y-26122419D02*
X19553884Y-25122419D01*
X19553884Y-25122419D02*
X19887217Y-25122419D01*
X19887217Y-25122419D02*
X19982455Y-25170038D01*
X19982455Y-25170038D02*
X20030074Y-25217657D01*
X20030074Y-25217657D02*
X20077693Y-25312895D01*
X20077693Y-25312895D02*
X20077693Y-25408133D01*
X20077693Y-25408133D02*
X20030074Y-25503371D01*
X20030074Y-25503371D02*
X19982455Y-25550990D01*
X19982455Y-25550990D02*
X19887217Y-25598609D01*
X19887217Y-25598609D02*
X19553884Y-25598609D01*
X19506265Y-28336704D02*
X19982455Y-28336704D01*
X19411027Y-28622419D02*
X19744360Y-27622419D01*
X19744360Y-27622419D02*
X20077693Y-28622419D01*
X332327693Y-22670038D02*
X332232455Y-22622419D01*
X332232455Y-22622419D02*
X332089598Y-22622419D01*
X332089598Y-22622419D02*
X331946741Y-22670038D01*
X331946741Y-22670038D02*
X331851503Y-22765276D01*
X331851503Y-22765276D02*
X331803884Y-22860514D01*
X331803884Y-22860514D02*
X331756265Y-23050990D01*
X331756265Y-23050990D02*
X331756265Y-23193847D01*
X331756265Y-23193847D02*
X331803884Y-23384323D01*
X331803884Y-23384323D02*
X331851503Y-23479561D01*
X331851503Y-23479561D02*
X331946741Y-23574800D01*
X331946741Y-23574800D02*
X332089598Y-23622419D01*
X332089598Y-23622419D02*
X332184836Y-23622419D01*
X332184836Y-23622419D02*
X332327693Y-23574800D01*
X332327693Y-23574800D02*
X332375312Y-23527180D01*
X332375312Y-23527180D02*
X332375312Y-23193847D01*
X332375312Y-23193847D02*
X332184836Y-23193847D01*
X332803884Y-23622419D02*
X332803884Y-22622419D01*
X332803884Y-22622419D02*
X333375312Y-23622419D01*
X333375312Y-23622419D02*
X333375312Y-22622419D01*
X333851503Y-23622419D02*
X333851503Y-22622419D01*
X333851503Y-22622419D02*
X334089598Y-22622419D01*
X334089598Y-22622419D02*
X334232455Y-22670038D01*
X334232455Y-22670038D02*
X334327693Y-22765276D01*
X334327693Y-22765276D02*
X334375312Y-22860514D01*
X334375312Y-22860514D02*
X334422931Y-23050990D01*
X334422931Y-23050990D02*
X334422931Y-23193847D01*
X334422931Y-23193847D02*
X334375312Y-23384323D01*
X334375312Y-23384323D02*
X334327693Y-23479561D01*
X334327693Y-23479561D02*
X334232455Y-23574800D01*
X334232455Y-23574800D02*
X334089598Y-23622419D01*
X334089598Y-23622419D02*
X333851503Y-23622419D01*
X332387217Y-25598609D02*
X332530074Y-25646228D01*
X332530074Y-25646228D02*
X332577693Y-25693847D01*
X332577693Y-25693847D02*
X332625312Y-25789085D01*
X332625312Y-25789085D02*
X332625312Y-25931942D01*
X332625312Y-25931942D02*
X332577693Y-26027180D01*
X332577693Y-26027180D02*
X332530074Y-26074800D01*
X332530074Y-26074800D02*
X332434836Y-26122419D01*
X332434836Y-26122419D02*
X332053884Y-26122419D01*
X332053884Y-26122419D02*
X332053884Y-25122419D01*
X332053884Y-25122419D02*
X332387217Y-25122419D01*
X332387217Y-25122419D02*
X332482455Y-25170038D01*
X332482455Y-25170038D02*
X332530074Y-25217657D01*
X332530074Y-25217657D02*
X332577693Y-25312895D01*
X332577693Y-25312895D02*
X332577693Y-25408133D01*
X332577693Y-25408133D02*
X332530074Y-25503371D01*
X332530074Y-25503371D02*
X332482455Y-25550990D01*
X332482455Y-25550990D02*
X332387217Y-25598609D01*
X332387217Y-25598609D02*
X332053884Y-25598609D01*
X332006265Y-28336704D02*
X332482455Y-28336704D01*
X331911027Y-28622419D02*
X332244360Y-27622419D01*
X332244360Y-27622419D02*
X332577693Y-28622419D01*
X332530074Y-30372419D02*
X332053884Y-30372419D01*
X332053884Y-30372419D02*
X332006265Y-30848609D01*
X332006265Y-30848609D02*
X332053884Y-30800990D01*
X332053884Y-30800990D02*
X332149122Y-30753371D01*
X332149122Y-30753371D02*
X332387217Y-30753371D01*
X332387217Y-30753371D02*
X332482455Y-30800990D01*
X332482455Y-30800990D02*
X332530074Y-30848609D01*
X332530074Y-30848609D02*
X332577693Y-30943847D01*
X332577693Y-30943847D02*
X332577693Y-31181942D01*
X332577693Y-31181942D02*
X332530074Y-31277180D01*
X332530074Y-31277180D02*
X332482455Y-31324800D01*
X332482455Y-31324800D02*
X332387217Y-31372419D01*
X332387217Y-31372419D02*
X332149122Y-31372419D01*
X332149122Y-31372419D02*
X332053884Y-31324800D01*
X332053884Y-31324800D02*
X332006265Y-31277180D01*
X332863408Y-30372419D02*
X333196741Y-31372419D01*
X333196741Y-31372419D02*
X333530074Y-30372419D01*
%TO.C,J1*%
D11*
X20620000Y-29540000D02*
X20620000Y-21810000D01*
X23380000Y-21810000D02*
X20620000Y-21810000D01*
X23380000Y-29540000D02*
X20620000Y-29540000D01*
X23380000Y-29540000D02*
X23380000Y-21810000D01*
X23380000Y-30810000D02*
X23380000Y-32190000D01*
X23380000Y-32190000D02*
X22000000Y-32190000D01*
%TO.C,J2*%
X328670000Y-29540000D02*
X328670000Y-21860000D01*
X328670000Y-32140000D02*
X328670000Y-30810000D01*
X330000000Y-32140000D02*
X328670000Y-32140000D01*
X331330000Y-21860000D02*
X328670000Y-21860000D01*
X331330000Y-29540000D02*
X328670000Y-29540000D01*
X331330000Y-29540000D02*
X331330000Y-21860000D01*
%TD*%
%LPC*%
D12*
%TO.C,J1*%
X22000000Y-30810000D03*
D13*
X22000000Y-28270000D03*
X22000000Y-25730000D03*
X22000000Y-23190000D03*
%TD*%
D12*
%TO.C,J2*%
X330000000Y-30810000D03*
D13*
X330000000Y-28270000D03*
X330000000Y-25730000D03*
X330000000Y-23190000D03*
%TD*%
D14*
%TO.C,J3*%
X100500000Y-34550000D03*
D15*
X251500000Y-34550000D03*
D16*
X100500000Y-28850000D03*
X251500000Y-28850000D03*
X100500000Y-25150000D03*
X251500000Y-25150000D03*
D15*
X100500000Y-19450000D03*
X251500000Y-19450000D03*
%TD*%
%LPD*%
M02*
